<mxfile host="app.diagrams.net" agent="Mozilla/5.0 (Windows NT 10.0; Win64; x64) AppleWebKit/537.36 (KHTML, like Gecko) Chrome/134.0.0.0 Safari/537.36" version="26.1.3">
  <diagram id="C5RBs43oDa-KdzZeNtuy" name="Page-1">
    <mxGraphModel dx="1201" dy="1065" grid="1" gridSize="10" guides="1" tooltips="1" connect="1" arrows="1" fold="1" page="1" pageScale="1" pageWidth="827" pageHeight="1169" math="0" shadow="0">
      <root>
        <mxCell id="WIyWlLk6GJQsqaUBKTNV-0" />
        <mxCell id="WIyWlLk6GJQsqaUBKTNV-1" parent="WIyWlLk6GJQsqaUBKTNV-0" />
        <mxCell id="h2ThywPJN_csoFAg978N-24" value="" style="edgeStyle=orthogonalEdgeStyle;rounded=0;orthogonalLoop=1;jettySize=auto;html=1;" edge="1" parent="WIyWlLk6GJQsqaUBKTNV-1" source="h2ThywPJN_csoFAg978N-1" target="h2ThywPJN_csoFAg978N-23">
          <mxGeometry relative="1" as="geometry" />
        </mxCell>
        <mxCell id="h2ThywPJN_csoFAg978N-14" style="edgeStyle=orthogonalEdgeStyle;rounded=0;orthogonalLoop=1;jettySize=auto;html=1;exitX=0.5;exitY=1;exitDx=0;exitDy=0;" edge="1" parent="WIyWlLk6GJQsqaUBKTNV-1" source="h2ThywPJN_csoFAg978N-11" target="h2ThywPJN_csoFAg978N-11">
          <mxGeometry relative="1" as="geometry" />
        </mxCell>
        <mxCell id="h2ThywPJN_csoFAg978N-26" value="" style="edgeStyle=orthogonalEdgeStyle;rounded=0;orthogonalLoop=1;jettySize=auto;html=1;" edge="1" parent="WIyWlLk6GJQsqaUBKTNV-1" source="h2ThywPJN_csoFAg978N-23" target="h2ThywPJN_csoFAg978N-25">
          <mxGeometry relative="1" as="geometry" />
        </mxCell>
        <mxCell id="h2ThywPJN_csoFAg978N-28" value="" style="edgeStyle=orthogonalEdgeStyle;rounded=0;orthogonalLoop=1;jettySize=auto;html=1;" edge="1" parent="WIyWlLk6GJQsqaUBKTNV-1" source="h2ThywPJN_csoFAg978N-25" target="h2ThywPJN_csoFAg978N-27">
          <mxGeometry relative="1" as="geometry" />
        </mxCell>
        <mxCell id="h2ThywPJN_csoFAg978N-29" style="edgeStyle=orthogonalEdgeStyle;rounded=0;orthogonalLoop=1;jettySize=auto;html=1;exitX=0.5;exitY=1;exitDx=0;exitDy=0;" edge="1" parent="WIyWlLk6GJQsqaUBKTNV-1" source="h2ThywPJN_csoFAg978N-27" target="h2ThywPJN_csoFAg978N-27">
          <mxGeometry relative="1" as="geometry" />
        </mxCell>
        <mxCell id="h2ThywPJN_csoFAg978N-41" value="" style="edgeStyle=orthogonalEdgeStyle;rounded=0;orthogonalLoop=1;jettySize=auto;html=1;" edge="1" parent="WIyWlLk6GJQsqaUBKTNV-1" source="h2ThywPJN_csoFAg978N-30" target="h2ThywPJN_csoFAg978N-33">
          <mxGeometry relative="1" as="geometry" />
        </mxCell>
        <mxCell id="h2ThywPJN_csoFAg978N-30" value="" style="rounded=1;whiteSpace=wrap;html=1;" vertex="1" parent="WIyWlLk6GJQsqaUBKTNV-1">
          <mxGeometry x="430" y="20" width="340" height="610" as="geometry" />
        </mxCell>
        <mxCell id="h2ThywPJN_csoFAg978N-1" value="1.&amp;nbsp;&lt;span style=&quot;font-family: &amp;quot;JetBrains Mono&amp;quot;, monospace; font-size: 9.8pt;&quot;&gt;open_metamask_tab&lt;/span&gt;&lt;span style=&quot;font-family: &amp;quot;JetBrains Mono&amp;quot;, monospace; font-size: 9.8pt;&quot;&gt;(driver)&lt;/span&gt;" style="rounded=1;whiteSpace=wrap;html=1;fontSize=12;glass=0;strokeWidth=1;shadow=0;fontColor=default;labelBackgroundColor=none;" vertex="1" parent="WIyWlLk6GJQsqaUBKTNV-1">
          <mxGeometry x="460" y="75" width="280" height="20" as="geometry" />
        </mxCell>
        <mxCell id="h2ThywPJN_csoFAg978N-11" value="Start page when MM initiated in browser:&amp;nbsp;unlock" style="rounded=0;whiteSpace=wrap;html=1;align=left;verticalAlign=top;" vertex="1" parent="WIyWlLk6GJQsqaUBKTNV-1">
          <mxGeometry x="465" y="40" width="270" height="25" as="geometry" />
        </mxCell>
        <mxCell id="h2ThywPJN_csoFAg978N-12" value="" style="shape=image;verticalLabelPosition=bottom;labelBackgroundColor=default;verticalAlign=top;aspect=fixed;imageAspect=0;image=data:image/png,iVBORw0KGgoAAAANSUhEUgAAAeUAAANICAYAAAD5Lfd7AAAAAXNSR0IArs4c6QAAAARnQU1BAACxjwv8YQUAAAAJcEhZcwAADsMAAA7DAcdvqGQAAHKMSURBVHhe7d15fFT1of//90wyWUmGLGRhC0tCQEAWAS2LXJdraV2+Ll8vF/X2e/36bfFab6W11Ov3d4uK3+/X21Jb7FettN+We61LqV+Xr9WWti5FARUsoOwkImGRhCWQhKyTzPz+mCUzZ85JJhDgk/B6Ph5R8jlnzjlzzuS8z2c5Z1yzZ88OCAAAnHduawEAADg/CGUAAAxBKAMAYAhCGQAAQ7jGjh3LQC8AAAxATRkAAEMQygAAGIJQBgDAEIQyAACGIJQBADAEoQwAgCEIZQAADEEoAwBgCEIZAABDEMoAABiCUAYAwBCEMgAAhiCUAQAwxHkN5fmPrNTKR+Zbi/uM87n98x9ZqZU//bYus04412Z+W0+tXKmHF1gnnLnzuX8B4Hw456FsTJj0W5fp2z/tDMnL7ntKT93H3gaAvuAch/J8jRsuVX3wE31ondSfzfy2nlr5lL490zrhbCiRN6tKO1+UpMv0pdEZOnrkgtrbANBnndtQXjBOJQoHBs6KmYM1qKFOVVIooJtUF/wFAGC4cxjKl+nbXypR05bVWmWdhF5z2fRSZZz4ItgSMXOwBumovlhvnQsAYCLX2Ed+E1h5TYnU8KlWfOsn0n1PaeHoSq341heat3KeSsJz7l+tOx/qjNPLEpwvYua39dTXS1X5i2/qJ6GQmP/ISs3Tat35x8F66usXKyM0a9OWFfrmE5Ym1wUPa+U1kbVIatKnUctS9PJ2jYuaNzzffD3c7XZa5lGVVt/5sONFRPfbf5m+/dOFujgr9nXh6WeyvfMfWal5OcFj9mHcdtsJLveD6U9p4eSj8e9rwcNaec2gzn0adby++PJKzRsentGyT2Z+W099/WId/dOdejiqBeSy+57SwsnhPaL410XEb3vc/om87879WWVZHwD0B+6V15SoacsK3fmtqH7erIu1cOU47bzzTt1555268xefqmn4vPgBQ4nOJ2n+ly9Wxv73YkJUkjR8nlb+vfTr8DL+VKWMyQtjRvPOf2RlKDBC89x5p1ZskS7+us2o3+HztHLsztB8K/RpQ4Yu/vun9NTKy1UXfr3dds78tp5aOU+DtqyIrGP1/hLNW/mwuhz/2+X2f6iffCu0PjVFtj/mguN0tzfGKj0ceX0wsIL7qCl4bO+8U3feGXsBk5gMXfz1lRq3K7zfV+jThhLN63KgXnCgWTD4O49XcF9a+tVD+7xk/+rIfHf+4lMdjZqlUziQq7T6TgIZQP/ktq2Vqkmf/iKqVrP+J3pvv5Qx+kuWk3Gi84UGeO2KrydJVVodfUHw4mp92iCVjA1F4cxv6/Lh8bXiD5/4plbvl0q+ZA2IKq2O1Kw+1E8+qJKyMqQtv+58vc12zv/yxcpo+FS/jtoXqx5arSqV6HLHMFT329+t09tee9GDvKSS3DMf5NW0ZUVUAIa3r1Rfchq0tmBeKDhja8WrHgpdcHw5vF8u07f//mJlWFss1v9ED8d9HqMD2a62DQD9gzs+kCU1VOoDS62qqrZJyvLGNpEmOl9XA7z277ScZD/UFyck5QzWZeE+Upv1SNKqXTYBYV1eVZ2apG7CyWlUeJXqGqSM3C4ahq3rs2x/t6yvT2h7Y81/ZKVWrlyplSvnqUQlmrcy+Pu84VLJNcF/O9eyu9Kkyo2W7aiqU5My5HXYJfPHlsS/J0nSh/rgsyZp+Lhgy8PML6k0y+lCLdb8RwhkABeGczDQ68wGeJXkRvdLniUzB2uQOgOs8ye+P9hEqx7qbDpXuCn4F5+qScGm3rgm87PmMg3OsZY5KPEqQwmMDB8+T/OGS1V/IpAB9H/u06k/9cjML6k0y6bGlaCq2iZrUe9b/4WOqrMvNu4nbkCYmeaPLVFTbSjlSrzKsKmxfnjEvse2d4RaCRIRahHo1v7VWrGlSSXX2IwfAIB+xr2wy0E7Z85xgFeCPjxyNL6JOmT+2BLbJvSeCzZTJ94PbKJgLTXc7H1ZwaDOgI4zSIMt+3P+WIf26B6qqo1qoo4RfJBJpGl7/Rc6qgyVTu/+0/fhE98kmAFcENxNWRfr7AVzVwO8EvTiw1q9P0MXfz125O5l9z2lecOb9OlvrP3ApyM0gMlmhPP8R8Kjr4Ojik/rEaE9CKDTl+CTvF7cqSpl6OK/j3ofCx6OuuXpzHz4xK+DI7Qto9Yj/cKRVodVejg0Ut06Cv5hm/7vyMA+ghlAP+b+5i8+VVPWxVpovV2lN3Q1wKsHVj3UeQtUuL83eMvN6dzm4+DFh3XnLz6VJi+M6Ve+vPb0+sJjrdLqLU3KCC3bGvy9Y5UejgyECt6KZX/b0Co9HDnmofc5dmewP7pXBNcdvAWqcz/Oy/lUK6wDtez2+ddLVefQ1bHqoTsjwcwXVQDoj1xjx44NWAt7R/A2ltLP7G65AgAAVmdv9PWCebr4DAZ4AQBwoTmLNWUAANATZ6+mDAAAeoRQBgDAEIQyAACGIJQBADAEoQwAgCEIZQAADEEoAwBgCEIZAABDEMoAABiCUAYAwBCEMgAAhnDNnj2bZ18DAGAAasoAABiCUAYAwBCEMgAAhiCUAQAwBKEMAIAhCGUAAAzhuvrL13BLFAAABqCmDACAIVz5BUXUlAEAMAA1ZQAADEEoAwBgCEIZAABDEMoAABiCUAYAwBCEMgAAhiCUAQAwBKEMAIAhCGUAAAxBKAMAYAhCGQAAQxDKAAAYglAGAMAQhDIAAIYglAEAMAShDACAIQhlAAAMQSgDAGAIQhkAAEMQygAAGIJQBgDAEIQyAACGIJQBADAEoQwAgCEIZQAADEEoAwBgCEIZAABDEMoAABiCUAYAwBCEMgAAhiCUAQAwBKEMAIAhCGUAAAxBKAMAYAhCGQAAQxDKAAAYglAGAMAQhDIAAIYglAEAMAShDACAIQhlAAAMQSgDAGAIQhkAAEMQygAAGIJQBgDAEIQyAACGIJQBADAEoQwAgCEIZQAADEEoAwBgCEIZAABDEMoAABiCUAYAwBCEMgAAhiCUAQAwBKEMAIAhCGUAAAxBKAMAYAhCGQAAQxDKAAAYglAGAMAQhDIAAIYglAEAMAShDACAIQhlAAAMQSgDAGAIQhkAAEMQygAAGIJQBgDAEIQyAACGIJQBADAEoQwAgCEIZQAADEEoAwBgCEIZAABDEMoAABiCUAYAwBCEMgAAhiCUAQAwBKEMAIAhCGUAAAxBKAMAYAhCGQAAQxDKAAAYwuXNyQ1YCwEAwLnnGpiTRygDAGAA18BcQhkAABO4BubmE8oAABjAlUMoAwBgBFdOHqEMAIAJXDl5gwhlAAAM4MollAEAMIIrN59QBgDABK7c/AJCGQAAA/CYTQAADOHKo6YMAIARXHmDCGUAAEzgyhtUSCgDAGAA+pQBADAEoQwAgCEIZQAADEEoAwBgCFd+AQO9AAAwgSu/oIhQBgDAADRfAwBgCEIZAABDEMoAABiCUAYAwBCEMgAAhiCUAQAwBKEMAIAhCGUAAAxBKAMAYAhCGQAAQxDKAAAYglAGAMAQhDIAAIYglAEAMAShDACAIQhlAAAMQSgDAGAIQhkAAEMQygAAGIJQBgDAEIQyAACGIJQBADAEoQwAgCEIZQAADEEoAwBgCEIZAABDEMoAABiCUAYAwBCEMgAAhiCUAQAwBKEMAIAhCGUAAAxBKAMAYAhCGQAAQxDKAAAYglAGAMAQhDIAAIYglAEAMAShDACAIQhlAAAMQSgDAGAIQhkAAEMQygAAGIJQBgDAEIQyAACGIJQBADAEoQwAgCEIZQAADEEoAwBgCEIZAABDEMoAABiCUAYAwBCEMgAAhiCUAQAwBKEMAIAhCGUAAAxBKAMAYAhCGQAAQxDKAAAYglAGAMAQhDIAAIYglAEYITPJWgJceAhlAEZ4aEzAWgRccAhlAOfdu9NadajJby0GLjiEMoDzxu2S/jS1RRNyPUryt1snAxccQhnAeTEk1a93pjZpSn6KJOm3R1OtswAXHEIZwDk3Latdr0xs1Pi8NElSm1862GKdC7jwEMoAzqnr89r0q/JGlQzMiJQdaGKQFyBCGcC59I3iFi0taVRudoZcLlek/NOGzn8DFzJCGcA58VBJk+4ublZuVoY8SW65Qznc5g9oxylCGRChDOBsy/P49asxDfpKTpsGZqYpPdUjd1Qt2e1yqbIp5iXABYtQBnDWTMhs1/NjGzQ+s0N5mR5lpafKWidOdkkVjdZS4MJEKAM4K/42p03/PqZBhR6/vKnJGpiZbp1FkhSQVNFoLQUuTIQygF73tcIW/XBko5JcUkpyknKzOkdaWx1olvwMvgYkQhlAb3tgWJO+PaRZkuR2u4KB3EXr9C4GeQERhDKAXpGZFNBTpad0S35rpCw3K1Nut9sxk1v90s5T1lLgwkUoAzhjpekden5sgy4Z0C5PKIFzBqQrJTkpcuuTE/qTgU6EMoAzMsfr07PlDRqa0qFUd7BzODsjTZlpKd0GcqqbkddANEIZwGn7u0Gt+unoU0p3B5QUytbMtBRlZyT+5RKV1JSBCEIZwGm5b0izHhwW+9SPNE+ycgbY3/pk53ibVM83NgIRhDKAHklyST8cdUr/UBD7tU7JSW7lZjvf+mSHpmsgFqEMIGFDU/16fmy9Ls9ujzRXS5LL5VJudqa6vPfJwheQtjVYS4ELG6EMICHTs9r1XHm9RqV1DugKy83KULK780smEtERYOQ1YEUoA+jWDXlt+nlZg7zJgcgtT2EDB6QrzZPco0CWpDQ3g7wAK0IZgAaqXRnqsBZLkhYWt+iREvv0zEpP1YC0FEV96VOP0KcMxCKUAWheRp2uTz5mLdbDJY1aWBx8ZKZVRqpH3sw0a3HCmjqkw50P/wJAKAO4b0iz1OaTzx/QaFfwFqc8j18ryxs0L8dnO3Qr1ZPc5ZdMJGIv36EMxCGUgQvYg8OaNCu9SW3+4O+TXPW6JL1VL4xt0EXp8QO6JCnJ7T7jQA5I2tZgF/fAhY1QBi5Q/2NEo27Ob9Xamti+5FnJdSrw+JViE8iSlJudIdfpdiKHtPoZeQ3YIZSBC9BPR5/S3+a06URrQAcbQ9XkkC+a/HFBLUlul0vFU2fLk9SzW5/sJLsIZcAOoQxcQDKSAvrVmAbNyGpXikvafLwjrs/YH5DePdyuI21uZWekKi87Q8XFRRo8a56S8gbLXTTK8oqeC4aydc0ACGXgAjHI49fKMQ26KCPYV+zzSx8f65BdI7VL0hv7fcpKT1N68QglXTRbgdTM4MTBY6Si0daX9Ig/wD3KgB1CGbgAlKR2aOWYBo1K80cGb20+Ht9EHRaQVNPUoVePpkvDJ0hut1zu4OkiEJBUXCoNHWd9WcL2299lBVzwCGWgnxuX0aFflZ/S4FS/kl2d9eINxzrUEXB+WnW7P6A/flqlHfu+iCmPjPHKH6bAiItjpiVq5ymntQIXNkIZ6McuGdCuleUNyk32x4Tvnjq/TrQG5ArVirvy3B8/VIe/czBYIBB6hcsleQsVKJ0uJSV3vqAbrX5p5ylrKQARykD/dbnXp1+MaVBqVO047ONjwabr+Cnx6ptatOqdjyO/R98O5XK7pcyBCpRdKqUk9j3KLjHyGnBCKAP90E/HNOuJ0adsm6aPNAf0WUPsbVBd8bV3aM3m3dq0p8o6SQoHc2qGAmMulTKyrZPjpLilSkZeA7YIZaCf+fnYJs0Z0GItjth0vEPJob/8njwD5Pk/faTGls6HVfujqtkut1suT6pUNkPKzu+c4ICaMmCPUAb6kZcnNGp6hvO3PLR2SH893qF2f7AZOdw9nIhWX7tWvb0x8rvtA0TcSdLoS6ScYuuUiCNtUqPzwG/ggkYoA/3EW5NPaVRKm7U4xubajkiY9iCPpVAz9kc7Ptf6rZ9J3QX6iIulQcOtpZKkCkZeA44IZaCPG+Tx66NLGpTn9lknxdlwNFhLPhMvvPWRjtc3dt/0PXRc8H7mKL6AtL0hpghAFEIZ6MMmD2jXW5MblRJot06Ks6vOr7q2zuptVxXdLgWkF/78kbXUXtHomIeMdASkCr6yEXBEKAN91LW5bXr+oiYFOroPZIVqydG6q+g68XV0aNveQ3rnr7uk6PuWneQPU2DEJElSmptBXkBXCGWgD1pY3KIflLbI1+FPqMZb3RxQ1akzbLe2WPXORh06erL7r3F0uSRvgfylM6SBhXwRBdAFQhnoYx4b2ah/Htqm9g5/97XUkM3HOwd49ZYkt1vP//nDrgd8hbjcbrmzcqSRk5WRnthDRoALEaEM9BGFKX7934sadF1+u9r9HQkHckvoNqjo+4oTe2XXOvx+7Tt8XH/4cKt1UpzobX31mqKYaQA6EcpAHzB1QLteHn9KYzL86vAHEqqdhm063hH3h95bleYOv1//b+0WfXboqHVSjOjNHTpilBaOSooqARBm/VsFYJjr89r0H+MaleX2q8OfeJN12IajwW+DOpue+1PXzdjuUL+zPxCQ5NLDc0crk1wG4hDKgMH+ZViTHhvdog5/IBRoPbPjpF8Nvp6/rqeOnGjQq+9tivzudOHgdrkUkJRcUKJX5wywTgYueEkZmQMethYCOP8eG9mo/zyoXe0dpz9q+s0D7ao/B6HsDwT02aGjKvE0Sele7T9yQoMGZllnk0LfMhUI+FWcla6qQ4e1nSd8ARHUlAHDDE31648T6zQvp02+qO8xls0ALevv0b5oCuhA4+kH+ul4ak2l9h6s0UUjnJ99LUkul1vyDtITswapONU6FbhwEcqAQYandeh34+tU4AmGqbUO6fS7NZwDkl6t6v6xm2fKut6bSgdorBIf9JU8ZIx+drF1KcCFi1AGDFLdGj/6KWATflbWsG5uD+hkAo/UdCpXN9PCwuv1uF1aNHWg5o3IUE5Hg3Rsv2VOB6kZmjVmmO4alsjagP6PUAYMkheqIVtZQ7c7XzQFYr/vOHpiVOBay6N1NS3M5ZIykt36ziUDNS43pXPCgZ1SU330rBGu6MB3uaTiMj02IUnljPsCCGXAJE6h3FN76v1dPsGri0kJc7tc8qa49d1pAzXK65GiwjYgKVDl/FCR6PUHXC65ikZr+XhqywChDBgkLzmg9kBs03FMgEX9uys7T/pjasq9LcntUn66W4un5WjIgGTr5OA2tzZJB3daJ8VxuZOkghGaWpSpb486ixsN9AGEMmCQfI9fHQFXbBNvgs3NYQca/WpqP3vhlux2aXBmkr43LUf56bF94C5J/oAUCEiugF86ul+q/SJmHkUeItIpEPDLXVym/14a0IyBMZOACwqhDBgkzxOIRLBTAHcXtxV1fiU5vfgMJbtdGun16IHpOcpKsT99uFzBn4j924O15ihulysmmIO3SBVI3kF6/KLeacIH+iL7vyoA50Vesl/JoUBzCt/u8nb7SX/ksZpOyzgdyW6Xxuel6LuXDJSniw7r8JRwtAYCAflt+pfDj96MMXiMxg6QHh7Tm1sO9B2EMmCQwpTOWm50E7Y1vpwi60hL7K1Q1tedriSXNL0oVfdM8lonOQqfXFwKyN1UL31RYZnDRmqmNGi4vjkioKvznd4l0H8RyoBBCi2jr51C1am8J03XnQ3lXXNJmjM0Xf94UbZ1Urciyw/4pZq9Ut2R+GnRQrdI+V1JmpVrnQj0f4QyYJBgn3L3nHpde9J07eoi3KN9eUSGFpTbP8faTvS2xS2/apvU3mYtjRFwueUePJoBX7ggEcqAQbzJ8XFrF652f7h1bQHVNHe+Pi4QT8N/Gp2pm0p79lQPu20L8/s7FKjaJoWb523enMvtlgpGalJBpnUS0O919fcD4BwakBRQik2S2hRJNmFdUZ9403Ui/m7MAH115OkFo/XSIryt7oBfrvpjUs3nUqi12oln9GRrEdDvEcqAIXr6NC9rnu2Iaro+U/8wLktXDc+wFifMemKJ3daA9MUe6VRtTGm0QEByp2Xq7imDrZOAfs36twPgPMlPtk9U+9Kg8LSWDqnqVM9CPZrb5dLgnGCt+L9NzNbsIenWWc6Y9QljgaptkuWrKRUZgBZQuz+gmpb46UB/RigDhsjz+OWzSWBrjThaeFpFfUfMLVSJSkpyKznJLX8goC9ONOpf5wzW9MI062y9Iu7WZl+rdGCHpTD4nsIPF7lkcOK3YAH9gSu/oKinf8cAzoIFBa26b3CzUt09+5N0JSXrV7uadbDRuVaZnJSkQCCgDr9fLpeUmz1Ag/MHauigHBXnZaso16vCnCylnTqqwP5tkbAPdHNR4MTudYFws7RlQnt+iVyFI9RyrFqZg0fETNt+pEF/s/LDmDKgPyOUAUP88+Bm3VHYqhRXYn+SrqRkeTKz5PEO0oO/Cz4xKyk5SR0dHQoEJE9ykvIHZml4Qa6K87wqCoVvUZ43LjBj7P4g5msX/VFNatH/7orfJny7ctKVoYGT51iLJUlDfvS22jqcLziA/oRQBgzxcEmjbshr6zIw7f5YV5/I1PbqBl0ypkRDBuVEwjc3u+cjpwN+v1R/RK7PP7FOigjXgu1qw9Gcpre1dyg5KUlul+Tr8KulzSd3/lBljplqnVWSdMMLH+uDAyesxUC/RCgDhnim7JQuzfJZix3DTZKa2wPy5uap4NKrpVDzsMsV/BYm22dLJ6pig3Sq+yCM3rbwusMaW9qUmZYS+T08b6uvXa2+DjW1tqk9VANOzshS0ayvdL44pKXdrx+s/UxPfrTPOgnolxJpiQJwDhRE3RIVfaXcVbSmJ7vkSur8PuNwKIYD2e7hHN0JBAIKFI6yFtuK3jaXq3O7A5ZtaGr16URDk744Xq8jdY2qb2qJBLIktTc1yNdwMvJ7eDlpyW5dNpRHe+HCQSgDhhjk8UceutFVEFu5kpIc0/d0Kssul0uu7HwpO986qVvh1blC35l84lSTDh6vU21Dk5pafXHfoxzhTlLzkYORX6M3+0vDcqJ+A/o3QhkwQJIr+ESvrjI0YKlBh7mSkhVwCrso3c8Ry1842lrUrUAg2E98rL5RJ041q7Glszk+vH6X3bb4O9R4uMpaqkBAyk5N1v/+6njrJKBfIpQBAwxM9utAq7vLUHY51KDdSckKxMdcnPBrww/x6C7H3QMGSgMLrcW2wsusb25RzYkGtbS1R6ZZtzlgUyZJHc2Naqs7HlMWrunfMLZQZXk9H7gG9DWEMmCA4z63/lKXoraAXVx1zZWUbFP1dBa5VSn0f+uTtqL5ixKrLbe0+VR9okF1Ta0x/cqS5Au1yTf4AmrwBXSy1X6FAZdbzUcOWYslSalJbj13y2QNTPNYJwH9CqEMGGJrY5Lc3aSr3VRXUpK1KCHhbA6HtN2y3elZUm6xtVgKhXl7h1/HG5pU29Ck9g6/3JZ+5VO+gP5yuF3P7GrTE9vbtPFoh9442FmLjg5wV8Cvxi/22W5HktulwVlpevbmSdZJQL9CKAOG2NqYrORuKsp2/bGupOTTG9FlYbdsSQoUlcb8Hq5ZNza3qvpEg5pbY2/jag9Ita0B/d99Pv1ke5s+PNqhoy3BF6070qG2qG/NsFTa5W9rUc26P8QM+gpLS3ZrSrFXP7t+gnUS0G8QyoAhqtvcOu7r/k/SGr/uqFuizlR42dH9za6UdCl/aOT3Vl+7ak6eUl1TS6QsEBXoHxzp0FM727TzZOxTuMLT2ywP5wqXh4vbmxrkazoVNUentGS3bhxbpEeuGGOdBPQLPDwEMMgPRzbqb3ParMVdyhl3iTKGjJKrF2rLVpEHggT8ClRtk8+VrI50rwIBf/AbnlzBB3+0nTyuw5/t1hepxTrl8qi9wx/66VBH1L/bO/xKdknzvHXytzY7DvqSpOzR45U9ynnU9cPvVuipDTxUBP0LoQwY5LaCVn2rmy+lsD45K3fipcooKomepddEQtPXKiV7JJdzTb7D7w82bQfix4K7Qv9xyaX6xma988EmzclulO9U5zO27WSVlMs7xrkf+ZtvbtNvtx22FgN9VlJG5oCHrYUAzp9bB7Vai2KEn5wVzuWMwSPlycyyzNVLAoFgDdym39pvuThwuVxKcruU5HY7/rjcLjW3+jR13ChlDS9TwO2W7+Rxx/uz2upr1dHaorRBg21r1NeOKdDHX9Rp38lm6ySgT3K+7AVwzm1tTFbUOChH0QHlSu7d24Si+4ejm8TDDygJ56f1W6ACgYDzE7ui5GVnyu0Onnqyho9R8eXXK3Oow2M9AwE1HvpcJ7Z9ZJ0S8e83TdKEgrN0UQKcY4QyYJhdzT0buBX97OszEQ5UlyX0rQHt1HXtdrm67de2TnUnJcntSVHOuEs06NK/VWquzcNKAn411RzQsS1rgxcMltxPS3br17dMVkFmauwEoA8ilAHDfNyQ3O1DRKJzqbdGX7viIjPIvtReT+aN5VJqdo4GXTJXuRMuVXK65eldfr9ajtfo6MfvSoGOmElul0sFmSn69S2THC8YgL6CUAYMs7UxWUlxQ6ViuaJrsGcYyuGaZ3SgWWujvaWrp4eFpRUOU9Hsa+NHXvs71FZXq5oN78jfFux3Dy8uJcmtCQVZWnmj86AwoC9goBdgmMYOl75W2PVgL0XVSrNGXSR3D5/qFT1Iy+UK9ge7XK7I/89GjTMQiO+HthNuAk8ZmK/MYaPlb2uV71RdcGIgoA5fm5qPHFL6oMFyJXsi8ye5XRqVk6H8zBS9vfdY9CKBPoNQBgzT6Hfplvw2ZSYlUK2U5B01Xq7QwKlEhUM3fHtVZ39xAql5mnq6aJfLJXeyR+kFQ5WSW6D2plPqaGmSSwH529vVXHNQ6flFSkpJi7zG7XJparFXHYGAPjjQ+f3MQF9BKAMGuiizQ6XpsX2nVoFQbdk7ekLCiWe9xznBl522cHP1ma4nKS1DA4aMUlJqmnwNJxRo98nf0a7mmv1KzSlQUlp6zG1ic0pyVX2qVZ/WNFiWBJiNUAYMNMgT0PSs9i6fhe2SFHC75bX2vVpEB7HLco/z2RYJY5fU0damjuZGudxuudw9a24P1+CTM73KKimXAn61nTymgL9DTdVVSvXmxw0O+3LpIG2taVBlbVNMOWCynrV5ATgntjYmxT3Vy64xO6mLQV7WAVzh+4zPVSD7/X75OzqkQIdcgYB8J2qUlJom9xncV+1OSpLL7Vb26AkqnPVVpRcOVaCjQ0c3rVHL0S+ss+s/bp6kqcVeazFgLGrKgIGO+tz6b0UtcQOjrIHqTklVVon9lzNEwjj0ut7qL/b7/Qr4g18fEfNwEb9fHW0t8jWdUltdrdpOHFHLscNqrj6g1qOHNKBgsNzJKZKllhywaVbvjsvlUpInRRmFw+Tx5qr9VL1O7d+j5MwseQYEQzgQ6mOemOHXX75oVH1r51dGAqbi2deAoZ4tb9DEzNjvHrbmVnJmlopmfsVS2nOBQKAzaN0uuaKece3vaFdHW6s6Wprlb2lUR2uLOtqa5W9tifm3vz32KxzDkpOTVOjNlMuTIrX7pNQMyVugQE6xXBnZcSO/wwKhN2x9z1Z+v19ut1un9u9R/Wfb5R0zSZlDYp8Qtu3zQ/rWW5XaWtuzL/sAzjVCGTDUt4Y06/ZBrUoJNWPbhXJKdo4KLv1b22mS5PcHpEDw25zcLndMdbTD1xYM1dbOsPW3BX8Phm1L8JucQmF9OiKB7FQN9qQGA3pgkVxZuaFtje1V81tupXKqVQebyv2qr9yq5IwsDRheFiwPBNTe3qEVb6zXE3sa1SaXmtWzPm3gXCGUAUNdMdCnZSNPKcnSDB1tYPlUDRheGvk94Perw9caDNWWJvlbm4JhGwrZjtZQDbet87uQz5ZuA9kqyRMK6EK5svOl8Ht2eL01nCPhHQiovaVJ9cePakDRMJ1oaNKK//cXHTp6Uh1y6WTAozWB3OhFAcYglAFD5Xv8+vPE0EMzHEI5Lb9Y6UXD1fD5Tvlbm+Vv98lvwAjOHgeyldsdDGhvgVzeQsntjmvedhK9nz777HP95P99IF9H7O1lXwRS9WEgJ6YMMAGhDBhs9YQ6FaYEm4/tQtmuLLrcafrZ45In2a2CMwlkO95BkrdAGlgkJSVH+pG78+CKV1Rb3xhTFpC0I5Cl3QHL87UBA3T/qQZw3nx8KlldXTU7xV64PBzMivr/2eNS8tkIZEmqOyrt3y59+rZU+bHcxw8q4As+itTv0Od96OjJuEBWaJ+Mc52yFgNGIJQBg33amKw2fzDgTjfmogM63Anb+wEdrCGfUZN1ohqOSwd3yrXtL9Kej+Q+WqVAW3PMLO0dHdpcsT+mLFpjgIFeMBOhDBhsa2NyzENErGFq/b1b0Q8Q6bXwPEtN1oloPCl9sUeBnevlr/xYgeq9UkujkpOS9PmBw9a5JUlNgST9ORAcSAaYhj5lwHAfTTmhlFDWRfcR92p/sct1mt/XeHYD2e9OltxuuSS52jvvMQ540tSRmasOb6H8ecPk9xbJ7y1UR3ahdmzaqK1/fFmbdu6NWZYktcut3/sHqb339hzQqwhlwHAryxs0OfQQkV4NYkeuSB08IJdcjvXx0w9kvztJciXJ5ZJcHb7IBUEgOUX+jBy1ZxfInztU/pzBkbD1ewvkzy5Uh7dQgVT7QVrhR4mu/uH3tOE3P495oElALr3nz9FxpUS9AjALoQwY7t7BzbqjsEWpli+TODcB3SngcskVqU275ElOUoE3I/YpXC63Au7kUNi2Bx8GIknuJHVk5qgjq0AduYMVyBkarOVmF4T+Hwrd9N55TvWud9/Qbxb9feTBJz659Rd/rhrk/KxwwASEMmC4uV6ffjzqlNxRoXyuA7lTcO0ul0tZ6SlKT01RUna+2rPyg7Xa3GHyewtCNdtCdWQXyO8tlD/z3D6so7WxQf/rssLgv+XWH2myRh9BKAOGy00O6O2LT0rnKYwDyalytbfKnzpA/oIR8ueXyH/J9Uoqn6GUQcOVlJQkv98vl8vV42bs3mL3YJEV82cpKSNbT2zYHVMOmIxQBvqA30+oU3GK/5yEsi/gUpIrILekve5cdUy4SunT5ql18DjrrJKk1NRUpaenKy0tQxkZGfJ4PMEvuAgEEnrAR2+IDuW2tlb5/X79r9vn6dVdB6yzAkYjlIE+YGlJo67LC44+PhvN121+KcUtHWpz6706jz6q9+ijhmS1hO6RvnjSFF133X/S1EumW18ax+PxKD09Q+np6crIyFBKSuo5C+lAIKC176/R/3j0+zr8xSHHIWqAqQhloA+4Nb9V3xvWrGRXoFcCudXvUqo7oGa/Sx/WJ2tdvUcfNXh0sLXr0Lzp5ls1e85cVVcf1pDBQ5U/qEBpaWmSpPZ2n/z+gDweT0xTclJSktLTM5SRnqH0jHSlpaVLkjo6OpSU1DsP8Qgv64c/+B/69bO/sk4G+gxCGegDxmZ06MWx9dbihLUHgkGe5JJ2NCXr/bpkfdTg0eZTZz4aOTs7W4WFxSosKlJhYZEKC4s1bPhwFRYWKTs7OJra7/ervb1dSUlueTwpSk9Pj9Sm09ODI7j9/g653YmHdLjJ2ufzadeuHXrk4f9Pu3ftsM4G9CmEMtBHbJhyUh5X4n+u4drwEZ9b79cFm6M/qveovuNM69mJ83hSVFhUpKLCIhUWFauwsEhDhg5TcfFg5eXlR2rKHo9HmZmZyswcoIyMTLnd7m6/dCIcyj97+qd6+qnl1slAn0QoA33ES+PqVZre4fjVjK1+KdUttQWkjQ0erQsF8d6WxGuf51p+/qBIWBcVFam4eIiGDB2q4cNHKidnYLA2nZGh5KTk4D3HUSO8a2qq9eAD39HGjR9aFwv0WYQy0EcsHdGo63M7HzXZEZD8kjwuqbI5KThAq8GjDQ1n3iRtggEDBkSaxcePn6iJEydpdGmZhg4drsrKPbrlpq9aXwL0eYQy0EfcO7hZdxW1SJJOtLtCTdLB2vBxn13duf9KSkpWR0fw0aNAf0IoA33E/UObNCGjQ09+ka6/9sIALQDmIZQBADDEhdXmBQCAwQhlAAAMQSgDAGAIQhkAAEMQygAAGIJQBgDAEIQyAACGIJQBADAEoQwAgCEIZQAADEEoAwBgCEIZAABDEMoAABiCUAYAwBCEMgAAhiCUAQAwBKEMAIAhCGUAAAxBKAMAYAhCGQAAQxDKAAAYglAGAMAQhDIAAIYglAEAMAShDACAIQhlAAAMQSgDAGAIQhkAAEMQygAAGIJQBgDAEIQyAACGIJQBADAEoQwAgCEIZQAADEEoAwBgCEIZAABDEMoAABiCUAYAwBCEMgAAhiCUAQAwBKEMAIAhCGUAAAzhyi8oClgLAVOVfO3fdO/UbGuxajc9rcee3WYtRp83TwuX36BSa7H26tVFP9J6a/EFZuaip3XTCGupVPnGPVrxlrUUfQE1ZQAADEFNua8af6eWfH26sqzlktp3r9KDP1tjLbbnmanrbmzSGy9tsU5xMF23PXanpqRbyyU1b9MvH3xau6zlvYia8oWGmnJXzl5NeYJuWnqPZsb9qdVr/Yp/0as7reXoLdSU+6rte7XPZy0MSi4cpiHWQgfpX56ruTPmaorHOsXBkFEaYhfIknR4z1kNZADo7wjlPmuzDh2zloUMHKaShEJ2lK6aOkzylOvqG0dZJ9q7eJQKrGUhh/ZtsBYBAHqAUO6z6lV5uN5aGJKnEZOsZTYmX62pucF/Fky+2qaJMN7YoXnWopB6VVU4bQ8AIBGEch9W9dlhtVsLJUkZGjJymLXQIltz/3ZyZ5905njNvby76vUwjSjMsBYG+Q5rH/1MAHBGCOW+bMPnOmQtCykYMt5aFGvEDZoR0/Hs0djLb3Zsmg4q15B8a1nIsQP0JwPAGSKU+zLfZlU69SsXjtJYa1mU0isnxwdw/nTNnWwtjDLeeQBZ7f7tarYWAgB6hFDu0w5oX02TtTAovVgjnBJ04DxdNc6uGTpDU2fNtRZG5F40yvYWLKlJVRW7rYUAgB7iPuW+7urvatl19iOnd71+j375jrVUKpj/qBZ/yWnA1nG9vfz7Wr3PWi7N+NbTutV2VXv16uIfab3DLVqSR+njrtK8y2do7Ig85aZ39l23tzapvnaPtq5dr7c3bFOz4zKCzvQ+5eRh0zXrirmaUVqk3AEZSg5flrY2qbZ2r3b99T2tXtP9dsRJH6axf3O1Zl1SrhJvtiJv0e9T88njqty3QWtee1tV9d0vuMt7T9eVa+6C+ZpZFr0ffWquPa5dn/5Bq9/cqFrLKpLL5+n6r8zSlOI8pacGy9pb61V7aLfW/PE32rC7h20cnmyVzL1Fcy8ZpdLczmVKPjU316u2YrfWfPC6Nu/sjYF/3dyn7ClS6bU36LqLx6sw16NkKbgd9fWq3PS6Vv9xo4708O0pfZjGfvkrmhezzJDmaq1//ed69YPJXW+XtTiOR+njZuqqL83VxLI8Zad3rqe9tV61R/Zq05o/aM3HBxzGjQR1+Vmx3qc8/k49+PXpCo3tjNW6V68u+5HWR1reuE/5fEnKyBzwsLUQfUjrME2eNUKZ1nJJqY1VWvPJEUvpZH31tjkakmIpjsjQoIxDWrO52lI+QTOvna4hkRNwlGOf6rW/2DdfJ5ffoDvv+2fdOqtcwwYNULonKWa6O9mj9KwijRg/XVdcMUfDk/dqc+WJmHmiDZx0tWYUx29E8+GNWhv3XqMUz9RN37xPd14zQ2OKc5SZ6pHbFTU92aP0rAINGxPcjuKObfrk81NRMzjwFGniHd/Rvbd/RTPKhig/I1Uxb9GVJE/6ABUWl2vGFV/Rl0YnqXLbbjV0caYddtm1GjfQWio1nMrRVbffqklF1v0YXEfxiCmaM6tUdTs36dApv+Qp0oyv/6u+9ZWLNWxghjxR6eJOTlVmzhCNn/5lTRt8Qp9sPqC2qCXaS9eQ676pb3/j7zWnfIgKs2KXKSXJ48lQduEwTZx2ta68rFTN+zfpwAl/9Ew9VKpp88ptguSEdu0p0n/63p26qrRI2elJUc1+SfKkZqhwxBTNunKOhru7/kx18qjgK/+s+79+oy4baV1meJYBGjZhrqYVNKu9uEjxh+mEdq1erwPW4ijJ5Tfozn++W7fOvlgjCoPHMno97uRUZXqLVHrxHF099xKlHt+gPdX2Hxinz0rtnjf1171RBfnztPCeKzUk5niF1Wv9ysf056ro41SgcVdM17C4P7VWHfjrW9rl1G2GMxb3mUMfc2i79jlUSLKKxyjuOR+Xz9VUuwSPkjXO5mEiA8doSNxVc1DD/u2qtRYqXaXzl+jRf5qnsQ6vi+PJ1tgvf1dL/mmuQzP56cm69Bt6cPEdmlls12Rvw5OtiTcs0ZJ/ulq51v0QLX+mbn1wib42tUjpCf4lZZXN06KHl2je+K4WbK9k6kzldreezHLduug+zczP08xvPqhbx3W/83MvvkP3fm2CtThW+mRd9+C/adHV5crqbhtCkgeW66ZvPaavXe7UKnMmhun6hVerJC40LNyJfqbyNPHrj2rxlxN7f7lTJ6vEWtgtjwpueFBL/mmexg5M8PinF2nuP/6bFs2fHFtj7wnPBN107w0qtd1XPlW+sUyvbre24NSp2ekqzf76AL0kgY8fzLZNlYetf1AhxaM0MaZglK77m/Lu/7jtHiYyfpgKY0tCfNr3mbXZ2KOSrz2khV8q6n5dNrLK53cfEgnKuvq7WrxgcvdhZiOr/GYt/uY8+5P5wOm69d47NCO+Cte91CJd9bUHTyuYE5I6StcvXqKbRiS+/Nyp/6hbnQb5eSbopge+obmFiS+vU4Ym3rxYN/X6e/Uo2TZk7HX9mfKo5GuL9bXx3V/AnD6PShYs0eIrh8VfKHfLoyFf+oYWO25/V/I085tf10yb2rQk1W76hVa8ddxaLOmAau0u9n2Hta/CWojedBqnKphm1yG7PypJyldJ9J1RUQ8L6Y71YSIlo4sdAva4Dm23FM26R3fb9Pv2RO7Uf9Rt087wRJ5/s+66btRpnAQ7JY+4weZknqeZ/3iHZjic6BKSWqSr5t+R4JPXei45tacLztCMv73BZl95NOW/OZ/UE5Otmbd9XWN7ukm9LHfqHbrV7uJg3B267Qw/r92a9nX9l0vPrMUgd+rXtfDqniwjeLHhdHHWvu91PdnFOIxDR21Sua5aVdYy9CpCuR9o3rnXpvlYkrI1ZHT4ZOPRlFnj7Wt9dmIeJpKt0mKHk9bJvdp1Mrpgsm79qkNtvLVaG974uZY+eI8WL7pHi5f8SL/8y2412HY5ZmjKvO7um+5KtmbeMdfxFq6eyJ06X/OiB9PMukPXO5zoeiR7um5bYA3882jImPhui8l36vpya2FQ8+EteulX39eDi+7R4kX3acnylVrt9FS3zAm63tr6cs5la8ZXv2K58MjW3OscBj/1mgm66YYJif/tOfKo9G/viD9GDrKuvs/54vjkRj3z1Go1WMujHKqJ7zhuP17tcK5BbyGU+4OKAzrk0IJdOGRK8B8j5uvqMru/5uOq3Gd3W1X0w0SmOD40pL3mQOwDTJz6rE9u1IqHl+qlt7aoITwirH6vdr32hJb+cqP9H3r+BE093VQd8hXN6iI4Gyre0i+X/0vw4mDxv2jZc29pl0OeNNceVr07vKxRuu4qh4sOu6D6wc/1hlNQScqdeFXCJ1kpeGGz/pXHgstf/C968i9dj86VpIa9q7Xif9yvxYvu0YOPr9LmmIuoaPkaMib6d+cLudpNP9fSH/xcGz49Hlq/T837Nurtp76vJzfZv9+C8t4Pv4a9b+mXT8Xu75c+rbYddChJGjJdV0VfYMU9RCeaT4c+fV0rfhD6nCy6X0uf6uLCw8msqzTDIRsj6wgdn8UPfl8r3tiiQ63W+YIaDh9Xu9daGs8z+E7de90o+89p6169+uRKVTmcMyIOxAdw7bHo0WM4GwjlfmG9Kq2DpUPC3xhl+7AQSTq0Uc++tlG245bDDxMpG6YhDsFxaF/szR9TxtudCHza9c5zqnQ6U25fqVe3210Y5GnsJY5nsy6lX1Ju/37lU+Ub39fSp17RrvAIOV+9jnz8in756NNaHx1Y9bv1xop/0ZKlT2v93tAZbMh0jXNIltpNT2uJNagOb9Gap/5FS9/Yax+enlGaOMNa6OS43v7ZUr36XiiIffWqeu1H+m2F89m1/cBq/eSnr6vyWHDntx9Yoxf+fb398Va2coujf5+piXYXNr7dWv3iFvv3I5+qnn1Zm+2OdX65ppxRM3is2k1Pa+lPX9Guitj9veFXS7XsxW1xgRKUp3HTOx9Bmzu9q8/JUi3/1eqoZ8w3q6EieOGx7AOnLqN4Yy8aZvM3oeCo5198N7iO0PFR83FVvvVzLV/2uiqjgrn58Ea98Pj9Wrr8OW2Nr8DGKZnqdAHUpM0vPRF161MXKqotnxOfar7oalw5egOh3C/4tGu/w0li4DCVpM/VXNuHhfi066M/qHnfK3rL9sQefJhIcukwhz/w46r8NPp15RphOxjIo7E3P6Fly592/LlrvN32SekDh1uLEjJxRJG1SJLUvu8PetZ2YIsk3za9+uRbqmqs1vpVS7V4yRNaY73Xdtww+5N48za98aJz/1zDWz/XW4etpQoO4hmdYBP2vnU294/7tHmvwxWZmrR1zevxTZT7tqgykcqe08WYp1y3LYs/hp0/Dt+3rQxlx4T+GajfqBe66A9t+OgXWm37mZYKissj/y4ttu+jba94xWEAlCT5dGTVSq2xT32Lco0bYv/Zrt30nM2o55Bjq7XipS2qPblbb/zsfi35wUptPmB3pdMztZv+XS987LDOOAdUG9OqUq8jcZ8/9DZCuZ+o/fywQ5NdkWbce7X9IJvG7Vrzni94Yl+3Pf7kLSm57GrddZH9iUvNh7Uvpu3a0+ufqNyB9uHanchDQSxq9q532E8hx17Rk//fUr36gX3Q5eY4tB3W7NXWLs91zt/qleh7PBI3oi5kX3wzY1C19n1sLZOkbaqxf0GsZLsPzZmw1sRPX/OBbd0MOOriYsXdWW91+pwc2tvd4z/2aqvTvYgxnP4mmlS1w/miQpL08c/12MNPaE1PH+7iyKfaL2yvDB3s1qsPh8Z/LLpHixd9X6udHraPXmP7cUEf9PEeh5OUR0OG2IfqoY9eVmX4ly1vaZPtiTpPpcPsr/R1eM9Z/xKKdl+XSXdBqT/Rw6bD+uOOX1hyfvjkc+grxbngUel1Z+P2NPQmQrnf2K1DifQThfl2a80fopvn9urtTT076R/at8FS4pNsR1KfvvpGpybErrU7bEfhqJk2t/1Eyb9Z9/7PJbrpS/a119oTddaioMJRmtjluc55BHvtSYca3fnW3tsXRM1qsL3w67n0YRO6eXiHR1NG2R9D+Tt7w50+J0NGzbQWWYzSxBH2xzOW099Ehkou6qbbYto39ODD92lueZefWFuH9jmMYVC2Zn7tPs10GLgZI3+mrlv0qB77cbBb4rEl39V1Z3hbF7rHYzb7jXr5RsyxfQSlnYbtr2jVX2PDoP3zVg2aNUXFjo/gjFavbX960/K4veNKH3eNJubHPkpTOq41y7+rp37zpv68umc/1kdnJvqYzdrCS3TFyAEx80iSe+AoDWvfqL/utWkS9EzQTd+dr4nZwUcpXjOzVG3VO1V1LKp65/RYU0+BhuUf0oefVNueg7Ou/mf9l0tybK6Cfapc+6w+iboeSvjRiWGDpmjOtCHxFxutX2jDu1tkdxmR0DpqczTqqgkqtB7O2vVa9uBjes3meHX9czqPZ3R4zGbqEJUWVMV9PsKyLr1bt80tjt8nko7seE3rdwSbnpuHX6Y5w+Nbgtx55Rrl9DmRRwXzF+m2MfGvi3/M5nGp7ApNLYi/YksvLteAA2u066jNJyZ/nhZ+fa6GDMjXmOlf1pxJBTq5f7eq62Oj1uk4Hln7sH5zapbt34qSczTu4gLtWbdFdTarlkLrX3yrpuZnRB5H607P0YiJc7rYL+gN8ecI9FlVnx12uDq2Oq5N72yxFkq+jXrr0wRrpr7D2mfzUPrN2+2u0PM068Ybun5kpWeUrrr/Ud11nfPtRj3R/NfdDiOMPSq97lEt+ebNGhuu6XiyVTDtZt31/XtiH5KRXa7rFv6bli65RzNHhTb+0EbtdKjt5U79hpY88A3NuDgv9B48Si+erLnf/Dctcbo9xbdXW60NDsZYr637bGrLudN101ccaqFho27WvUtOr5aXqNyp92jJt27W2LLY/T3jvy7R4gUT4oNcknRcOzd2Rmbtxq4+J0u06L/Oi2rhSFdW2XRd9c2uvtAl3q4dTretZWvm138UXEd+aD+l56n06m9o0eLYx2KmF0/Xbfc/riWL7tDERGq58qnq2WV61e74KfhEurudnlYnj6bM/4rDYzk9Kv3ynWf4MBl0hZpyf9IwRBP/ZpS6bVQ79J5+9fvdtieKxkNZKv+bUpsH7Vt88bGe/cDm6xqrWpU755K4L7xwDyzVnDmXaGBKk+pOnlBDU3voJFqm0qvv0NfvvEETczKUP+oyzZpUoGO7t+iIzV1SidaU1XBAGjtX4wZaq3lBqXmjNPWyq3XNvGt1zTVXa9bFo5Qfv1hJkic9SV988JYqT0rSCe1pL9WV4/Ntr2g9WUUaP+VKXT3vWl0z7yu6YvYlGpPnsGBJtZ/8Vi9tjo0Fp9rPOa8py69q33B9aXKRYt9BknJL52rOpCHyt55S7YnjamsPXtzkjr5YMxd8S9/46jjlpudrzPQrNb6gXts/SeQLL+w41JRDUnNGaeqM2P09vnCAHK//rJ/9k/vkmXi1xtj+0SQpu7Bc02aHPifzvqy5M6aotIvjGV9TlnSgUdkz7b7cQZ3ruPzLwXVcfaWmjSlStu0VnJSa3qTtf/hI1aEabtfHsVkH/npQA2ZM17A06xySe2C5Jtq2Nlypa2+fIMfsT8qR59Sf9Ne9TtVsnAm78wr6qpPbVeX4YIiwJm348+vOI5BP/kHrHG4liVb7hU0gS5K26I237WrLwYfrz/jynVr0r4+Hbp15QksfuE93/U15TC06vXi6vvbf/013feVMngBVr/XPvd39AxISULtpVeytSOue0++caiA9Ub9RL3RxG5URtvxGq8P3aFukF0/WdXfcpyWPhW6FWvZvevCbd2peWXZUq4BHQ6beoSVL7+tsbThv6rXh93+wfPbrteYNh4fX9JptenVVb6zDp8o/P6fN9ofDnm+bXn0y9p7naLaP7nS67S9K7uDO28rQuwjlfmW39tV08xdbu0VrbFquO/m0+Z0t3ZxAmlRV4RTKUvM7T+gZh6c6JcydrbHTZ57Zs6GPva7/+ONe5wuQBNg/H/i41v/7c9rQ7QVQF1qr9faq53rlouHsqteGn/0i9qEqpyO7XHMvPb8n8tpNz+klu/uCdz6nF87089qd7c/phY8S7Bpy4PzlEd04tlornnW6KLAZkb3zgEOTfifni3KcKUK5n9m8r+uRvFWbXu/2D047X9b6Lu+lqda+T6xl0YL9Wc8m2j9to/nAW1r22JmHVsNbP9KyF7eo9jRa2hp2v6JlTs8HPrlRLz35nDbYn+m61npAq1c8ptV2AWEi3za9errvVQp+Ht75kR47j60CDbtX2VxchYU+r9vPZjD7VPXiUi1758BpXCT6dOiDn2uZ4/YnYPtKPen0VLm4EdlrtKmr1jLfXm1N+AEk6ClCub/5dK9z6Pp2a90fEznx1GvNR/Z9zpKkYwe0q9u/yePa+qulemzVRlX15CzUHHya1pLHX9GRbteRmIaPfq7Hlj2n9YdtOqnt+Oq19fWlWvqzt1Tb1TYcW6+XHluqZzdVqznB0G+oWK3lDz+mtx2ahI11Gu9Vob7+Z3/wXT35ul1n+Jk4oA2J1G799dr1xx9p6c/W2F9cRRzX1l98X8v+6PQFKbFqN21xeC5AV3w68vpjWvqz1dp1MsHj31ytNf/+L1q+yumxpolreKuLFqzUUbrp3jtDLVM+bV71B4cmb58q/7jyzFtO4IiBXv1NQ4ZGzJ2iYptmX7tBRY4cBmxJUsOu32t13OAQO341H9yiDW+/o0+OBeTyDFDmgFR5PEmdV4N+n5obTqpq9xatfu0pPfubP2nXwVOxi4mS8EAvq1MHtGvdn/Tu9iNqSfNqYGaqUj2eyO0eam1S7dHd2rzm/+oXv3pBf/3MeRti+E/pyCdr9O57n+pAR5oyBmYp05MqT3h8md+n5hNHtWvnO3rpZ0/r9bU71dDN2bXrwTvW0rM50MvC8l49mWnKTvHIkxw1mK61SQ0nq7Xjk9V6+Re/0Gvv/FVHTiWQco6cBnod14YfPKbX6vI1fPQQDYz5vPvUXH9Suz5YpWd//qzW7jwRPbELfjVWfqQ1732qA8lZKszOU0Z61GdVoYvGV36sX7yZrim222Uz0MvCf3y3Nv/lba2tqpc7JV/Z2bF/E+2t9Tp2eKfe/91K/fLXv9OuaucPTM+Oo191n2xW49g59gMg04Zo6pgkbf7rbjWfqtRft5xQ6vAhGpodvC2qvXav3n/tCb34/um3gKF7rvyCooC1EAAAnHs0XwMAYAhCGQAAQxDKAAAYglAGAMAQhDIAAIYglAEAMAShDACAIQhlAAAMQSgDAGAIQhkAAEMQygAAGIJQBgDAEIQyAACGIJQBADAEoQwAgCEI5Qva41pXc1hH1z5unXB+LHxJlTWHVfny3dYp6NLdemXPYR3d85LuiZSFjm3Ne1oeM+85ZtwxtdtX/VBov/f799kPEcr9yPK1h3W0JpGf83yixtm3cLgKJUkFGr7QOhH93rhCeSXJW6gx1mkwGqEMnC3ns5a44laVFhZrUOFY3bzCOhH93qLLNaiwWIMKL9ei6PLz+ZlEQgjlfmTR7OLQH2LoZ8la1UmqW/tIbLn1DxUAYARCGQAAQxDKCAoPDAn/dDVAZPl7cf3U63rUSR0ehNSD1/dwnfe8vCvxfvQElx1c5i69sjA0WMhp/vDyls6WV5J39kPx84XmWbc8eixA7DY6vYfg/F28H8l2QFPXYw526RVr33OC+yXoNI6p1PWAtKh9FMNhEFP8/rJ5TxbWfdLTZt34ddoco/B+tBlQ6XQsw8u1bo91e4P7IP5Yxw3iTOQzafd+bLYZZxehDKngWlWG/lgjvLP1SNzJIvTHv6AsplSSxixI8A94+Xs6WnNb3OCTMQsOq/IfgkOTYvV0ncH5H5kd824klen2uBN8T5ctSV7NWfqQ5lgWP2ZB/Ak0EYVf3aXb41bf1XvYpesKLMW9rof7pcfHNNr9en5tnaQyTbck0/JpwfWPmRa7vnuumSivpD2/v1VPS5EAit9fXs1Z6nRcJuo7NYfj9r139kNxYW+vB8do0Qt6v05S2XTL39Pjml4mm/d+t66e6JVUoTdueSYy7zqb7Q3+nS7SxZbi03HPy7vi30/ZbfHHG2cVoQzJ65VXFXo+0uf8SPAkYjlZ3PPyolAYRc9brEGFL2iPgn/AcbWaGI9rXehEb+3nfmhtnbxlZbEXBqexzuVrQ4FZt1YP2fSvj1nQWXvq6bKjxWz/ixWSJO/Eq4In8/AgG5s+/VmWznyv1xs1PdjX3/V2eeW17qQExY05CO13SVLFm5EBYV2v37pfen5MrZ6+5U3tiQvfcGBZw6wzsDaG9uXytaELAodj7p29KL7G7PXKqzq9v8Tm/Xln65FugqjrfWQ9Rs/o5t9XxP09afn0yIVMzHtfeJUu9kqq2BgZ+9H1e7Suz0a3n8nO/Rr9fp6vqNDzv65I4CIFvYVQhqQ6vb8kevDXM7r58VCIRU4Wj+v22d7QScE6UOx+zQqHnqVWE+2el6/VmNAJoTRSAwh6+paxnQER0cN1LnxJ15WFTlxjwrWokBW3qnTJWtXVHZHG3d3zZUereCF2+xddrucrJHkn6mrryb871mWFt0sVet5uu8LB0RuWvxesGVW8oEGz7w8V9my/9PyY2rlfGyss4bt8usaoTu+vtYSZNbDCx7ziBQ2yO+YvVkjy6uJrrLXlOr2/xDoyPWr/xtVqo53GMVq0Me7CY/m0Mqlurd63vPdIS8DHoWOSyOc6uuyMxF44LJp9uRateCZ2nTirCGVIdVv1lvW2mRX7VRP9e/i+V+9sPRLThxb6CTd/Fwx3vKoeU+iVVKdP/xR78g57+k9bY08uPV1n6N7Muq1v259EVtyq0jGX6+ZFz/R82VEiJ8vosprTOy3GLSu8XVG1pFihADtTy98LNk/HBHLP93mPj6mDRR9Hh+/deuWrZcHP5S2xYRYXWOH7cctui9/Wms4meG+hpd03qmUgVrg5vYv7u0/rGFkuPEJBW7f1bd1see/WloDuP9dv69NEdnKXwrX5UBdFaP/ZN/3jbCKUIR3Zb//HbqfihZgmyrgf65V8bzib6+zxsutUszOmoO9Z+JIqFwRraQ9FB3K0Hu+XMxRdkwzVhoMhFB1mNoEVYm06j/txep+OvCocZy07M9EXHsGLi9DFjM17dw78s2jR5Z1N+CHe2Q/Rp3yOEcpITLjm7Nisd7fucapZhARrk3ZNiUHhWlBET9e5sybYhxju27Va+JIqw4N4errsc6Xb7Yrqaz0dC18KDuqzawpVIuuP3S89PqaOOsP3lejAig6zl20Cq7tj7nQcy66N72eWYpqmrcEf0e0+cjhGkfB9KXhxEWmhsr53SwtKd+8xHOS94n7NilzMhMaWOO4rnA2EMhLUOUr29rhbTR7XupqH9IjjSNeg8IAe7+yH4uazHfnZ03WuuFVvVISaXq0jaMNh5J2t77x8d8+XfQbimk67FL1d1tHvj2udzSjnxD2udUtnBwf12QWy1OP90vNj6iwcvnNmRwdWVJjNDjadxwRW9DG37q+FL6kytL3xA/a8mrPU7v2F9m+XNdXTPUbh8J2tOZGWgKCY9269IEjkcx1dloD4z6Rhz8G/gBHKSNjTtywPjcoO3mrS2XcXPpFZBy1Z3a9Z4ZHKUfdJHg3fzlJXF9f/2NN1Lpodurq39omGTlx7XiyOzN/TZfdYpEbV2d8ZHw7xOrcreBtX7HbVqc66kxIUGcEbt9zgT2fQ9mS/9PyYOgqFr+L6T6P7aONrsItmh5tcLe8rdMzr1j4SN+o9yOH9ddWsH3K6xygYvorvh49673YXBJH3aPu5dl5fHKfP5PLhKqyLLT9aE7qTwbH/HWcDoYweeEY3j+m8BSjanhcT7Lez6bdSuE/w8a2WUp3GOoPzx4/6Dd7qEXty7umye8phJG63unoPY/XGEUtxr+vhfunxMXUSDt/4gWOLfh0aYWwTWOEm1/j9FbzlyfbCqm6tHnLaZsdWhGineYzC4Rs3uDJc+7YZ/CdF3uPz1kNSt1YPFS7Xp5ZiZw6fyUW3qnSMzfKtAwFx1rnyC4oC1kIAAHDuUVMGAMAQhDIAAIYglAEAMAShDACAIQhlAAAMQSgDAGAIQhkAAEMQygAAGIJQBgDAEIQyAACGIJQBADAEoQwAgCEIZQAADEEoAwBgCEIZAABDEMoAABiCUAYAwBCEMgAAhiCUAQAwBKEMAIAhCGUAAAxBKAMAYAhCGQAAQxDKAAAYglAGAMAQhDIAAIYglAEAMAShDACAIQhlAAAMQSgDAGAIQhkAAEMQygAAGIJQBgDAEIQyAACGIJQBADAEoQwAgCEIZQAADEEoAwBgCEIZAABDEMoAABiCUAYAwBCEMgAAhiCUAQAwBKEMAIAhCGUAAAxBKAMAYAhCGQAAQxDKAAAYglAGAMAQhDIAAIYglAEAMAShDACAIQhlAAAMQSgDAGAIQhkAAEMQygAAGIJQBgDAEIQyAACGIJQBADAEoQwAgCEIZQAADEEoAwBgCEIZAABDEMoAABiCUAYAwBCEMgAAhiCUAQAwBKEMAIAhCGUAAAxBKAMAYAhCGQAAQxDKAAAYglAGAMAQhDIAAIYglAEAMAShDACAIQhlAAAMQSgDAGAIV35BUcBaiAm6aek9mpkdVeRrUtXHz+mZVVvUHlXcJ139XS27Tnp10Y+03joNAHDeUFPuQsP25/TYssf02LLHtGLdcQ350jd093XRSQ0AQO8hlLvga61X7aEDqj10QJWv/Ui/OyCVlM60zgYAQK9Iysgc8LC1EAUad8V05ddu1NpPjoTK/Bp26bUap93684eVkmeUZv7TA7rn9ps1b941mjZa2rOxUo1S/LSSZn3y1yq1dTXNc4Pu/fE9GtuwWp8ckDTrPj12/xw1v71eB/xSydf+Tf86L1tr1+1UuzwqufVfdd+d83XdtdfqystK1LB7iw6d8kuSZi56WndcVqJpN92pKwZXae2OAZr5Tw/oW7ffrGuumqPiZKkwz6ddq9frQNS7BgCcX9SUE5RcfodmjZCOHN4jSSr9h3t0U+F+/fapx/TYU2vUMOIG3XS1R5KUe/0dumlEnd566jE99quNah83X/8l1OztOM23WZXHPBoyvFySNPaiYUrWMJXOkKRslRZnq/bwHjVL0qx7dPesDO373RN6bNnP9VZjuW79pztUEtlaKXfEKDVsWq23/7o/uM4yafMrT+ixn/9B7YOKouYEAJiCUO5C7tR7tGz501q2/Gk99k8zlbXvLf3HK3slSftef0KP/XSlNlccUG3FHh1qlnIHBwM1a0CG1F6nI/sOqPbT1/Xb11Zrw+fBZTpPO6B9NU2hZUzQuGEeNTdLpRdNlzRFQ/J9OvTZNknSjEvKlbzvL3r2vd2qPbRFb7+0UUeyx2vWtMimS/ve0i9Xva4N25s1dmSR2nf/QS+8t1u1FWv0wtrgewAAmIVQ7kL0QK+lD96jJctf0RFfcFp7nUdj5/93Pfbjp7VseexI7arf/0W73BP0tf/1b1r4tZlq/+h1bdhe3+20XTsOqL1opKYMHKOS7ANa/d4BpReOUm7ZMA3xHFDlBkmaoCH5Um3twc4V7jumemUoa2BnUadyFXql+sbj1gkAAMMQyl2IHujV0Bw7beJ/vU83FR7Wb39yvxYvelrrg7kadGy1fvmv/6In/7hXnnE3aNH/fFQ3jQ82bXc5bfsB1XiKNeIrozTk2AHt+mCvDuWXa8r4Yco9dkC7QhcEAID+iVA+LRNUOsSj2sr3tPmAJa2VrZK/uUEzxkhVb/1cTy55QmtO5mnG5TO7mSbp5HZVnczWjKnDVLt/u2pPbtSuY0WaNT1PDfu3q1aStE2Hjkm5uUM7VzkwQ+lqUsPJzqJOu1VTJ2Vn5lknAAAMQyiflv2qbZByh09W6ZBhKr3xes2INF/XK7v8Kt06/w5NKRum3BEjVZgabj7uapok7dbOQ01K9vhUtWObpAPaub9eWZke7Qv1J0vS1m171T7ib3Tb5eXKHVKuuf84V0Pqt2vdx5FZovi06/NqJZd/RbdOG6bcsrm6bfYo60wAAAMQyqelXmt+v0ZVmTO1cPGD+lp5tXbWdNZGt/7qF3q7cZT+7psP6sFvfkVD6tfohReDodrVNEna9Xm15DugnaGArdqxX806rkPbI7Oo+Z0n9My6JpVef58eXHyf5g3crZd+9pyqOmeJUfvKU3phpzT1jgf14De+ouSj1dZZAAAG4DGbAAAYgpoyAACGIJQBADAEoQwAgCEIZQAADEEoAwBgCEIZAABDEMoAABiCUAYAwBCEMgAAhiCUAQAwBKEMAIAhCGUbR2sO62jNYWsxAABnFaEMAIAhCGUAAAxBKAMAYAhCGQAAQxDKAAAYglAGAMAQhDIAAIYglAEAMAShDACAIQhlAAAMQSgDAGAIQhkAAEMQygAAGIJQBgDAEIQyAACGIJQBADAEoQwAgCEIZQAADEEoAwBgCEIZAABDEMoAABiCUAYAwBCEMgAAhnDlFxQFrIUAAODco6YMAIAhCGUAAAxBKAMAYAhCGQAAQxDKAAAYglAGAMAQ3BJlY9IzB61FAIA+6JO7h1qLjEZNGQAAQ1BTBgDAENSUAQAwBKEMAIAhCGUAAAxBKAMAYAhCGQAAQxDKAAAYglAGAMAQhDIAAIYglAEAMAShDACAIQhlAAAMQSgDAGAIQhkAAEMQygAAGIJQBgDAEIQyAACGIJQBADAEoQwAgCEIZQAADEEoAwBgCEIZAABDEMoAABiCUAYAwBCEMgAAhiCUAQAwBKEMAIAhCGUAAAxBKAMAYAhCGQAAQxDKAAAYglAGAMAQhDIAAIYglAEAMAShDACAIVz5BUUBayHOvZycHBUVFip/0CDlDSpQtterzPR0paZ4lJycJLfLZX0JABjFHwiovb1DrW0+NTY3q76uTsePHtGxo0dVXVOjEydOWF8CC0L5PElJSVFp6WiNKi3X8OFDFZBbx5sDOtmRovo2qdEnNbUH1OaX2v1SgKMEwHAul5TsllLcUkayS5keKTtFGpjUprx0l1zya//+g9pbuVuVlZ+pra3NuogLHqF8jpWOHq0JkyZrzOiRqqpt1RetKapuCqiBzyaAfi4rRSrKcGlwaptKclO157PPte2TLar87DPrrBcsQvkcmTp1iqZOmyGfK0V7G1O0rz4gn986FwBcGDxJ0ogsl0ZltskTaNOmjzdo06bN1tkuOITyWTZl8mRdNnOWjre6tbshRTVN7G4AiFaY4VJ5VpvyUv36cP06bd6yxTrLBYNQPktKSoZr7pVXy5ecqe11KTpCGANAlwoyXBrvbZOnvVFr3nlLVVX7rbP0e4TyWXDlVVdp3EUTtLk2WXvr2L0A0BOjvC5NyW3Xzh3b9M7bb1sn92uEci8qLCzUvGuvV70y9PHxZPk6rHMAABLhSZKm5bUrW01a/ebvVFNTY52lX0rKyBzwsLUQPXfRReP0n//zLdpWl6ZPjrvl51IHAE6bPyAdbHTL7UnTV2ddrJMnT+ro0WPW2fodQrkXXDpjhr40e67+8kWSDjSQxgDQW2pbpOoml+ZMGKEkBXTo0CHrLP0KoXyG5syZo/JJ0/TOYY9OtlqnAgDOVKNPOtDo1rSyYmWlp2r//v47AIxnX5+BOXPmaNRFk/X2YY8afdapAIDe0uiT3j7s0aiLJmvOnDnWyf0GoXyaLp0xQ6XjJ+vdao/aGNAFAGddW4f0brVHpeMn69IZM6yT+wVC+TRcdNE4TZ1xmd6rIZAB4Fxq65Deq/Fo6ozLdNFF46yT+zxCuYcKCwv11a9+VeuO0GQNAOdDo09ad8Sjr371qyosLLRO7tMI5R6ad+31+qhaPKELAM6jI00BfVQdPCf3J4RyD1x51VWqV4YqThLIAHC+VZwMqF4ZuvKqq6yT+ixCOUElJcM17qIJ+vh4snUSAOA8+fh4ssZdNEElJcOtk/okQjlBc6+8WptreXQmAJjE1yFtrk3W3Cuvtk7qkwjlBEyZPFm+5Ey+XAIADLS3LiBfcqamTJ5sndTnEMoJuGzmLG2vS7EWAwAMsb0uRZfNnGUt7nMI5W5MnTpFx1vdjLYGAIMdaQroeKtbU6dOsU7qUwjlbkydNkO7G6glA4DpdjekaOq0vv2kL0K5C6WjR8vnSlENtWQAMF5NU0A+V4pKR4+2TuozCOUuTJg0WXsbqSUDQF+xtzFFEyb13QFfhLKDlJQUjRk9Uvv4fmQA6DP2NQQ0ZvRIpaT0zQoVoeygtHS0qmpbuS8ZAPoQX4dUVduq0tK+2YRNKDsYVVquL1r75pUWAFzIvmhN0ajScmtxn0AoOxg+fKiqGeAFAH1OdVNAw4cPtRb3CYSyjZycHAXkVkObdQrQN/nqalTzh/+t1pq91km95lysA0hEQ5sUkFs5OTnWScYjlG0UFRbqeDO1ZJxbHa2NOvr2/1HdltXWSRF1W1br6Nv/Rx2tjdZJAKIcbw6oqA9+1zKhbCN/0CCd7KA/GQD6qpMdKcofNMhabDxC2UbeoALV03QNAH1WfVvwXN7XEMo2sr1eNfqspQCAvqLRFzyX9zWEso3M9HQ1tdOnDPM1frZRR9/+P2qt2auaP/xvVb/xY1W/8WPVfvBbBTq6v7IM92OHX1f9xo/V+NlG62xSaF3R81W/8eNuB3W11uxNeF6gNzW1B5SZnm4tNh6hbCM1xaM2v7UUMFNHc71ObnpTuTP/TkXXfUeD/nahOprqVb/1beusMVpr9uron1coJW+oiq77TuS1Tfs+iQn1QIdPtR/8Vqf2fKi8ObdH5s0aN0cnNr7mODCttWavTmx8TelDL1LRdd9RauEo6yzAWdPmD57L+xpC2UZycpLaCWX0IQOnXiuPNzjSNCk1U9kTrlTL4Qr56mqss0qhGnL9tneUPvQieSfPi5QnpWZq4LTr5TtZo6Z9WyRJTfu2yHeyRrkz/y6yDknKHD1d3ilfVVrxmLjR4I2fbdSJja8pa9ycmOUD50q7P3gu72sIZRtul0sBWq/RRySlZyt5YPytH4EOn/wt9rdOtZ+sUUdzvdKKx1gnyeMtVFpxmVqPfC5/a5Naj3wuz8BCJQ/Itc6q9CFjlVo4SkmpmZGyExtfU8PO95U1bo4yR0+PmR84VwKB4Lm8ryGUbfgDAfXBYwkkrP3UcbmSPHKndYapVUdTvTpaG9XRVK+k9Gy5kvpeUyAuXC5X8Fze1xDKNtrbO5RMKOMccyenKCkjWx3N9baDtAIdPnU01yspI1vu5DO7jz55QF6XNWlJSsrIVlJqZpfbZCdn+o3KGjdHDTvfdxw0Bpxtye7gubyvIZRttLb5lNL3uiLQx7mSPMocNU2+kzVqP1Vrnaz2U7XynaxRasHIM661Jg8sVFJ6tloO77FOkq+uRi2HK5RaMFLu1AylFox03KbmQ7vi+pMV6m8OB7PTQDDgbEpxB8/lfQ2hbKOxuVkZVJVxHqQWjlJacZlq1/82ZpCWr65Gtet/q7Tisl7ppw0PBms+uCMmNDtaG3Xy49/JM7BQGSOCXxSfMWKyPAML47ap8bONqtv8e9WufdExmHOm3xi3DuBcyEh2qbG52VpsvKSMzAEPWwsvdCNHjVJb6kCdbLVOAc6+tKJSebIHqfaDl3Rqzwc6tecDNe/fqpxpNyizNDaQfSe+kO9kjdKHT4xp0u5oPKGWL3YpfchYJQ/Ikb+1Uc0HtiuteIySBwQf0p88IEfpJRfr1O71atjxF53a84Ga9v5VA8pmyHvxNXK5g81FLneS0oeNl8vt1sm/vhHZprZj+5Uz/UZlT7xK7uQUx3V4vIVq2PW+Tu35QB5vYWQacDYVZLjkaazRrp07rZOM5sovKOp7PeFn2Zw5c5Q+eoY+PcauAYC+6OJ8l5o/26D333/fOsloNF/bOHb0qAYm8fBrAOirBia16djRo9Zi4xHKNqprapSXTp8yAPRVeekuVdfYPzzHZISyjRMnTsglv7LO7K4TAMB5kJUiueTXiRMnrJOMRyg72L//oIoyqC0DQF9TlOHS/v0HrcV9AqHsYG/lbg1OpV8ZAPqawalt2lu521rcJxDKDiorP1NJbqo8PEQEAPoMj1sqyU1VZeVn1kl9AqHsoK2tTXs++1wjsmjCBoC+YkS2S3s++1xtbX2zpZNQ7sK2T7ZoVGbfPLAAcCEaldmmbZ8Ev3a0LyKUu1D52WfyBNpUyIAvADBeYYZLnkCbKj/rm03XIpS7t+njDSrPorYMAKYrz2rTpo83WIv7FEK5G5s2bVZeql8F1JYBwFgFGS7lpfq1adNm66Q+hVBOwIfr12m8l9oyAJhqvLdNH65fZy3ucwjlBGzeskWe9kaN8lJbBgDTjPK65Glv1OYtfXeAVxihnKA177ylKbnt3LcMAAbxJElTctu15p23rJP6JEI5QVVV+7VzxzZNy2u3TgIAnCfT8tq1c8c2VVXtt07qkwjlHnjn7beVrSaVDaQZGwDOt7KBLmWrSe+8/bZ1Up9FKPfQ6jd/p0uLgiP9AADnR0GGS5cWBc/J/Qmh3EM1NTX6/e9/r1kFPmV6rFMBAGdbpkeaVeDT73//e9X0we9M7gqhfBp27NipTRs+1OWFPqUw8AsAzpmUJOnyQp82bfhQO3bstE7u8wjl0/TRhg2q3L5FVxQRzABwLqQkSVcU+VS5fYs+2tC3n9zlhFA+A++//7727tiiq4ppygaAsynTI11V7NPeHVv0/vvvWyf3G0kZmQMethYicfv371eqW5o9brBq25LU6LPOAQA4EwUZLl1R3K5PP/5I6z/4wDq5XyGUe8GhQ4fUdKpe86aVqbndpdoW6xwAgNNRNtCluUOkt/70R23Z8ol1cr/jyi8oClgLcXoKCws179rrVa8MfXw8Wb4O6xwAgER4koIPBslWk1a/+bt+N8raCaF8Flx51VUad9EEba5N1t46di8A9MQor0tTcoNP6upPDwZJBKF8lpSUDNfcK6+WLzlT2+tSdKSJ3QwAXSnIcGm8t02e9kateeetfvPozJ4glM+yKZMn67KZs3S81a3dDSmqIZwBIEZhhkvlWW3KS/Xrw/Xr+sW3PZ0uQvkcmTp1iqZOmyGfK0V7G1O0ryFAnzOAC5bHLY3IdmlUZps8gTZt+niDNm3abJ3tgkMon2Olo0drwqTJGjN6pKpqW/VFa4qqmwJqaLPOCQD9S1aKVJTh0uDUNpXkpmrPZ59r2ydbVPnZZ9ZZL1iE8nmSkpKi0tLRGlVaruHDhyogt443B3SyI0X1bVKjT2pqD6itQ2oPSAGOEgDDuVxSsltKcUsZyS5leqTsFGlgUpvy0l1yya/9+w9qb+VuVVZ+prY2aiNWhLIhcnJyVFRYqPxBg5Q3qEDZXq8y09OVmuJRcnKS3C6+lQqA2fyBgNrbO9Ta5lNjc7Pq6+p0/OgRHTt6VNU1NTpx4oT1JbAglAEAMATPvgYAwBCEMgAAhiCUAQAwBKEMAIAhCGUAAAxBKAMAYAhCGQAAQxDKAAAYglAGAMAQhDIAAIYglAEAMAShDACAIQhlAAAMQSgDAGAIQhkAAEMQygAAGIJQBgDAEIQyAACGIJQBADAEoQwAgCEIZQAADEEoAwBgCEIZAABDEMoAABiCUAYAwBCEMgAAhiCUAQAwBKEMAIAhCGUAAAxBKAMAYAhCGQAAQxDKAAAYglAGAMAQhDIAAIYglAEAMAShDACAIQhlAAAM4covKApYC4ELSdpdO1Q+PdtaLKlC++6+QnXWYphnwiqV3ztLaapX9ZMXqWabJC3T8GcWKCc8T/067f7efLXEvBAwCzVlwHTz3tWkZw5q0jPvymudBnsTVqk8OpAlKXuWyn+4SmnRZYBhCGUgrH6ddt89VJ9Efqgl91Vpl04Mhm/4mD65LlhDzp4o7wTr3IA5aL7GBS/SfO3YvNl1M2jk9Z+vU3XeLBVlRzWhzntXk24sC79QLfXZSsuW9PmL+uQHi0PlTstfqMIffl9FcS3r0U20YeFlRK1Dsm+C73abrOuNXob9tqY+cFAjRsbO6w2VtWx8VLt/uSKqidm+THLaL/Wq3lijoulljtt4YuM6pU/vbL6u00K1bFsRXmrMdp94baj2r46aBBiEmjLQFadmULum5JGzYgM0JvwkKTosQ3qy/IRY11GmEVHLSrtrR7fb5H3AeiFQphEPLAsFYfy2lty1UHVvhmqiKlTaBElaJu/I4Cxp+aXB/4drr6pQ9S9XBPdPdCBL0sgFmhTXxJwdDOSIZRr+TOw25kyPXY5TIEsVqiOQYTBCGQjLnqXyZw6G+m93qHDCQhV+LXSyjzRtv6gTkqQyFd210LKAelU/OVSf3H2RarYt0/Bw+H3+Yqg5PPzasO6WL9V8b6g+ea0iNH+F9t0dXn70cmK1bHw0uL5wk21kW5epIDygrYttSssL/iuynLuHhmqnpUoN10xf62zm3/3LFdK2d3SyXpKyNfDShdKE4UoPL3LkNHklpeaH1/2x6mSzfyJNzLNUMC/84pDwPD9YrLS7rg0FbHh/D9XujfWWF4TEXPTYtBoAhiGUAUdRIfROuLl6sY6EAiCt/MrYGt3nb3aGZSSU6lX9Zrg5tvO1QT1cfkJCtVBJ2jZf1Z8H/5mWX5rgNq1Qy/Hgv9Kmfz94gRKpuVaqNTRrzo2hi5cHlkVeV7e7c7u9kVqxJJXJO6+z5nzik8X22xK1vTmTwsu1zBMT7p37u+WXb1ouLoK810Zf9BDIMB+hDITFDPTqujban9X94FFVR+d0ZNTyCtV8z1KzHrkgEswtH22N1HRHhGrkLfXBBeXceH6aj+t+EDqetmMFAPMQyoCjxaoL19yuDNcWO5uAW3a/43yi37ZfzVKwP/TacK0vqvlYSnz5B49Y+mu7EtWsPmGVikK105ZjlQlukyStCDab3x3VdJ5doFRJ0mLtDzdbh2vYecOD2x5ZfliFqp8NBXXY5x8Ha6tRzd2RbYna3hOfdNaMrVqPhdY78loVhvZHZ5N2LO8D1ho9YDZCGehCZABTpL+5s8YXaSa2tVj7w4E2ckGon9oySCrR5UeH6b3h/u6ohVhEmp0jg6jCy4pqqu5imzrviz7YOSgsFKZpd+2ITAs/cKXz4qTzIiPymkj4BrUcqwz9a4Vq3rHsn/D21q/TkS5q051N1eH90bktsTqbzKMDHDAZoQx0Zdt87bYOhkq0f3L1FVGDtCSpQieiQ0uJLn+x9lvncVSv6o2x64we3NTyy4ss21Svluim6gmrVB4zOju0PT9YLM17Nz78Pn8xONArpO6TzmUHa7udfc1SvU5+FHUhs/qKqMFoIZ+/mEBT82Ltv9vSxF5fb/OaqIuE6P5+wGDcpwycNctUeFelaiKh1XlrTuQ+3V4TdU9v3D3MAPoKQhk4S8IPz4h3Nm7NIZSB/oDma+CsWCZ9YtPkHNc0DQCdqCkDAGAIasoAABiCUAYAwBCEMgAAhiCUAQAwBKEMAIAhCGUAAAxBKAMAYAhCGQAAQxDKAAAYglAGAMAQhDIAAIYglAEAMAShDACAIQhlAAAMQSgDAGAIQhkAAEMQygAAGIJQBgDAEIQyAACGIJQBADAEoQwAgCEIZQAADEEoAwBgCEIZAABDEMoAABiCUAYAwBCEMgAAhiCUAQAwBKEMAIAhCGUAAAxBKAMAYAhCGQAAQxDKAAAYglAGAMAQhDIAAIYglAEAMAShDACAIQhlAAAMQSgDAGAIQhkAAEMQygAAGIJQBgDAEIQyAACGIJQBADAEoQwAgCEIZQAADEEoAwBgCEIZAABDEMoAABiCUAYAwBCEMgAAhiCUAQAwBKHcDy1fe1hHa97TcusESdLdemXPYVW+fLd1wlnwuNbV7NIrC63lQfe8vEtH97yke6wTeuRxras5rHX2b9bZ8vd0tOZw5Ceh11tec7TmsI6ufdw6V7/hfeCgJj3zrrzWCRELVfjDg5r0w1VKs046KxJZ3zINf+agJj2wzDrhNAXXWX6Xw4cY6GWEcr9VptvPOPD6qeXv6eiCAr2/pFiDCos1aMlaFS7oKpiDFzIxryks1qDCF7Sn7DYd7eLC47QtfEmVZ2O5IcvXJnpBUaYRDiGYdtd9Ksq2liZg3rvdhH03smep3CF0vQ8sUI61ED3mfaA3L2zQE4Ryf+adre+ckxpx37J8WplU8aZuXhEqWHGr3qiQxkyzD6nlax/SHG+Fni8c2/kaSdL9mlX4iN6v82rOP9i/tl/InqUSa01x3rsqn56tlvr62PJzZeQCDZ8XW5R21w6NGFmvlvO0SUBvIJT7q7q1en5tnbyzH+qiBtgp2OTdVXNusJm4c5745vF7Xt7V5XQnY6JfZ1O7j11uN03vy98LrtvS1Bz9mkWzizVo9v0xL3O08CVdVybtefFyLbJOkyQ9o5vHWJdn2VeW9xRutn8lep9H5gnVypfOlldezVkafzxij9V7Wr7wJVVa9rd1n0VqxaH9cnuZpLLbbLcvRv067X6tQmnTvx8Vgss0/MYy6fMXVbU7dnaFwnHSMwcjP51Nv6Gm5RvLgjXwZw5q0jM7VDghNHnCKpVbXud9wKbp+PMXtXtjvXJujH1tyfRstWx8QtXHY2dXpCk+/POuvBNWqTymth7atrhttgo1oTvO0zl9kqUZPe2uHXG1z7S7dkQ1x4ebypfFLsPSqhB+jdeyn60XKZF5Heexrm+HCv/Lu5r0zEGNGBm88Jn0THfdBehthHI/tueW5Xq/ThqzoOtm0OVrD+v2grV6KNwsG9ec+7jW1dymwrWPRJpuH1pboNujgmD52sN6ZPYRPR9p2t2o6TW3aUznaux5Z+v2wjdDr3lE72u2HolqVr3n5V2W5b6gmtkPdR3MKtPtC9T5miVrpa5eEw7ej22CelyhvKrQRvtEjrfwJVXW3Ca92NnM/fyR2XrEepHina05esHmfYdCfsla1aku0lw+a5EigR17rGp03dLZMSft+H32iN4vuC0YvosuD25ThaSK0PrH3Kqno14fZ/UV2ve5lHPju/JqoQp/uEA59eu0+weLrXMq7a4dKp9eo313D9Undw/VJ3e/qObp3w8F2GLtv3uoPnmtQlJFaJ6LVLMt1KR97yw1vxZ+3VBV538/GA42Wn75hKrrs1X0tVVK0zINv3eW0j5/Ubt/GdOUEQmeEXnrtDu8TU8eUdG9s2KCxvvAAuV8/mJo+jop5iIkbKEKf/h9FWUHtz1+XaEmfYXX9aJOjFzgEN7O0qYv0MDdj0b2w77PyzTC2tyfPUsjyrd2vqfXKpRzY2zoeh84qPLoeZ5cp/Qb4y8m0qYvUOo7oWPxH1eE1hm8+Pnk7qH65Hvz1RLzCpxNhHK/9oxuHvOC9sirOUsdaq7L39PtZRV6PvrEvOJW/XhtncZ8NViDWr72No2peEGltzwTednTtyzX+3Vluu7lux1qk/dr1osVkd+cVej5SC3zGd38+wqpbHpwWxe+pO/Mlt5fEr9c7+zb7N+PJKku9jUrblWp02uWv6ejS2er5sVw8MW6Z1iBVFejPdYJtu7WK/fPlrfihZhlLZr9SOe+iujifTtZfpvmeOv0/uPxxypi4Uv6zmyv5ViEgv7xtzvn66G6Hzyq6voyjXjm+yrKrlf1szYn6gmrVDJdqn7yCnVu0WLtf61CadP/vos+5IUqvDJY896/urO07gcv6kT0bDFWqOZ7L+pE9iyVP7NAOarQPpuLBM37+/jt3TZfVRuj27gXKi0v6tdt87X77qEx2yJdqeHPfD8UuNHvL1ZqfnQne/AixC68u2S5uAjv+6KYMK3QvuiwXH1FsPXgylCtdt67GjEy/n0HWz0sx8Ky33F+Ecr93v2atWSt6lSm220G9twzrCBYs4xu6qw5rEdmeyVvocbobg0viGrqjPw8pDleyVtY5lybXLSx+zCzBt7Oms4T3rjCmCbcyM+CMkkFGu5YATmi/dbz4KKN2qMyTY9OvagBX3aBLElPHzgS2g+JKFOh167G/Yze2lon78SrOpuJu3rfDoIXCFv1luW9Pf2nrZZ9ZnMsJGnFM13XiLu0QjXPrlOLpBOvhWq3VkMLlKZsFd0b3fQabq4uVFq4qTlOqVKzpROfWEN1seo+txTFCAa+VG+5EOiUNqRQqt+qOsv2tny0NeqiYoVq3qmINNfG15CltOmzgq0D3dQa695cp5bsWSp3bN7uXsuxSkvJCtXtrlda+ZWdtfv6I2qNnSn4nrInyjvB+X1r9cc6oTJ5o95j/PpwPhHKF4JwbarsNlW+XGadKtVFNYfG/HTWtuqimq5jfhLtmz1tFVHNsNE/1kFXp2HR5d0vZ2eN6qxhfqHaNl9VTz7aTa0q3Cxt/XEI8jO1+grtfvKJM1/26mCzbbgZ2NqP2/J5RTBsu+tfDdWyw03gMX3mQAII5QvE07eM1fMVknf2bZoTdbYJ1gQn6mrrRf3Cu0O1ume0/4hia3kh9ywMNcc6Bdfy6QnWMB04LTeybU5satHLp2uMUw2yK+GR2Qscmv9D/bzB/vcK1dTZjeK+W1dP9Kpu69tnUFN1Plb3XDOxM0Cc9lkvadnWxRXMwSNqsdTCJEkTFnYdZKpUa72UM8l6C84yeR36lKN1tU0th2qkUO0xWtqlE+23afUVwb5g6/s49hvtfjJUC+4umBUO50dVXZ+tgZdGHbC84TGvjW3uDkrLL7WULJS3PFstu9/prKVnFyg1dqbgewrVjp3et+ZNU44qVNflhRXOJ0L5AhLs27QWvhC8pef+qBG4C19S5dKHIgOuFv16reost1fd8/IuPbI0NLLbNrge17oFNrXynnBa7tKH9EhXI4atfegLX1LlgjLVrX0hZgR1eBRz/EjzWOE+4dvj7ht+XOtqHtIcb50Kh4UGaT2+VnVlt1lGSwdvqXojqk++Wyv2q0ZeFY6LKnM4Vt+ZHXWVFR4PELPPQiO6owab7ampkwqGd7EPT8O2+aqODAgLW6bh934/NsgOHlFLTHN2Z/Nx7EClXrjnePVvogaEhYRGakeERn1bm5vTh1iufrbN1+67Q/3YtsFs/+CScMgGm5dnqSD8Hue9az+QzTI4zPtAcHBZdUzftOX+8dAtaifeCTWvr75C+z6Pf9/lN5apZeNvbJv6o7Ueq4+7gMC5QShfUEKhYS0bEx4hHOqzDQ18ijRNr7hVpaFRz519zsHRveG+2EWzwyOyw32/16pmyQvd9yl3I365oVHgXY4YrtDzS2p0XdT70dpHYgaqKdxXLqlwmMOo7IjQQKkXj1j6t4MD4AYVjlXpLbH7Sgs65wuOlna6pcpJcEDbmNBygiFvd6wK9caS2GP69C1jNehFRe2zhzTnyAsx3RFP37I8OOK7pptbonqo7gdDtXtjYeh2p4Oa9MwCpW98NHYE77b5qtqoUN9zqHl39RWR0cHhvuiiY48GRwGfkRWq+d5Q7Tse7Oed9MxBTbq3QNVPBvvHpVDYRpqbO7fZfoDWYu0PB3Nc/3NoWvhWome+r6LjL+qT8AC00ECrYPP4QU26UaqOGXAW1LLxUVXnh7floEaMrNA+6+Cy+nXa/U5B53u6sUwnXosdnFb3g6HavXti1PsOjm63f1+xWn75hKoV2me2FyA4W1z5BUUBayHQZy1/T0cXSM/3OASB8y14y9XA3U4XBEFpd+0I3urUzaAz9E3UlAEAMAShDACAIWi+BgDAENSUAQAwBKEMAIAhCGUAAAxBKAMAYAhCGQAAQxDKAAAYglAGAMAQhDIAAIYglAEAMAShDACAIQhlAAAMQSgDAGAIQhkAAEMQygAAGIJQBgDAEIQyAACGIJQBADAEoQwAgCEIZQAADEEoAwBgCEIZAABDEMoAABiCUAYAwBCEMgAAhiCUAQAwBKEMAIAhCGUAAAxBKAMAYAhCGQAAQxDKAAAYglAGAMAQhDIAAIYglAEAMAShDACAIQhlAAAMQSgDAGCI/x+eCa5fCioBMwAAAABJRU5ErkJggg==;" vertex="1" parent="WIyWlLk6GJQsqaUBKTNV-1">
          <mxGeometry x="480.19" y="185" width="239.61" height="415" as="geometry" />
        </mxCell>
        <mxCell id="h2ThywPJN_csoFAg978N-23" value="2.&amp;nbsp;&lt;span style=&quot;font-family: &amp;quot;JetBrains Mono&amp;quot;, monospace; font-size: 9.8pt;&quot;&gt;def &lt;/span&gt;&lt;span style=&quot;font-family: &amp;quot;JetBrains Mono&amp;quot;, monospace; font-size: 9.8pt;&quot;&gt;unlock&lt;/span&gt;&lt;span style=&quot;font-family: &amp;quot;JetBrains Mono&amp;quot;, monospace; font-size: 9.8pt;&quot;&gt;(driver):&lt;/span&gt;" style="rounded=1;whiteSpace=wrap;html=1;fontColor=default;labelBackgroundColor=default;" vertex="1" parent="WIyWlLk6GJQsqaUBKTNV-1">
          <mxGeometry x="460" y="105" width="280" height="20" as="geometry" />
        </mxCell>
        <mxCell id="h2ThywPJN_csoFAg978N-25" value="3.&amp;nbsp;&lt;span style=&quot;font-family: &amp;quot;JetBrains Mono&amp;quot;, monospace; font-size: 9.8pt;&quot;&gt;enter_password(driver&lt;/span&gt;&lt;span style=&quot;font-family: &amp;quot;JetBrains Mono&amp;quot;, monospace; font-size: 9.8pt;&quot;&gt;, &lt;/span&gt;&lt;span style=&quot;font-family: &amp;quot;JetBrains Mono&amp;quot;, monospace; font-size: 9.8pt;&quot;&gt;password)&lt;/span&gt;" style="rounded=1;whiteSpace=wrap;html=1;fontColor=default;labelBackgroundColor=none;" vertex="1" parent="WIyWlLk6GJQsqaUBKTNV-1">
          <mxGeometry x="460" y="135" width="280" height="20" as="geometry" />
        </mxCell>
        <mxCell id="h2ThywPJN_csoFAg978N-27" value="4.&amp;nbsp;&lt;span style=&quot;font-family: &amp;quot;JetBrains Mono&amp;quot;, monospace; font-size: 9.8pt;&quot;&gt;click_unlock_button(driver)&lt;/span&gt;" style="rounded=1;whiteSpace=wrap;html=1;fontColor=default;labelBackgroundColor=none;" vertex="1" parent="WIyWlLk6GJQsqaUBKTNV-1">
          <mxGeometry x="460" y="165" width="280" height="20" as="geometry" />
        </mxCell>
        <mxCell id="h2ThywPJN_csoFAg978N-36" style="edgeStyle=orthogonalEdgeStyle;rounded=0;orthogonalLoop=1;jettySize=auto;html=1;entryX=1;entryY=0.5;entryDx=0;entryDy=0;" edge="1" parent="WIyWlLk6GJQsqaUBKTNV-1" source="h2ThywPJN_csoFAg978N-33" target="h2ThywPJN_csoFAg978N-35">
          <mxGeometry relative="1" as="geometry" />
        </mxCell>
        <mxCell id="h2ThywPJN_csoFAg978N-37" value="&lt;span style=&quot;font-family: &amp;quot;Euclid Circular B&amp;quot;, Helvetica, Arial, sans-serif; font-size: 12px; letter-spacing: 0.39996px; text-align: left; text-wrap-mode: wrap;&quot;&gt;Incorrect password&lt;/span&gt;" style="edgeLabel;html=1;align=center;verticalAlign=middle;resizable=0;points=[];labelBackgroundColor=none;fontColor=default;" vertex="1" connectable="0" parent="h2ThywPJN_csoFAg978N-36">
          <mxGeometry x="0.1875" relative="1" as="geometry">
            <mxPoint as="offset" />
          </mxGeometry>
        </mxCell>
        <mxCell id="h2ThywPJN_csoFAg978N-39" style="edgeStyle=orthogonalEdgeStyle;rounded=0;orthogonalLoop=1;jettySize=auto;html=1;entryX=0;entryY=0.5;entryDx=0;entryDy=0;" edge="1" parent="WIyWlLk6GJQsqaUBKTNV-1" source="h2ThywPJN_csoFAg978N-33" target="h2ThywPJN_csoFAg978N-38">
          <mxGeometry relative="1" as="geometry" />
        </mxCell>
        <mxCell id="h2ThywPJN_csoFAg978N-40" value="&lt;span style=&quot;font-family: &amp;quot;Euclid Circular B&amp;quot;, Helvetica, Arial, sans-serif; font-size: 12px; letter-spacing: 0.39996px; text-align: left; text-wrap-mode: wrap;&quot;&gt;OK password&lt;/span&gt;" style="edgeLabel;html=1;align=center;verticalAlign=middle;resizable=0;points=[];fontColor=default;labelBackgroundColor=none;" vertex="1" connectable="0" parent="h2ThywPJN_csoFAg978N-39">
          <mxGeometry x="-0.0286" y="-2" relative="1" as="geometry">
            <mxPoint as="offset" />
          </mxGeometry>
        </mxCell>
        <mxCell id="h2ThywPJN_csoFAg978N-33" value="&lt;span style=&quot;font-family: &amp;quot;Euclid Circular B&amp;quot;, Helvetica, Arial, sans-serif; letter-spacing: 0.39996px; text-align: left;&quot;&gt;password&lt;/span&gt;" style="rhombus;whiteSpace=wrap;html=1;labelBackgroundColor=default;fontColor=default;" vertex="1" parent="WIyWlLk6GJQsqaUBKTNV-1">
          <mxGeometry x="500" y="680" width="200" height="100" as="geometry" />
        </mxCell>
        <mxCell id="h2ThywPJN_csoFAg978N-35" value="&lt;div style=&quot;&quot;&gt;&lt;pre style=&quot;font-family:&#39;JetBrains Mono&#39;,monospace;font-size:9.8pt;&quot;&gt;&lt;span style=&quot;&quot;&gt;def &lt;/span&gt;&lt;span style=&quot;&quot;&gt;handle_incorrect_password&lt;/span&gt;(driver):&lt;br&gt;    &lt;span style=&quot;&quot;&gt;# Вызов функции для проверки ошибки пароля&lt;br&gt;&lt;/span&gt;&lt;span style=&quot;&quot;&gt;    &lt;/span&gt;&lt;span style=&quot;&quot;&gt;if &lt;/span&gt;check_password_error(driver):&lt;br&gt;        click_forgot_password(driver)&lt;/pre&gt;&lt;/div&gt;" style="rounded=1;whiteSpace=wrap;html=1;fontColor=default;labelBackgroundColor=none;" vertex="1" parent="WIyWlLk6GJQsqaUBKTNV-1">
          <mxGeometry y="680" width="340" height="100" as="geometry" />
        </mxCell>
        <mxCell id="h2ThywPJN_csoFAg978N-38" value="" style="rounded=1;whiteSpace=wrap;html=1;" vertex="1" parent="WIyWlLk6GJQsqaUBKTNV-1">
          <mxGeometry x="840" y="700" width="120" height="60" as="geometry" />
        </mxCell>
        <mxCell id="h2ThywPJN_csoFAg978N-44" value="&lt;span style=&quot;text-align: left;&quot;&gt;Get in browser:&amp;nbsp;&lt;/span&gt;restore-vault" style="rounded=1;whiteSpace=wrap;html=1;" vertex="1" parent="WIyWlLk6GJQsqaUBKTNV-1">
          <mxGeometry y="800" width="340" height="60" as="geometry" />
        </mxCell>
        <mxCell id="h2ThywPJN_csoFAg978N-45" value="" style="shape=image;verticalLabelPosition=bottom;labelBackgroundColor=default;verticalAlign=top;aspect=fixed;imageAspect=0;image=data:image/png,iVBORw0KGgoAAAANSUhEUgAAA4YAAAPFCAYAAAA5v/bPAAAAAXNSR0IArs4c6QAAAARnQU1BAACxjwv8YQUAAAAJcEhZcwAAEnQAABJ0Ad5mH3gAAP+lSURBVHhe7P17dFzVgSf6f51Hm0BCQYJUKIlluOOq2Glk0mkrIVbJ6WDazRimf4k1biMpzI3HSUtLpEOBIGToacvyTGclAUGRBl1pAuNeDZJw60rJ6sEet4PJRCpBgpwELDo2Ve4LlkiUkpKYgkDs5uHfH2efU3vvs8+j9Lbr+1lLa9nnuc9+nb3P3ufUskQicQZERERERERUst6hLyAiIiIiIqLSwo4hERERERFRiWPHkIiIiIiIqMSxY0hERERERFTi2DEkIiIiIiIqcctWr17Nr5ISERERERGVMI4YEhERERERlTh2DImIiIiIiEocO4ZEREREREQljh1DIiIiIiKiEseOIRERERERUYlb9slPfnLOv0r69ttv46233sKbb76Jf/u3f9NXExERERER0RKyLJFIzHnHUHbmzBmcPn0ap06dwptvvqmvJiIiIiIiokU271NJly1bhvPOOw8XXXQR3vve92LZsmX6JkRERERERLSI5r1jKLM7iO9+97v1VURERERERLRIFrRjCADvfOc7EYlE8Ad/8Af6KiIiIiIiIloEC94xtF144YUcOSQiIiIiIloCFq1jCIDvHBIRERERES0Bi9oxfOc734kLLrhAX0xEREREREQLaFE7hhAfpHnXu96lL561be17sKd9m76YaJ5tw649e7CrXl8uWX8LHtjzAG5Zr68IVly+vgq3fHsP9uzZgz3fvgVXzeK85CdEmgPOdg/cfJW+IpRt7SIt9+xC2Bwwm7wWnn5dYeOjODO6/vmwIHEaXnF1wtKzmOHf1i7qRn0FLTK9TiGihRLQMSxHzY134O7/8Q/o6+tDX18f/uGB3dj+cXmbv8TdYl3h70H8183yNv7OO+88fRGVkKtufmBRG3t+5/dbN/9mc3O8Crd8uwlrTx7A9u3bsf0r9+JH+iZ01tjWvgfXXnwE3du3Y/v2Xdirb3COK/Xr17FDM9+sh2r2w42rbn5ghvUwEdHZ5R2fv1RfJKvGZz79MZS/8Qs8MzyCZ/6/l4H3x7DpS3fgM/YmVRfg3QDe+OUzGBkecf5+NqEeyc/y5cv1RbSArrr5gRJuZFyFT/278/H6MwcMjU2/dUvc+k9h1fuAE8fOupCTyzasqQRe/9enSrRzX+rXr7Pi48RTJfawZ0FHalci8r4TONoH5z4wPbVQsT0/I+5nvQVNf6LS9Y6P/f/K9WWSl/Gz/ffjtpv+C77ZeT+++ddtSP8SwEWX4RO1YpMVF+ACAP/2m5/h/s77xd8e7BvTDuVj2bJl/PmKEvaj+25avFGA9Z/Cqve9juOjhpu+37oFsRe7tm/HTfct1vmJaMmpX4OVsDstNC/WfxBlr+ZxAhCdxNeRt/5DRHROe8dFZdX6MskI9g2OYMr5/xRefu0NZQvby785qC8qyny8Z0gUZNufrcX540O490l9jf86IqKFdxVu+dTKs3MWw1nkqupVOP/kL60R2fUfRBmm8UveB4ioBCz7Se+WMzd3Frp+vqr+Enff/hl86K0s/nH7TnwXAJruRt+ffKiwzWtT+Jcn9uC/9z4j7Rjs9OnTePXVV/XFAbZh155rsVJa8voz3bjpvh9Z76TgALb/8wfxwJfW4nxtvc3Z7tga7Nm0EsAJHHBGr7yPb7vq5gfQ9O+Oo/tR4EbpPCcObseuPvGe1/vEwlePoNvwrte29j24trLwf2tfeQt/3vuL8Ovnrd+FPZtW4sRzR1B2RSHMltdx5Ds3OZ2hq25+AE0fK2yhXr91fBzcjgPl8nbqMYDCOQsK8WydY1qKd4t+bjVtEPr81nHgDpO0vzu+3evC5Sn3flh/i9hehH/9LXjgS6tw/Ds34Zd/5pV2hWOVSccPEwY9P8A+7omw57Xo8a/nfUtwGbHo253AgYPAtZvKDGklp7khLxmuUQ9/2OO4t9PzmEXfzivN/fKhKT0BOX8IUnnVzwv73KOf8khLLfxSXnPCYZdFpV7Q6ioAGD+A7W16TJji/gCwSb4ur/jQ402YyfWLY+jrX3/mAI7/u2utd2tF2L3KjLk+DpFPQ8Qp7PvCV36Ja+XjaXHq3D8CtnMYzu11fca4dtXDeh6VjufcE+XttPgxhtMQh4YyZQsOvyFvSutnE17n3dWv3IsfucJtIo4LOx0eBm6wwuafL7W0cKWDFUcw1N1qmA1xoaeBk0fMYXOXX3fd7yLK6LRh28A4VMLnUQfK78S37dW2g/uaTXFKRHPiHdnhkJ3C/+tz+K9/9Rl86N1v4BdP7rU6hQDw/NPOe4XPPD+F184rxx/+hy8X9fEZAHjHOwK+g6Nbfwse2HMtVo6Lj2ts347t3zmCaXmbymux5wbgYXv9wRM4/2NN7rn7F2/AA6uPiuOIG1j9LuwRFZN8fHysyf0FtfetRZN0ngPjwMpND+CBbzch8pTYd/sBnHjfWjQp+1ovuBc+qmCFceWmsO8XBO2/F7u+cwSvv28trnWOtw27Nq3E6890Y1fHvbhp+3Z0P/O61aDZvh3bt6sNDqvDpl6//hL+yk17cCMeduLpwPj5WPsl6YMt9buwZ1MZjnzHjgsrjrxZ16Wce/t2HBhfiWsN7xgEnt/DVTdvwMpXj+CA4abouS5snrLZjd7xA67psqtu2IM1xwrX1/3M6+HSPiAMe9ustHpd3PS3b1dv5mHOGyrtw5YRUVaV7Q4C1yoNIwDYhmv/3fFCXjamZVCeL+44YfJYqLiYaT6s34U9osFl7deNI1iLJvHOrzXN+gBOiIbQdmVq8flY+yU5Lbtx5NWVuNbvfWHRIH39me7CB4nW34IH9kgfKtq+3Tpn5bXau8eGuN9udQr1lASAsk89oMSHnU9deWiG1+9Kl+3dVqdQa0ACoo6Xy4xdH8vXFzqfakxxCnFf2LMGR+1jfecIXq+81pVvQm8Hn1kMAXUCRHzp9XD3M8DaLxnqnMprsce5J3bjyKvnY+0ND+CBPRuQt/c3hdMQh1aZCigHvuH/Ee79il2nve6EX+kUzDS8CmvqvrV/oe7sfuZ1J+/J90cAWHXDjcCjanhc+VKvL3zuh3vbtjv53T6/06kKXU4t7rAZyq+r7vTw5FM4/iqwcrWeiur7v1fdvAFwynKYOA8jRPoT0Zx5x/1jMHxZ9G78pbRR+fov4+5df4E/fN8b+MVwN771nX8prPw//+i8W/jNXTfjzv0v4g1cgPhVfyEdYa5dhVtuEI1t+UnZk/dil1JZnMAB+UbddwBHTJXb+6YxpDz1tKfraE+knrwXNx08AVRu0Donr+PIo4Xz7P3nI3gd5+P8kwekBvleHHjmdaByjdRhuhZr36fui75dVsfyU+6K3iXM/k/ei4efeR0rN1k3ZrvD83BQpbr+FmyoBE4clDoz4ljnf+xa9SY/fkCJJ+v6V2KN/UW38jLg1eN4Srqh7m3zfoJsXZf7KfPeNnHD/zMt/QLObzUu9dEi8WEZ4wct/NaFzFPQOoWup+rnA//arXTYfnTfTSHTvogwuIQ4b6i0D19GrMasmkbo22U9kFDsxS5tBMdKyzJ80C5vYfJ86OOEyGOh4kIIyIduVhxiXK4nfoR7H9Uf5nh7/Rk5LX+Ee586AbxvFT5l+kCD1IGRw2mnj5pHDQ+V7DhT4lZs5/y/4PyTQ8Y01/PQjK5//S3YUPk6jnxHTr8f4d6vWI1ql/dNY8gUbuk84fOpxCNOLVr4nrwXQ+PA+f/uU1r5Drud+OiM8YNSAXWCE19qPegq+44TOODkBztfnQ8883Bhf0M4t/3ZWpyv3V/2th3ACazEBt/OQUD4A80svGbyh2eAle/3+vDM+cC/SsdHuPqi6PuhELqcAuawhao7vfwIT/2r1n4BnPddh0R6/+i+m9QRRTvO3x/wcIWIlgwxTHcQjzgfjrkf93c+AueNwY//Jb7aXIMPveNlZP/XPbitU37n0G2q9wVMAXj3BRfpq3ydOXNGX+Qt7BcXx49qle2P8MuTAC7+oFoJOi+ZC34fHek7ihM4H6uqpSNolTye/CWmAbz+W2MTxbFt9UrA8PT3xG9fB94XwUpYU1Ks3+4q/NlP98LsDwA/uu9hHHl1JTa078KNH4N6Y/BwVfUqnG8YMfvR1DQgN7BhSAdx/WXlVhz9aGraeiquj7R6sK5LTzt43pyCzm/kl8Z+61zh8shT2IZdnp1CADAfX087o9BhMAk+b6i094sjpYyIJ8qGsmAdz6B+VyG/f2ktzsf5iIgICZvngTDH0eMRrjwWKi6EovOhiMMj/1zkfg5D/J/I43XpOh0rb8EDxg6MT2dDGyXwjDMRXp3pmKY8NJPrv6p6Fc43vvd1AnnTGwk+4bbOM4N86hmngn5f8MqnYbfz++iM6/rUOsHKx+7zAMDeY4aHCfrxTuTxOuDRQbJ5fS3VShPfzoF+vqLqNMP+ocKr2ub8Tua1WImVuFbUHddWWrMB9hh+Okg/fpj6otj7oSV8ObXpYQtVd8p1pvizr/lH9w25OvjmOkH6/VwRf6HTkYgWnegYvohnpJ+aGBl+Bi8CAD6DO770GXzo3a/hX/a2YWeI9wbLv3A5PgTgtZO/0Ff5evvtt/VF3lZGcD7m8Cth9kvmtpUR7b27+XAVPnixmAKjVcTyuwnWaJc0NcOZFhhuf3EU3PvoEaBypfoE1cfK958vpjipx1bfiwipb5czpcQ6jt+0InFd88xzSlbAurBWbroWK5Wn2GePUGkftoys/yDKDI0Uo/W34IE9e7BnE5RpWIXxmpB5PuxxQggVFzO1MoLzxXRQ9XrMUzNn7nys3eQeyQEK6RMsfJyFNovrX/n+890P9GajmHwK+MfpvJjdR2dWvj9UaZ0dEYd2J6rw534/bCmypnFa0ythv6LynSN4HSecekR9AOBug4SqL4q6Hwqhy6lND1vIurNvl6u9UbjmvTgqj7jao6NSZ9XqXDdh1b/KU4md1UR0FvB/se/PahC7CMDLv8TLK/4CX275svP3F39ibXLdnffh//nbO/Dlli/jlv96H77+Z5cBb/wCT+/fpx/N15tvvqkv8iaeBs6b+T4+UHgiKr8jqfwFTS0pZn9r6i1efR3nf+xG1zt6Jid+K793qP/p0zJDeNJ6n9F5D8rwrqBFXNe88nn66rsuvBMH7esMcdPXzWWDtxjivKHSfs7LiDQ93DPvh8nzRRwnhFBxMVMn8so7M/qfcRRqRl7Hke8Y3qmD92ifW/g4CyZG+hbs+v2F7wzKfOJ0PviN0Idw4rdzW1qNRF5y3o3T/86Sh2TbVq8sjByvjOB814iYt9D1Rej7oRC6nHoJU3cGk0eXXaOj9btwbaVVnr3LrseIPhEtGf4dw8qLcAEAXBRDTW2N8veJj1ibvPzyG3j3yo9Zy/6wHPjtixh5+Fv4Hz/VjhXgjTfMP4Nh9OQvMa1P55xLfsevX4OVpilcM3Dit+5pkcUIu/9VN9+Ite87gaGv3GR9EOOG4IaMNd3F412lWbHfAzJMdxO8r8t69889daU4nh+WCVhXnB/h3q/4dQ5N+Utcnz6CPaeCzxsq7cOWEY9pTrCnIQWwpgwWeOcNf+GPo+axUHExU35xOOf2YpfpgyuioWZKH33Kvmec1a8xjvCZjrlt9crCg49ZXL9x+iMKYXbxDLcYWZlRPvWK07k321kMfvnYShPzNNPi+OSls4Y1smY/LLiqvMw4vdiLXzybBd8PLT5xG/LVGs/yW4y+Azjy6vlYVb3N5z18mfWgVeeaVuxVbolowfl3DL9zG+rr641/t3Vbm4x03oYvfr6w/Is3/Rfc/32/txDd3nzzTbz11lv6Yh97scv0hbv1t2CX7wvuYXkf33qnJNx0zCD2nH3XVwTrdwV/JSzs/utvwY0fO995GX5vm9WQuVG6LuPNTNwAXF9VnEEcX3XzLvVpqNwgM7DfidQ7VNvam6yPXxT55Nl6T9N+Iuv3YRm/dTNh3/Td1wLANXprXZ/hnas5FnjeUGkftoyID0HoX6ar36V9ll080ZYbLiLvKlsF5vmwxwmZx0LFxUxZH6TSvx4JXIVb2uejo1H4UEWhIyM+9lJ5rfa15cI7svbHJMxxb33l2KjyWuW6rrr5AVyrvIM2i+s3posYLVY2tK3EtfqXcjfJ71yFzac6U5zOtTmYxdC3S3wlVx2ZstJE+yDJjHnEIYBt7XY6iffPZhJXs3iQEJ784RnrflDUiLIxX6r1RfD90NQJDF9OvZjLb/j2hsV6B/v8j1kforI/OgPYMwDU9NnWrk8Lt9/hlusGv3IrWZD0JyL/juECOXXqlL4omJinj481FebLf2kV8nMwkgd4Hd/6rLr3NIli7cUu+/Ps8rz/T+VDjlgF7C99FVP/OqrSGHNuZnukDpT1iWjrU+PSsb8UwdGir79MfY9I++06N/O5rc9sh5vy4slvSpbfuhkTowriYwaFm+HrOPKdIUSkeLm28gQOzHZ6YqAw5zXHvyvtw5aRvl3O5+ed7VYftd7lkVhfBJXOeQPwsOuLlwF5PvRxzNfozmPm7VxxMUM/uu8m55PxzrH3NCFybC4a6gZP3oub7I6MXdafvBc32Z+9d8IgfnJA/wKiPULmbLcGR8Xn9XUnDnYj/6nCdVm/Jar+dMrMr18ekbf3uxF41PqpAZfxA+j+7QYp/dYC+vWFzKcupjidS34fnSnC3rbCz1MU0mR6buscU52wZw82/HZm70aqCveuPYYPwcyNvdjllH+r7Ad1uFRh6oug+2Ghg71nz55CRzB0OfUSXHeG8aPR41Zdqs/cEV+klsvPmmPudwydL+E6Zd6n3CoWIv2JaFkikSjic6Bz76233sLJk3P28gqRL+fHkA03Ur91NA/qd4kPxMyys0/ksH4oe9W/aj/oPZtyvaj51H09RERE82XRRwxfe+01fRHR/DB8RS3UOpoXyvtmRHNBvKtU1PS/AIuaT8Vvz83tLAYiIiKzRR0x/P3vf8+OIdE57qqbH8C1U+oPH1918wNiauEcTmOjErINu779QfVH0bENu/Zci5Xab4eGHTFkPiUiolK3aB3D06dP49VXAyeVE9HZrn6X4Xf/TizS1Dw6N1hTLPXfxzP92HzYjiHzKRERlbpF6RieOnUKv/vd7/TFREREREREtAgW/B3D1157jZ1CIiIiIiKiJWTBOoanT5/GyZMn8fvf/15fRURERERERItoXjuGb7zxBl5//XWcPHkSr776apE/Yk9EREREREQLYVlVVdWcv2P49ttvsxNIRERERER0lli2evXqOe8YEhERERER0dljXqeSEhERERER0dLHjiEREREREVGJY8eQiIiIiIioxLFjSEREREREVOKWJRIJfnyGiIiIiIiohHHEkIiIiIiIqMSxY0hERERERFTi2DEkIiIiIiIqcewYEhERERERlTh2DImIiIiIiEocO4ZEREREREQlbtk1f7aJP1dBRERERERUwjhiSEREREREVOKWXVJ+KUcMiYiIiIiIShhHDImIiIiIiEocO4ZEREREREQljh1DIiIiIiKiEseOIRERERERUYljx5CIiIiIiKjEsWNIRERERERU4tgxJCIiIiIiKnHsGBIREREREZU4dgyJiIiIiIhKHDuGREREREREJY4dQyIiIiIiohLHjiEREREREVGJY8eQiIiIiIioxLFjSERERERERjfcsE1f5Klm/XrUrF+vL6azxLJLyi89oy9cCGfefhunT5/CG2/8G9584028/fZbOHNmUYJCi2jZsmV4xzveiXe9+11497v/AMuXn4dl7+DzCiIiIqKlYDo3ib5H9+IrNyf1VYqa9evxve8O4LOfq8PIk0/qq4u2YsUK1N+wDd+66259Fc2TBW+Bv/32W/jdq6/gN7+ewu9efQWnT53CW2+9yU5hiTpz5gzeeutNnD51SskXb7/9lr4pERERES0ge7Sw/oZt+Ortt+mrHStWrMD3vjsAALj9tlZ9dVFWrFiBr95+G356+Gls2/YX+mqaRwvaMTz1+9dx8je/xqnfv66vInIwnxAREREtLdu2/YXnNNG/uy/l/HtF5QplHaTO3vcGBzCdm8RPDj+Nnxx+Wulsyh1CuXNpb2v/rVhhHf8G0Vm1j2kf99v3pTzDSf4WbCrpa797Fb9//TV9MZGv95x/AS547/v0xUREREQ0z759Xwr10juG4xMT+Ozn6jAxMeEs+97gAGpq1I6YPJ10xYoV+Onhp5X1svGJCfzxuk/gq7ffFmq08ePrPoGamvVKZ1Q3PjGBr3wlOSdTWkvJgnQM2Smk2WDnkIiIiGjhTecm9UVK51DvONrkjqHccex7dC/27v1HAEBNzXqnI2gvt0cb5U7fX2nvNj766F589fbbsG3bX2Dv3n/E+MQEJsYnsKJyBdZ/6lNOeEZGnsRnt9Qp+5K/ee8Ynvr96/jdq6/oi4mK8t73XYjz3nO+vpiIiIiI5sENN2xTOmgjI086HTx7RM5+r1BfL3fK7M6lvY/s299OoXLFCmfU0CbvIy/3Yk8vlUcSw+5LBfPaMXz77bdw8je/5odlaNaWLVuGiz9wCd7xjnfqq4iIiIhojskdw75H9+Kuuzvwve8OoFJ0wmR/dXMSE+MTTkfR7pTpnUs/8ihjmI7hV2+/Des/9SnXNFZZWbRCX0Q+5vXjM6+/9ppvp3D5eechcvH78YGyKC4pv9T5+0BZFJGL34/l552n70Il6syZM3j9NU5HJiIiIloI6z/1KeffTz71FCbEFFJd36N78eijezEuvXdYuWIFatavx8R4YRnESKLXn7x/kO8NDuD221qVEczxiYmij0OqeRsxPPP22/jNr6f0xY4L3vs+lH3ojxD/+F+i4rINeOe7C53At944hckXh5D56f/A9C9+htd+96qyr9uD+PmZHVijLDuKh5Z9FF9UlgG45RBO7gT++8Ub0aGvW5Jacejk3fj4z27DxVfrIfZbJ7O2u/pXD2HZGleMnFU+cEk5f+eQiIiIaJ7J7xd+fN0nnA/O1Kxfr3x59NFH9zr/lt8n/Ozn6jA+MeF8eGZ8YgJ33d2hbA8xDbSmZr2y/CeHn3ZGJvUP2UxMTChh0383UQ4DRwyLM28t7NOnT+mLHMvPOw9lH/ojfHrLI/hwbJPTKXynCM07330ePhzbhE9veQRlH/qjkCOHL+OJW5dh2TL7T3QKbzmEkycPIfgbR0vbRZ+5Gz//n+qyB4/ejasvUpeZdWDjxcvmtVPY+sRJnHxi/mPZL18RERER0ezZv19ok79COvLkk3hUjBLqnbwnn3rK+fftt7ViQnQGIUYR/+6+FH5y+Gl8b3DA+ZmJnx5+WhmdBKCMNH772yllW4iRR9u2bX/h/HTFV2+/zfhzGRTOvHUM33jj3/RFjvPecz7iH/9LZZQQAL7SGFH+/853n4f4x/+SHx0BcPTYUazZ/nM8aC/4nz/HjtVHcfSYut25zi9fEREREdHc6tM6f37kDpvdQbPfT7RVihFC+d3Al156yfk3tC+R2ttDOv6j/2h92RQA6sV7jLff1oqRkSdd01cpvHnrGL75xpv6Ise73vVuVFy2QVn2h6v+AADwR2uWK8srLtuAd73r3cqysFqfOIkz91yNiy66GnefOaOMaG0+egZnzpzBmTMnceiWwj4POsvP4Iw00vjg0TP4+dGf44xznFYcOilte1R02W45hJNnpA4cHsTP7f/fcggnT/4cP3f2+zkexIP4ueF8Lk99FLf9oAI7jj5oHWd7BZ649aNQf51FDdPJoz93wiKP6LU+cVKsc59Xvk7lugzHt9ZZy+7+zEW46DN348yZk9L2Znv27MGuXbv0xfjCF75gXC7zy1dERERENHsT4xP4q5uT+Kubk8ooYBj2fnZncGJiAt+66258fN0nnHV2Z/Guuzvw8XWfwLfuuls5xsTEhLO9ve1nP1fnfOn00Uf3utbfdXeHNZr5j//onIeKM28dw7fffktf5Fi2bJlrtHDLxgvw3vOXYc3l78b7I4VgvfPd52HZsmXKtmYX4ep71M5ex9UXY9mtT+Dll5/AbcuWFd7Du+hqVDwlppzumcTVO62O0YNHz6Bu8rbCdNTvVuBuqWO05tJJcRzg0Mm7UfHdwtTV2ybrwk2lvGgNIPa77QcV2HGmDpNiCuxDv7oa/9XnGB1X/3c8cekOnLnnauAH/x0b75XXFt43tMM0gDXwmml60WpgQGynn9e+zmXLbsMTl+4QU1it47uvGdh48TLc9oOX8fIPbsOyZRfLpzFqb2/H//1//9/4whe+4Cz7kz/5E7S1tQV2DP3yFRERERHNnjxd9Ia/sKZqhnH7ba2YGJ8wTjOdmCgs/8rNSXzrrrvxrbvuVqapyuzt7W3l9whvuGEb6m/YhsoVK5RjQXQaTeenYPPWMTzj8zVS3X/+3Pvwwi/ewFPPnsZTz55CrNIaPSyO/I7hxVqnSfPyE3joP4t//+cncfSiCqzBg1i/2nqXzxkR274GWL3eGf07+l3xwZpbNuPjFwFrthdGz+7+zEW46I82e4/42aRzd7w4Cbz8U+wXYT06+bKyqVsHNl78EI4ee8j9sZlbNuPjFx3FgLT8i2sewlFlo4KXf/CQ82GeLz51FBdVFD7d41wnOrD/Zy+j4rLW2V2z5sUXX8RnPvMZtLW14bLLLsOf/MmfYM+ePbj88sv1TV2KyVdERERENDv2D9HXrPf+WQhIH33x+/mIubL+U5/C7be14vbbWp3fMKTZm7eOYbhRPsvjT/0er//eavD/wbuWIf+7xRoV0j9gs6zwERuXo3hI2W4Zlpm+dHrL5fD9HtKvXnDv4+uL+Og8fkTGX8hrDsHuHP7gBz/Anj17sH37dn0To2LyFRERERHNnD1SWLliBb797ZRnJ+zb96WcDqH+IRnYXx5dv975QMy370tZ+xg6mytWrHBtd8MN24zb6uRzfPX22/TVFGDeOoZ+P0R+5swZvPVG4euS4796EydfeRtVsT9A+SXvxLEX3nDWvfXGqQUaJfoinjx2Ea7+y8LU0dYnTprf+7t3P3768hrUSdMvHzwq3rm79wVMogKXi/cWH/zLqz2nc84pY5j0n/CYBePx9XcQi/Piiy/i8ssvx+WXX47/83/+j77ayC9fEREREdHckTt5lStWOD9gL7Onddr0r4J+9fbb8NPDT+N737V+e/D221pRL/b53netr5M6+65YgZ8eftq13d/dl3Jtq1shOq/2vvw9w+LNW8fwXe9+l77I8eabb2DyxSFl2Q9Gfw8A+PGR08ryyReH8OabhY6iN/kdwzPiwy4A7t2IgV+5Pz5j8sU1y/AQdhSmSv7RT3GbcUSsAxsvvg0//aPCtNMdsH8j8Iv46J5JJyw7cNRzOufccoepDkcRNDk1PPfxC9cMdFw9gMmQH5+ZDb98RURERERzR58WWrliBb59X6qwfv16/J30f3sbeXTvwx/+MCB+x7Dv0b3oe3Sv8vXSmpr1zsjk7bcV2ur2B2XsD8zI+5j83X0p57cP+/iO4YzM2w/cn/r96/jdq6/oiwHxO4YVKz+BT295RPkIzbJlgDw4+NYbp/DDwc9j8sTTOH2Kv19HwHvfdyF/voSIiIhoAcg/JC+76+4O9D261/ldQYiOn90xu+vuDudjMDfcsM3YSbtBjARC/AzFZ7fUKT9Or/9wvezb96WcUcqPr/sE/k6aymofi4o3byOGy5d7/yj96VOnMP2Ln+GHg5/HS9mDzrRSu1P41hun8FL2IH44+HlM/+Jn7BSSwy9fEREREdHckL9E2vfoXuXnH26/rVWZVjoy8iS+8pXCenkK6qOP7lXeG/ze4AB+cvhpZaTRnn4q/z7h975r/aj9Tw4/jZ8cftrzy6i339bKTuEcmbeO4bJ3vMN3ZOe1372KyRNP48cHvoLHHqzGP3Wtdf4ee7AaPz7wFUyeeBqv/e5VfVcqUee953wse8e8ZVkiIiIiEuTO3ZNPPYVHDT9UD6kzJr/TJ79naL9jaL/7V1Oz3tlXNzLyJP7q5qQybbRyxQpUrlhhvWdoeMfwpZdecv69olKdxkrFmbeppBC/OXfyN79eoI/H0Lls2bJluPgDl/DjM0REREQL4CeHn3Y6cB9f9wnn9wa/evttSqfxr25OOutMU0Hl6ah33d2BkZEnMT4xgYmJCWfd+MQE/njdJ5ztID4mA+nnMipXrMD4xAS+8pUktm37C2Uqaf0N25z3E8cnJvDZz9V5/j4ieZvX4Zd3vOOduOC979MXExXtgve+j51CIiIiogUij+rJnaxv3XU3PrulzvmT1z351FPOv2tq1is/bzE+MYGRkSed9wZNI3s/Ofy08/MU9vknxicwMW6dw+4c6r51193oE+8xen09lYLNa8cQYvrfe86/QF9MFNp7zr/Ad1oyEREREc0d/f3CsOQpoOs/9SlMiM4gpA7bdG4SPz38tOuLpzb55ynsn7mQ3yH0Ggm0RyNh+HoqhfPO8y947y594Vz7gz9YjjNnzuDNN8L87ARRwXvOv4CjzkREREQLaPO///fAGWuk8H9850HPzpjJFX/4h5iYmMD4xAT+94EDGHnyKbzyyivAGQDLgPwrr2D//z6A//o3O1Gzfj0mJibw3HP/gv994ABeeeUV5PN5vJJ/xdk2/8oreO65f8Hef/xH5wM4VVVXOOGz93vllVcw8uRTzvkjkQgmJl4qKuylbl7fMdSd+v3reO13r/KdQwq0bNkyXPDe93GkkIiIiIhoASxoxxDigzSvv/YaTv3+dX0VESCmH59/wQV8p5CIiIiIaIEseMfQdubtt3H69Cm88ca/4c033sTbb7/FkcQStGzZMrzjHe/Eu979Lrz73X+A5cvP409SEBEREREtsEXrGBIREREREdHSwKEZIiIiIiKiEseOIRERERERUYljx5CIiIiIiKjEsWNIRERERERU4tgxJCIiIiIiKnHsGBIREREREZU4dgyJiIiIiIhKHDuGREREREREJY4dQyIiIiIiohLHjiEREREREVGJY8eQiIiIiIioxLFjSEREREREVOLYMSQiIiIiIipx7BgSERERERGVuGWRiz9wRl9IREREREREpWPZRe9nx5CIiIiIiKiULbvo/ZewY0hERERERFTCll38AXYMiYiIiIiIStmyiz9Qxo4hERERERFRCVv2/kvYMSQiIiIiIiply95/STk7hkRERERERCWMv2NIRERERERU4pZ9oCzKEUMiIiIiIqISxhFDIiIiIiKiEseOIRERERERUYljx5CIiIiIiKjELbuk/FK+Y0hERERERFTCOGJIRERERERU4tgxJCIiIiIiKnHsGBIREREREZU4dgyJiIiIiIhKHDuGREREREREJY4dQyIiIiIiohLHjiEREREREVGJY8eQiIiIiIioxLFjSEREREREVOLYMSQiIiIiIipx7BgSERERERGVOHYMiYiIiIiIShw7hkRERERERCWOHUMiIiIiIqISx44hERERERFRiWPHkIiIiIiIqMSxY0hERERERFTi2DEkIiIiIiIqcewYEhERERERlbhzo2PY1I/juSGk9OVEREREREQUaGE6hqkhTOcmlb/jA836VkRERERERLQIFqZjCADIoidagbJoBcqivcgl2jDCIT4iIiIiIqJFN3cdQ3tUMN2hrzFoxWgWiK6QRg2b+nFcGlEcGXBPD20ZOCaNOh7DYJO0UpJKi2Ow40lERERERBRobjqGTf04Xl+O4Z0VKEu06msNOlAdA3ITXc7/R3YnkOuzRxTbkatKICLt0TJwDO1VY2izRx37plC7W+8cNmMwM4nG8jTaohWoScrriIiIiIiIyGT2HcOmfhzfnUCubzW2dOsrZTE0OqN9DYjn0+gRHbeWgesQz/ZKHbkubOlII+/s24HGBDDcsRWd9qLkBpRFU3jc2SaGxlwbaqd6URaXtiMiIiIiIiJfs+wYFkb6gkfn5HcMK9A2VoV2MVU0Ho0gn8uqm3ePI2f/u6kSUUxh3NXx7EKntsx1HCIiIiIiIvI1y45hK2p2phGtL/59vs66fcigHJVNQCaXRyQaUzdoqkTU/nf3OHJiW29Z9OxMA4k2fvGUiIiIiIioCLPsGALo3opVO9OI1uvv+/lrGbgO8fwYHu8WncRYg9S5bMZgq/yOYSt60kBtaz9a7EXiYzdKh1SEhZ1DIiIiIiKi8GbfMYTokPVNoXa331dJ5XcMJ9GemEKP8y5gYeTRWt+G6Jj8jiHQWbdaTD8V24iP3bimsHZvxSrxcxjT/NF7IiIiIiKiQMsuKb/0jL6QiIiIiIiISsfcjBgSERERERHRWYsdQyIiIiIiohLHjiEREREREVGJY8eQiIiIiIioxLFjSEREREREVOLYMSQiIiIiIipx7BgSERERERGVOHYMiYiIiIiIShw7hkRERERERCWOHUMiIiIiIqISx44hERERERFRiWPHkIiIiIiIqMSxY0hERERERFTi2DEkIiIiIiIqcewYUmlp6sfx3CSmnb9jGGzSNwKADowo201iJKVvQ0RERER0bmDHkIiIiIiIqMTNYcfQPcIS9PdS5lmM/NNDuLP+Cv1gREREREREtEDmsGNYvOWRcsQ/uRm3pL6P4z98ADsu17cgIiIiIiKi+baoHUNZZPUWfGN/P1rYOQyWGtJGX4fA19/OZc0YzKij7ccHmvWNiIiIiIhmbMl0DAEA70/gzr/vQK2+nIiIiIiIiObN/HYMs70oi1YY/v4U9X99Hx47ltf3wPLVdfgvt+pLiYiIiIiIaL7Mb8fQ03N4/MFvYPunN6EtrXcOl2PtNV/TlhEREREREdF8WaSOoW0cnbftQ0Zburw8xumkREREREREC2SRO4YAXsgipw8aXnghqrRFREREREREND8Wv2N4eQzRiLbs9GnktEVmV6DxzoewP/0sjo9rv5H4/x3Dv/ywH113NhTZyRTHPHwML8nH/MWLeOnoj7F/z9dQV+SXUytrmpEa+D4OH30RL/3CcMzer6OlplLfzdEycEz9Cml9TNsihkblK6XiL9OPFm1Ls0p845C+/xBSAddZ+50fK/s8sVvfQlP/CP5FC+NL/3SzvpXkCuzo6MfIz4654u34z4Yw2NGMWhHGVHqm1z4PLk+gpaMfT+h5SOTLw//0CL5xUwLeKa7/JmgbarUyEkm0qdcr/kb4eVoiIiIimoFF7hhWouXu6xDXF09lMaAvU1Sibnc/Do9/H6mbN6M6Vo7IcnWL5RdEUL46gbqbO/BEZghdX7xC3cCg8nNfxxMZccwVESyXj/mu5Vj+/kpUb74ZXT/8MQZ3bpRWerhyO7p+eAw/GWxDY+IKrHz/cix/l7TePubG7WgfHMLhgbaiO51zYxydP3pOWxbD2i96d12ABP7zH6nrq2ralP/r6jZXoVxZchpH/s99yhLbNTut9P3G5xOIfzDiirfIB2Oo/XwbBsOmxYK4AjvuH8LxdD/aP59AlZ6HRL5c+cmN2LGzH08e7kf75/zimIiIiIhoYSxSx/AKXPPFr2HPDw+iPeEaLsTYyB5tmWwjvnHoILqaElipNbo9RWKo+9vHMHL/57xHaTZ1oO++7ajSg2OyvBK1Nz2AwZs8j4bKmx7Bv/yvr6NudZgDAsByrEw0o+uf+nHLlfq6+Tf+4CjG3lSXVV21XV0g+/R2VK3Qlq1OoF1bVPA5/MePqd1CvDaG79+jLgIq0fLws/j7m0Km7/JK1N70EP6jd1IsjMub0fezx/CNrTFE5E6sj+UrEmi5/39h8NbghxZERERERPNpfjuGsQbXVDfr7/vo+9ubcb2p0/TCPnx957i+VKhEy8AD2HGFYb9AyxHfei/+frepB1GJ9jvqEA/TEXFE8IktzajWF0N0Mu/YiPKijieUJ3DnI4+gUV8+317owtPHtGU+Hb3az1+BlfrCd12BWq/ppJ++HjGtX3j6ucdxr7oI16QewZ2bylFc1C13jcwtrI1IPfw1XPPBGQTiXeWovaMHffX6CiIiIiKihTO/HcNi/fYwOnfehMf15UJtxyO40zXCCOSPHcJDX9+BLVdZv5P4x1t24OuPpJHRP2qD5aj6/AO40zVdcztqV2uN+nwWA1//PK6OVqAs+klsaZV/d/E0Tuy/E/9+450YVfcC0IzB+xrcnczXxjHafx++duOfqr/l+MwUTmubonwjbvlOYXpkZ91q9Xcg+7LK5kAWPa7fiqxAWXwrOrUtvRmmk74rhuo71EUW9zRSm9d0UndH0jCNdNND+EZ9zN0pPD2Fsf2GuDP8DuZiaPnHB9AY00L95mmc+PEg7v1rOw9V4Oob78S9+5/DlDvBcU3rQ7jG+X8rapS0bMewdqn5dLs7vaMVqEmq2xERERERhbFkOob5Z/agefN/QNtBfY1w+dfwXz6ndRpOj+OxOz6JVZ/+PL52334Mv2AtHh/Zj3tbt6Im/nk89JzWor5gHbbckVCX4UL1HTYAJw5+Hs33HcIYAGAcw49Yv7vY/Pf7MfDX12Pd9j1ineqa72xH7fvVZfmfdKH+//okNn/5G3jooN35Er/l+GdXYv3uQ67OwsqNSdyiLpp37umky7H204bflDRNI7Vdvg536stMHUnXNNJKfOOOza5RyNMv7MfXPn0lrt5uiLtPr8bV30xjUbuHmx7Cf/609rDit4fRuf0yrPvzm/D1B+08BIwd3IOvb/9T/OGn2/H4L7UEX7ERt96qLiIiIiIiWiiL2zH87ThG99+H5JZPYtWf3YkB0bEzqbx5M6ovkJfkMfzNrdj+917TTgHgEL62MeUabVm5bnvg7ySuXHeH4UMw4xi4YweaH9Q/1GJrRsuntQ7QC4No3tzuOQoKAOMPfB7Ng9oo4AVV+FPjaN08MkwnXb66xtVBdY/+SS6oQkIP96frXR1J1zTST9+Ba/RX7fJpfL1+Bx7yyRdj92zF9key7lHXBdLSVKPGxZvjGLjZ5wEHrHiuTw4go3fCrzF0womIiIiIFsD8dgyzvdYUt6vaMfxbfSWAC04j0/cN9Iz4de4st/6R9hMNEyO494Hg/YAu3PtDbbsVMdQpC9IYn1IWAJdvQVfa+mmB1J3bcU2YD8J8cSPWKoNHpzH6Xe+psbLh5H6MviYvWY74H/t8/GVeGKaTXhBDbZO84HNouUrt/J6YkCPPPcpYW78ucBpp5VZ9G2CsvxWdPp1C23BrO74/oS9dCNtxzUfV0cLTz34XzX6dQtsPW7HvWbU7u/zyP8YOZQkRERER0cKY346h7YUubLm5Fxl9WGd5DI339aPFNTKna0ZlhbZoxWYMuj5qY/4b/HP9fbgIolvl/38XnabO6busnxZovPnr6Ds4iZeODmGwY7v37yJeEYXaTViO6lvd4TH/3ayNiAKRD+jhnn/u6aQRrN3UXPjv1jqslT8i8+Zz2PfNMShdw9U10nTSStRdETSNFLi+Qn93dByZBw1pYnQI//NnYbedS1cgqk0bXv7HNxvS1vx3yx9r7yVeeJH3V3OJiIiIiObRwnQMAeBgK+pN74O9P4E7H2wLaBBHcZHWaZqd5ViuNeiHm+9EzzG956pa/v4Yaj//dTwx/mPsMfwuYt0H9M7NLC2/UF8y/wzTSSPxhPOV1Lo/136L8Fgabf1deFoesZOnk15+M6q1wV7XNFIA8agWd/lxHAkxWmgbfsU/7ebF1igu0pfNxruWaw8WiIiIiIgWxsJ1DAGMP7AVbQf1OZvA8iu2oy/l9yPl7o/DzL1DSH56BzrT48Hvqy2vxPV/+/+6fsfwosX9zYQ5Mo6vjWjTScurcP1WGH+LcGykHUBaG7ErTCetvLkacWkNkMfT+8w/an/WiSx3f0GViIiIiOgstKAdQwDoufFW9GT1rtdyxOv9fjA+i5w21Dh1sMX1qf7wf6uxpVs9nuUQ2uo+iQ9vasW9/WlkfpnHae1H3wsiqG19QPkwy0O/1Dq9bz6HTte5i/hLtKrHWyg709p00nKs/fPPGaeRDu+0/jn8yHM4Ia2yPlpTiZYqbbgwP4bHDXGf0RM4Uom1gVOMC2ovXIQu2oPjyGmLxroN6Rj6bwP4axNEREREtBgWvGMIHELyxm8YPkYTQe0djyC1SV8OAF0Yn1SXlMeuCfyy6Iw924uvf3krav5oNT78Ies3DAfSWeT1TqL+5dDncupU2XfFUH1W/gRBO4a16aTla65Hi2kaqf3vH+7BmDad9E/vaMYnVkvLAOTHDhl/W/GxSX2ScSXiX/R6UKDb6P45jAXxHHJaPo5/7GZ1ARERERHRWWAROoYz+xjNwFHt4yKXX4f/ckfIzsCmDuz/5wewI/DLohtR9zn9mNZvGDbXbcDVX9ffkVyOiPxRnAfTyGhfFq1ukH+43E8lWh7+PgZ3fy7gfUsT/WM6s9emTyddUYNbP2maRmpL438e1qaTfmELqpQpwHkcOdglL3CM9x9WRhwBoGprhzEv6Go72vCnXr+rOK/2YFgb/V7+yQbsMT7ccKu86RE8MdBm+FmUYJGLovoiIiIiIqIZW5yOIfw/RnPr3c2uztHwN/djTGmDL0f1Tf8Lfbe6PwIjq/xcG/bf14Dqj23BN/7XjzG40/wuY+Xn2jD4s4fQdd8j6HJ1Di3j+6fwsr5QcR96RrTppCs2o+vQ1wMa/1dgx55+3LnpCtQ2deKJHz6AHb7b68oR25jQF86OazppBBH5yyjSNFLbcJ/auVv+fv2DMuZppACAH34Tj+s/DxlJ4M6+h3zjourWfuz5fGzR3vW7ty+tfJEVqMT1938f3/DIQ7aqLz6EwTs2oirRjK5/HkLXF/y3d7l8nev3JYmIiIiIZmrxOobiYzTN/+T+mYFI4mvuj9G80I6v/7O27fJyXHPH93E83Y/UzZ+TfmvwClzzxa+h659+jCe7mlFtf4F0eSVqb3oE/7KnoXAMVGLH/UN44v5m1H5wObA8hrr7h3D4nx7AnV/cKH6aohK1n/86Bgevc/0eX14LUs/OPu33CIHIFdvR9cNn8cSer2HHnyecTm9lzWbc8rePYCTzfXxjc6XTuYms3oJvHPo+vvFJ6SCykXGtMwKs3PwABv9W+r3FKzdix03bZzHd1j2dVCFPI7X9sA+Hfb4k6jWN1DKOr31zv2vUcPnlm/ENO+422Q8BrPTd88NjeOKOxOJ+ybPvTvT8RBv6jlyBHV1D+Jd/fgh3fnEzau2O7eUJXH/z19H3w2N44m83Y6WT4DHUfXMIT/ztOukgsi51mi4AXLAON/3wAdzi5KdK1P75zdhRr21HRERERBTCskvKLz2jL5yZDozkGtQvUGZ7Q3xAZSNS6YfQGNPHfPIY3r0JW5Qfsffatgi/TaNt81bph9Mr0TJwEO2JGXQvpg4hWfV59GiLK2/qxxM7Z9NhOY1M3w7UJA/pK4QG9I114Bp1ZqdbPo22+FafzliA3d/HdJNpRPY0Ru+5DJu/qS8Hart+jEHjaFkewzu9PvpTcE1qCH9fPwcjgF7X3tSP47vltPEKlzs/Z/oqUGP6OszlzRjc34Za7SdQinE624svJFrxuL5CqPzb7+Mnhp9I0XmGkYiIiIjIx6KOGFqK+RjNISRvvAUDAb836GnqMDpvljuFADCOzttSePyXxR4zj+GuO12dQoiR0M99M40p/WM1oZzGiX9qR71npxAAenFHl2Ea7lxzTScVXhtD2tAphGE6qcNvGqnk8eTn8fWDU8E/GaI4jdPF7TC3XujClhu+gWF9GDek0y/sR9uN3p1CABj/628YvuZLRERERDQ3lkDHMOBjNF/XPt7ywnfR/Onr8bV+w1dCPZ3GiXQXmv/8P6DtoL7OOn/9llvC/YYhAJyewuPf/I/aaKZq7J6t+Pdf7sLwRKgjWvJZDPz19Vj3pT3wPrJl/IGtaH7wuSLiYCbM00lPHxvB1/WFth9+E+msvjBoGqlsHJ03XokvPJDGiTBRd3ocww/swP8bFGHz7dn7sOXPW6w8FDZN3swj038n/v1VO/CQzxRci/UA5fFi8hMRERERUUhLo2MIn4/RrNiMroGbxbt+tufw0Jc3YFViK9oePITRibx7xOj0aeR/mcVw/31IbroM6+raMeDX+H7hu2ir+yTWb2nHQ4cO48RvT6sN/DdP4/RvxzG6/z40f/pK1N+jfynFbfy77diy7jJcnbR+7mIqrx0TwOnX8jjx40N4aPdW/HF8A5ofDD6u7fG//lOs2nwnesSxFafzmDru/p29Yrm+TorTOPLDb2jLZOO457DeM/T+GqmXx3dvxbrKP8XX7PTV0iL/yyyGH2nHlk9/Elt2+42uLiCRhz68WfodTFO+nDiMxx9sx5bEatR8eQ/GtE08vdCF+nUb0HzPfmOcnP7tODKL3UEmIiIiorPSHL5jSERERERERGejpTNiSERERERERIuCHUMiIiIiIqISx44hERERERFRiWPHkIiIiIiIqMSxY0hERERERFTi2DEkIiIiIiIqcewYEhERERERlTh2DImIiIiIiEocO4ZEREREREQljh1DIiIiIiKiEseOIRERERERUYljx5CIiOZfUz+O545hsElfQWeHDozkJjGS0pcTzQDrA6IliR3DIqTSkzg+0KwvDqVl4Bim0x364rNYB0ZYqc+v1BCmc5OYZjwvqJmX82YMZiatNDtLy/rMrz2ENVFE9GVnk6Z+HM8Nwa9fNK/x52ku62KfYzVVIqovI5oppT5Q891Sai8tTpmm4qj5h2k2O7PvGKaGfBuuqfQkpjP9aNFXzKGWgWOY9rxhi8baEqlkiMJpxuDmGDJ9FSiLrsaWbn09LbaWgWNq3ZZqQC3SaItWoCzRqm48n8QDhCU/kpPcwLx8NuveilXRCtQk9RVEM8D6gM4m4j5r6nCm0pM+fZCzz+w7hgCACGp3uyOlZeAYGmPawiCpoRl24mJoNHRAU+k21J7Vj6kXT8vAMWMhoIWSR+6ovoyWtKlxdOrL5lnLinJ9UQnqwMg5dGMmCof5fjGdNW2kGberS0HIMpTcgLK+LCKJpDoQlhpCYyyLnugGnCvPzOaoY5hFJhtDo5zxmvpxayKCTDYrbwg4I3xiypWTIGJkrz4GxBrUnnlTP447209iZMAwpSefRQYJ3CoX0tQQGmN5ZLJ5eUvnXQn7eMcH+tXpM84UPp/RTjtMHuuVa8z0I65v4AqDXrlI09JcU9PUdeaRAmtofSQthcNVMXiFwVrenoggkmjzOUeBfb36MdzHFuQ41kacrWkA/f77y8LkD5lybv3a/OJdTFcYMIfdNYKEQtiM8ecVB6khTOfaUBuJoHa3Hj9W+PT40EfNzWXMkkpr4UkNSeFWr1E/jz2dbtDn+O6018qXkl7SvqblqSHDNvL5rHM51+MVp3CH3d7Heton/lxlJAx33aUcR78GwAl3qPLS1I/jSr6yzmeHv/PgGPLZXtQk7SlY/SIPh8sPbhulsOjb6uEspK2eB+Xtjw80a2k3k/pJy0eCdd4GxBFDY65QJyv1iBN/QeXbXVZcZUDJY/r1avzyo8TVwNTyeSo9iePpIXf58BCY3r51YIFar4u6QZnuNySlkfv6lLKV6cegZ3zqYZy78uFVJmTB4VTPr+dVNb71eJht2M1x7JXvzbR6UlBndPmEs6iyEbK+dq0LYyb1himM7vh0Voe6H1jnMLeRAs7vEOVJv9f6hc+nbWou8+57kxqeMO0JvzpzFu2JYvKK4foGB4qYbuwRp8WVIatz2JYGalul66uPIdNndwr94ipkGVoC5qhjCIwmepGJNRRuILsTQLodNYfV7VoGjqG9asyabhWtQFu6XIz0dWFLvAJlfVkg24uyaAVW1XU5x8r1WduXRduRq0oY3lXJoacjDSTaCpVOfQyZvtXoycnbNWMw04Boul0crwKPRRNSx02ewleBtrEqtbMJkcnsMMW3ukcIUkNoT0yhRxy/rAO4PiGHuAMjuQZAuqYjVW1SJmrGYKYNa8fsMLZjuNyOW6hT1qK9QL1X5RpBvNyOa+0YvmFoRU20Am3pPPIinvymD6XSk871OmmmHLsXOTtdIOKvHoX46ZtyjThHEgnX/uYCFDZ/CPq5d6YRrbcrHz3eK9CDBq2yiKA2oYfdqmg66/YhE0mgUbqQlk1ViIhGu8IVjjGs3S3CkdxgpVc+j+GdFdp0my5s2Z9FJNEgxVczrqmKOJWTXsbK+oBG/QbjK4LaqhzanPTUxVCrl2HlJuJXvoDUjVbd4IRN5Hvj8mQvhvMxVNs3h01ViKDwf6SqEc+n0ZMMiFNHDLXRfSgTebpl4Bgay+2yVIGyw9XFz3Iw1F3KVFJxDdcrN0Ur3PcYy4teH/hpxmBrFY48LJ0vlkB0fwXKxBNMPT8U6lyzSKIKuZ2mbf3TtrMuFXCdOr/6yf9css661SiL9iKDrJX2Up3sXEt8KzpDle8gMTRutsqGEz9ejVs9PxrquWJEYuU4YkwXlZ7ervKvh0upAwvc9bpBLFbIt9r1ucrW/ihqTWVrXsuHoJUJWXA43ecfLm9wzu+O78I9wbRv8WE3x7FfvndrRU86j/hmOc90oDqWx3DHVnTORThRSMtQ9fWM+dUb+nUU1/Zw5QXP+4FXG0k/f1A8avda3/B5t031PBjcrrYFtSfmos70aE8Uk1f0NvXOHNYqbWofPnFaXBmydNalMCwGoVLpBsSd9t1cxNXSMGcdQ6AVNTvTQCKJ45kGj8ZABxoTEBWRxYrkKlzj0WhtGbhOinhYGbkjDX0MEBDvQPRlEa8/huOtCY8GudWpksOWTPQi4/wvhmgEiK6wClxn3WolM0cSbZiuL8fwTq/Okl14pRtQ91bcky6E2POaYtVW4XSF0VqPqo1ogZg6FomKRlIragw3O1tmvx3XXXh8LI9I1KrlAsMQijWiZVWkhTC4j92Kmr4s4us6zPGT3ICerFQhAMin2137R8T1y9zn8skfpnOL92Z6jjYb4l3kjYicP/MY3qmHPYK1m5oNN98ONCYiyBzW3zczh+OedF7EUQC9IZVqQG0ki9EkjGVMDWM4hXxjkkWPVIHaHYLqlCnv6uWrGZXlcPIhkhtEJ8pruZVv7fIYjwLDaTsvAal1MeTHDlmN/lBxmsew04nyiqvC1nNDv/laYbXC7ZOHQ5XFLmyJa+/pKA0v9zUG1bnI7nOO13lwDHm7rglMW3GdTjlVr9PEq34KPldI0rV4HlMp30F88r7CkB8N9VxRvNJF4U5vtfwbwiXXgYBnvW4k57XkKDIoR6XoEJnD4ewpmc/yIXh2RoLDaTx/vAJlD2fR4rF/WTSFx732nU3YlTgujv7gsmXgOsTzY3i8e47CCRRRX8+OV73hvo5i2h7mtDTnWTP3+YPjsXAtQeHzapu6wx1Yx8v82hNzUmd6tSfC5hVDvGhtam+GfWdbD9vt8USbNYXUfgg8R3G1FMxhx9BOLCASUW+ejqZKRMVNpzCsa02Zi67RN7bEoxHkc1rJ7B6HMggoEzfBCNJoM3wAomVFueE9oCxyTh5rRY14ymQarrdMYdzzhekYohH3u2GdE1POv72vyarwrY5fAu1OHE1iencCEdEQ6KxbLZ5UW+v0J70FajiKCUNRtPiMRyOFKXX2X30MKK9Ei6jc4vVyHphEY6xQ4QFAbkJ7qHA0Z2wIeV+HiTltAKCzu8snb8j50532mVzhxiTffK0br6lBYg5H58SUiKMgckNKNKLSvVbF11SJaEAYg7nDpsjntAZ6F8anrPTzjsPCtlvi4ol7zpoSYmVfr+VWI9h6KNKB6tgUxutGkYlVIyWeeB852FVEnEpx4xNXc06++Yob72PiBuKdh2dQFqGVxxnUuUpYpLIUnLai4Wo3Pps2Yq10nW7e9ZP5XMWTr8V8TL18B/DJ+6pw9VwxvNJF4ZOnrfJvLicQdaDCFVcGyjZSXvAIh6f5Lh9e1+IRTrkOMJ4fALq70OmxP9CFzm6PfWcVdq28FUV+cCkeWooG+5yEUwhXX8+Gd70xq7aHR1oWcz8oPh7lawkIn1fbdAZ1vMq7PTEndaZPeyJcXjHXWXK6ewuK0xnq3orHsii0u+YsrpaGue0YiicVbfKIiqx7HDnY0+PUP/Pom0eDNuCz2clEO9rkpz4Sd0MRTuYpsKYJlEUr0DOlvreYT7ejJxvznj7kkRHkD0R4X5NVKXVOTAF5aTqD81eIV2sI3J4G5BUWb0FhCCeP4Z3WFGJ5qkQmly9MqZP/4lvRKW5s9nQI+U8emXUV2jVRRFyNMr/rMDGnjc07b8iVkruCV28GrRjNAvF1/bimKuLxdNQcDnPF4iE5igxiqB7YiLUR6WbrcRPSb1hy/Bb98RJXB90a7ctNdPnEofx/8cTdnvLi5B2P5d3jyEWqcM1ANeLZUSTRitFsDNXpaueJ94zi1Ceu5p54sl21EYPrYkB21CnL3nlYKotKnOvx6WMGda6XcGkrGp/rOsQ06sJ1FsN8rtkxH9OvfFv5WuGT91Xh6jmZkgdm+tMePnnaKv/mcqIy1+tF8QiHt8UsH+5wynWA8fw2j/1txn3nKuwzYI00i7oU9iyTkOEMKhu2UPX1/JhV28MjLYu5H4SLRy8B4QPMbdO5qOM92hPh6sxZtCdC5RVznRXuPGHidG6Ei6uQZWiRzXnH0H5SZtaKHuXFTYgXTrX3n6TI7azbh0ysQRoVa8Zgq887ZIB/GJK9zvxgWyrdUKiYXS/AajdsAMlEhU/n0Hr6Epc7a+JDPDava4L99MEQxpaBwodN3C+suiuzIIFhEPRrd7OeYsmNCPexxQvd6Q5z/GgvGUNM2VVe5q43T0Fxn8svfxjOLT54cnyg2Rjv1hxyaTqa/gVe8YEj+Slo8uE08rGE8tRbZQ7HrQlI0xyDiAZ4IoGIEj5DGRNfzbLDkslZDTBrvfXkuDjqF4BbBpKFqSdecej8T7yM7irvXsshOtsR1CZizrTc5OEs4jE5T8wkTr3iStpEvLTuPSofnj2aXBuTp7N652GnLHaPIye9e9EycJ1r5Nyb4RpNdW4YgWlrsa+n3TfuA4Q8lyqgHvQ6plN+rAaIM+U61WD4orVP3lcY8qOhnrN1TkwBznQz66n9zBjSWyn/hnDJdaDDXa8Xxysc6layJVM+tHAaz5+xR2zM+9t1hnHfOQu7TW1sFsJm0L0Vj4m6VB7tCAxnqLJhC1Nfzw/3dRTT9jCnpV+ehdZGcp9fj0c/AeHzbJsawm2q412dFplHeyKwzpxteyJMXjHEi9am9mbY11gPF1GGvATGVTFlaHHNQ8fQX2fdavRMSdMkd1fhyE7pHRkRue3Ojcp6dzHqDAW3ITrm9Q5ZGF3YEpeG43OTuD6XLoxEdW/Fqj440zSVOcSSZML+8IB+QwWQ3KBM9ZzeHcURZT60ddOFdE1rx9qlJxjuMLZXjaFNTM9NJsQLzTlriinSqRn8FlBQGAqVXHDDuBU19gv5uWMYbNLTbBKN6C18kEOPH/Gytvx0K5/uRW5zYX00rYatQD9XQP5IbhAfY7DTxvpwjXVsazqjE7d6uAHraXpfDtfb+9eXY1jOvwDQfQhH8lCeeru4wqGVgxA6D44hD7jeYeysW422sapCGauH8ill++Vpa30DYPhysL8sevZHneNbL4Xbx3fnXaV8oRU14qMw1r72uxFeyy3Jw9Zoh9MAP5pDHtq0pBnEqas+2pzDsBQd9lNJ1wj2jFijyXA9NQ8qi+I9GbG+vWoKGc8M7ua6xhDxYhaUtjZxncoDi2K5z1V92O8dQ9E42u13Qw8q34V3R6ZFucm4ikYWw1LZUvO+JkQ9J29rPWwU6T+V9a7DAgSVf3c5ketAmV6va6sDuPLdutGA97WWSPnQ6gDT+Wunep0PVbjjW/4GgXvfuQy7O9+LEUfXyHaBVZfqUzqDwhmmbBSEqq/nhd4eKK7tEZwXVO42UlA8BvALn0/b1BVuvY53tavdzO2JoDpz9u2JUHlFjxdXm9qHvq+rHi6+DJkFxVVxZWgxLbuk/NIz+kKixZRKT+L6XBGV6YLpwEjuOuQCG9Vht5ul1BCmN+ecBwYLoqkfx3dH8ZhXY5h8WF8ti+736ByQP+a9s1xQ/g9aT2Gk0pOoPuwdhy0Dx9Ae3ac98KSStxjtCVqSFnzEkOhcJ3/tbf4Ef/GRlhjl67HkT59aLKaI+43C05Kiv/LgPe1WYPmYvdQQGmH4GrvD60vZVNrYnqACdgyJ5pKY+27+PPPcsRtZ5ncYaekR78mGeteE0JRFjzS12Jm+x1GOs0QzMg+r06p8p92yfMwN52d+zFJp66fE3F/KplLG9gTJOJWUiIiIiIioxHHEkIiIiIiIqMSxY0hERERERFTi2DEkIiIiIiIqcewYEhERERERlTh2DImIiIiIiEocO4ZF6cBIbhIjKX35uSmVnsR0ukNf7KG04oaIiIiI6Fxy1ncMWwaOFdF5CaL/qLKmqRJRfVmAuQ3fQmpGZbm+TKVc2wziZjbO3nilOdfUj+O5IfCZxHwLqB9DYLmlmVHzXio9ieMDzfpGREQ0S2d9x3BBdW/FqmgFakrix2G7sCVe4ftjuYqzOm6aMZixf0h7EtNLuZORGpLCKf7O+Ya2nj6TmM70o0XfjIiIiIhmrLQ7hqmhEmhUnwuaMZiZ3UiFn1S6DbVTvSiLVqAsWoGebAyNi5YvOjAS2DHNokeEtSzajuHyhpJ4ep5Ptztp1DZWhXZ2Duks1jJwrCTK7eILU6cSERHmrGOojWKo75lZ757Z644P9CtTQqypRUPSNv4dgJaBY8qoQVzfQB9dMDbwxTb1MSDWIMIl3aA3Sdej7K9NpZKvO6CRmkqbwmR+Ly+VNh1PnHtAjms1rqzpNf1WXDr7e8WHdW69YWLFr3UT1afr+Me9YapPegjHnbDqN2b/fOFIDWE614baSAS1u/XjVErX5t5XCa/r/DZrymzmcGFkNJnQR0r1sGqNOc/8r6ZZYT/z8azwNiCOGBpFHPvlKUsXHh/LIxKNScvMx3d4hhezyi+F/5viXI+L/UXkfbfOun3IRKpwjZTmldK5lXCKqaaDYr19TqVMZvoxqOR3NR786zR3475l4Jj7Opr6cVw+lpIOav51dRp8pssGbutTT3mnF1zXqaeVzXWtqSH1/039OK5c30zLrZWHRtLSemP9HqZe9crnEPurcaHXhTI5H6nbeJ3DCl97IoJIos0jbgPCoOVpd1zZrDDoYQ9fbq3zKuFT0lcv19J5UkPqsfR8qaWTHobBgSKmHXuUpZnVqUREpWv2HcPUEKbrURjB2JlGtN6u7JsxmGlAVHrS/1g04e7MxWJAn9i/bwq1u003OOtc7Ympwrk6gOsTEWmDZgxm2rB2rHC+HjQYbgZimmRfFshaI0Wr6rrEughqq3JoCxyNacbg5hgyItxtY1W41bgdgFgDrs/ZYbKOad3wWtGTziO+WQ5fB6pjeQx3bEWnchBYYUtIcd03hdrdasMqkqhCbmcFyuJb0ekbH62o6csikmiQ4roZ11RFkOnbANeM0MC4d4vEynFkp4ifdDkalUZZiHwBAMkNVpzl8xjeWYGyqBS2WALR/eZ80zJwDO1VYyId9fPLrI5VvN7dQLV0YCTXUMif0V7kEm1q494z/0PJT1Ye8z5eZ91qlEV7kbFHBOOmPKCz0iyfy4r/ex8fCArv7PJLcJzLcbG5yLwfJIba6D7zNWvra5JWWBvL005Yy/ZHUSv3rVMNqIW9vheot/NWQPwKVsc1gUZpecumKkSyvdZ0a1c6jGHtblMHYba86yn/9HKX0dF1DcYyqnfSU+tigPR/67r3YUu32GFW5TaCeLm93qt+DqpX/fJ5kZr6cX3MHsFvx5GqpKhH9HPIYW1FTbQCbem8Mwo+syn4MdTqceXqHHZhy/7iym1ZH9Bo6LB70+s4IdmL4XwM1eLELZuqEEHh/0hVI55Po0eUB+X+sjOHtQH3F4delqQ8NbM6lYiodM2yY2g3OqTGunjXrOdos9O4uke6WSQTvcg4/xPsmwMAJEeRQTkqXTcl87nuSecLm3idTxtZCJLZb988TKMxthiiESC6wmqUdNatVm+KsmyvtK4LWzrSyMeqxY1LbUC2DFyHeH4Mj9uNKEUewzul609uQE82grWbpIaR3AALig/txo1UA2ojWYy6Gikh4t5ECkvnwTHkI1GrYekVLud/IXnmmw40JqB0MDrrUhiGOR901q0WjQn9yb5ID7sxD1iNur4s4us6POPFyf9CIT8FHS8s8fQ7N2mNpk4V8pf/8QPC65UuofJLuDiX46K4vK9yb5vH8MP2KG8rRrOFsule7w6rVZYKW7esKAfs/IpW1IgHEv7xK9M7Jx1oTETEyLQ5He5J5w3HmS2vesodB0p6eeUF53+yVoxmI4iuAYBmVJZnMZyGqJdEJ0QakZ9tuQ1TP/vmLa9rK/I+AQBYE0XECX8XtsRXW3We6xxWvY+qjcV3Pj1l0SN1dDrrUmr5tIlye73dgQ4ot8b7SgC5XBdY6WPnvXgUGE4XykpqXQz5sUNWR92jPAQz7JvcgJ6sIR6IiCjQLDuGMUQjeeSO6suBzu4uq3E1Na7dMLLI6fW9so1hPeB5rs6JKeff3uezGy1hqOeQj69qRY0YLZgOmKJSGM0RuseRcxoTcgNSNB6NN1kAmMK41mjO5NSGkXyu4PgQo2Wi8ZpaF0M+3eseLQwR9ybKdXePIyf+aQ7XDHjlm6ZKRGFPPZU6UBGffJDcoDzZtzuH8WjEmW7s/NXHgPJKtHjEC0T+t6jr/Y8XlvX0uydrNbLbpGmv/sf3D685XULml1Bxrp+7mLwPZ9rddG7SGuFQnv6rZSPjqkSk9U2ViHqUJVtn3WoxAmOdzx7J849fldw5sTomdofInA6dE1PG48yORz0VkF7eeUFZ4EgeFg3+po1YixwePzhmdYKaNmKt/rBpVuU2fP3slbe8r82nfvCS3KA8VHKmha8oByIJtMv5ZHcCEedhwxzI57SOehfGp/QHItbywqih1ZFSy625LJg63GbuvGzrtPMBOlAdm8J43SgysWqkxAjukYNd/uUhkPXgI14v55lJNMZM8UBEREFm2TH0v5maGzpWRV4887laVhR+U8H7fO6bztywpgSVRSvQM5XwnErqusFqN2NrNK0K1wxUIw7TiJ3NPZIaj8rTCFVh4qMwDUy+UeuC474Y5nDNoe5x5GBPPVX/gqdsqSO6mVzemW6s/MW3otMjXvz4H684yUQ7hpFAuzTC6X98//Ca0yVkfplhnIfP++rHZ2YSXw7lwUxBXKuYrGlo9nRba2qaf/zqrJHL+Lp+a7rv2CGxjTkd9A6LUm+sicKv2vTf1lBPBaSXd15QFhQczSEfq8bgpipg7BA6uw/hCKrQeGMVItlRw8Mmg4AwFcsrb3lfm3yfkPNHwE/3OA+VepFLWFNJOyemrIc2ej6Rp8IHCgiDq5NpbZObMNThyVFkEEP1wEasjejl1lwW5PuK3Mkqqt7vHkfOToPsKJJoxWg2hup0tTTi71MeAlkPFuyp0vKf5wweIiLyNMuOofUkMu68f1P4wMLxgWZrCgvUDlMqbX5PJZj5XLfK7yF4nU+eXqlzNRBCcr1Ib+gA2mLyezDNGGxNqI2l7q14LBtBbcJrxM4WUd+/TA2h0bMzFzY+WtGTBmp368tlIeK+GF7hUjbSuRsO3sQ1tUqjuK4PYMjL1Y8mtGyqQkQ8je+s24dMrEF59yuVtqebmuNFP57M/3g2d0PNrAtb4r3ISPnL//gB4fVKl1D5pYg4l4XO+3PJENbUEBql4uv+2IiVJv7x65Z8OI18LIHaSBaPydMKDelwawLOdNfOiSlAPJywp8t58d3Ws54yxIGcXl55wfmfpvsQjuRjqE1A1EddeHwMiMe0aaS+AsJULK+85XVtTn62OirOVMpUA2o9qroW1wdSRD1lOIfrIz1+94xQYYgp71+2DCQ9XgVAYQQ1kVDf9zTFeWoIjbFCfs3k8og4U2Ct0dfwrGnGtYmYkw+Sh7OIx+xppPApD2HOY9jX+PEhtZM9mPGf5UNEVKpm2TG0p9Kg8M7T7gRyffbTOqvh6kxjyk3i+lza4z2VEJIblOld07ujOKK8h9CFLfF2HKkqnK8Rvd6/xSdu3u0+DXlP3VuxSrruxlgWPV7nyaalMImfRtC2TR7OAvDp5AHWe1J9OVxvX399OYZ3indajMLFR+fBMeSVd7AMAuO+GO58UX3Y6/0lSDf/SdcX87x01q1Gz5Q0lWt3FY6Y4qp7K1btTAPyNMXElPTuTitqxAdajHHom/9NAo7ndLzCNlykqYL2R2L8ju8b3tnll9BxrgmX9+eWK6ybcxiWBt6TCSkedieAdEpcR0D86roP4UgegD5q5koHLa7Ee1LW+jasncrCs7T5betTT7niQAmDu4z6193WNGNI731aUwG9Oipm/mEqnjlvBeVz8T6gfe31QMY8KcMKL+ypxQ3S+6fu+NOnP9sPGaZdnRiEDEMWPfujTlxZH2/xHpG0yq36BWaIa2gbqyrEeT2U41jvedpp0gBkXQHxZaWBlA+O5pDX02Q29xd9X/FxKPk9YLVOFSPfrhFXIiJadkn5pWf0hbTwWgaOoT26z7uBiQ6M5K5DbhaNpCWtqR/Hd0fxmE/Dhs5NwXn/bHaOl9sl7pzNWzOpL1NDmN6c097NJSIiKpj9iCHNAfmLhaVA/PaVPLVHn15LJeLczvvur6fSwjm381ZxxEdnnOmbREREbuwYLgGpdIP0xcIS0JRFj/jdNmvqj3l6LZ37zum8L96T8vvSKs2fczpvFcl+/7DwnisREZEbp5ISERERERGVOI4YEhERERERlTh2DImIiIiIiEocO4ZEREREREQljh1DIiIiIiKiEseOIRERERERUYljx5CIiIiIiKjEsWNIRERERERU4tgxJCIiIiIiKnHsGBIREREREZU4dgyJiIiIiIhKHDuGREREREREJY4dQyIiIiIiohLHjiEREREREVGJY8eQiIiIiIioxLFjSEREREREVOLYMSQiIiIiIipx7BgSERERERGVOHYMiYiIiIiIShw7hkRERERERCVucTuGTf04njuGwSZ9xcJqGTiG6Uw/WvQVC2WJxAMREZ1dUulJTKc79MWLpAMjuUmMpPTlpFv0dsdMsb1CdE6b545hB0b8KpA1UUT0ZYsgHl3kUCjxoMZZy8CxIm76AfGtKGZbOhek0pM4PtAMFJ2vFgPz57lMzotLSzMGM5OYzi2dzpZ/XDWjslxfNgNN/TieG8Ks+3NNlYjqyxbDXF3PPApsd8z2Gma7v0S5Xyxkuy01ZJVF3gtoAc15++gsy8ez6xg6F2v4CxOpyQ0oi67Glm59xcJKJipQFt+KTn3FQlki8UB01tDqHu+G82KTOhrO39lxc5gVw73hrBhFSjWgFmm0RStQlmjV1y5BXdgSX0Jh7d6KVdEK1CT1FaRb9HbHTC1Ye6UZg5tjyPRVLND5Spm4T52NI9hLgt9MCUM+burH8SUc17PrGCY3oCxaYf31ZYG8uKEu6ZtqB0bm6ClaSUkNhevsU9FaBo4t4Y4NxE1jCXVmmvpxvL4cwztFXbMzDSSSixa+MOmXT7dLdeUUaneXQh2URY99zdFeoN7rxrnETI0vYmOd96dSFaYe8TPb/efcnLQZ8sgd1ZedC5ZaOY8haAD7bLEY5aBl4DrEAcQ3e3X2zq58PLuOYVibpKfHckWhT3WQnzL79KZbBo5JT6KHMOga9rV67/o5rf0aEEcMjdI53MPG6v5KJhNhHkl7rLelhjAtX5t+rfITBte6sNRwmhpdelwZNilQnvLbHQHxJKk+BsQatOvVRkOMNwHzk5RUWk5jn/g2VKDK1CoRd4PiOvXzAPp1ydsUf2wrr/SL6y7s6x3P1pTIkbS03okn67rbExFEEm2G8OtxZ8W3vI36fpEej/1FTMf0SMvUEKZzbaiNRFC7W782SVM/jstxPKDm6VR6EsfTQ9I2+nGC87JjTRSR/Bget58gd2/FKuWJsse1OMz1A5y6QE9fr+MFpZ+H5CgyKEellC7e+Qfu8+t1o7Hc2sfUj2WF2cnjHvvCKQv9Vlxl+vHIgOGdKJHuwdfdip50HvF1clpslNLBXWYGB6ywqeWxEA+mPGavU+sQr/STueu56XSHsQ4A/OPNykNDrmsrhM9cJr3uTxavuDLVWebtFMp2xzC4Rt/AI096pHehPhdpp8eHR1yFSxszOb2nM/0YDJhy630evzpa3qawv1fd2qKXkdSQ+v+mfuf9vEK7w78eqZTiz3x9s9jfJx970tsrrnabuyy5zmvzOr/rvmMOW2Ae8Lz3w50n9LrNK2wwjfio92Z3HaDXy4Zy7opHlStvwV0ejWVWSKW161fyZitGs3kMd2wFZnnfcPFMg+LbXzBcY6H971cO9PKr5kflmJl+xJW1QTrQmACGd/YiE0mgUY9jOR9n+tGSGsL07gQikQTatbTWr61wKI974jxZgI5hBLVVOTGS2I7h8gaPi5KHWyvQNlaFW03bpYbQnpgqPInemcPahPyoowMjuQZAHMc+53S6A511q1EW7UXGfpJtnMbh3v9IVZt2o4ghjl7nSXgu0ea6USLZi+F8DNV2Zt5UhQgK/0eqGvF8Gj0znnLTjMFMA6LSSMTougYlQ7cMHEN71ZgzituWLkejXrHYUkOYrkchXp1RDTFVqS8LZK1rXlXXJc7fhrVj9vm90lY0CJUnKR2ojlmVUGeo+A4SQ210H8pMU5j069qZRrSokQvDsWMJRPdXoCy6AclQ8RxBvNxeL8dTK2qiFWhL550RJTX8WmO6aSPWRiA1rkU8PtxqzA+PRRMhKziftExusP6fz4sROuuaVR0Y2Z1ATkrDXFXC9R5KJFaOI2KUT40jd9j1vKxIjiITSaDdmEd8rgUwlm+7fnAo6et3vKD085CqRhxTGBcdWf/8o5+/Aj1TCbTLjQklf49h7W4rf3fWpTCcj+F6paFk1Tv31HW59zWMZEYSVcjttOrKz9ftc934WjZVIZLtDXfdGufYrmuGct+w6puAPNbUj+tj9ghlO45U2SPIevzp+cHmrucKs160OkCPNynOHbGYk8d6slYD8PqcFYa2NFDb6q6H/e5P/nFVkLoxAdjlqA9oNJYRPS5TwGa1vHrmye6tuMe3Plfpx7HymPzQMUzauLUMHENjuTRDaX8UtTF9K5t+ngr0oEFrZHvV0fb+4erWzrp9yESqcI1oKKfWxQDp/1Z52adNi/SrRwp5z7OtMdP99XxsKP/BTO02uMqSVYY1+vnlcuS677inkgbmAdfx5Xu/IU+ErFdDk+oAOW7N5dwUj2o5sPKWd/3rLmtAY1CnzZYaQiOsfDkX9w2Hvu1s21++7X+vcqDf893lQDlmB3C90qfw1zJwHeLZfdjSbXj4qefj+FZ0JjegbGcaeXuGpajn9fRz1/P6PXH+LEDHEMjst28YXXh8LI9I1FSDW0PZ0RVWZuysW224eLvwSI1TcaOyWYkkN1TEDf/hrPFGqjPu35FGPlYtZXy7MQ7xpKUQ7gLrWu3l8SgwnM46mSa1Lob82CHXjTQ08S7MPVIcJRO9yDj/E08xpJt1Z10KwyjcpAoM8ZrcgJ6s1JHVuc5vxROqNrriWa/QWgauQ1yM+ISL7yByesgM1yXegek5qqeXF8OxlQ59uHgOVwbcOg+OIV9eacXpmiiQTiNjx02q2olHd3ro+cGHa1/vtDTxTEN1M0BqEHUeHEM+ErUaV67zB4W9FTV2h05/Yuk6lnotxrDq9YOcvgHHC8t+gjmdm8R0fTmGd9p5MiD/uM4v3k3qOOSZv+9xbk5d2LI/i4gTVmt7q94x7Gsq80ojVn/I04HGRASZw6aypzNs65UfhEKZ8Ug3OY+tiSLijMJ2YUtcNCRd8TeT9JPrAEO8KXFu71LIQ8nDWQBZPCbCYLrWQAFxZbE+ROPULckNxlc6AuMyIE/qnR+5Ple5j2M1lFJ4HLNJG/Nxe7LqVg7XeUT9Il0D/Opor/2d/8laMZqNILoGIj2yGE4Dazc1A2jGNVVhy4stTFvDj9f+hnxsKv+BwrTbTAznN5UjT0F5wHx8595vTNOw9WpI8n3EMEtEFSYe/epfr/iIiLwXQKkr5uC+AXjG48zbX+bjye1/E3d914qaPrstPrNjFjTjmio4Yeys24dM7LpwnXGFO/3825HzawE6hurc2s6JKXmlpBU1oidvD+e6bw4xRCPuubryMePRCPI5wx2iuytUhBr37x5HTinUhaf9AJDJmTNR58ExcZPrQHVsCuN1o6JRbz1hPXJQL/jhtawoN7wLk4UTlKZKRGFPw7D/rCFt66YlsyqleL287SQaY943oZYV5YA9FG7/7U4gYmywyBWaqMxEBg8X30HU9Cgw5xcA6OwOG/eGY8vxHiqew5YBg+5DOCIqh9S6GHITWzEqKmH54UJgfvBRXFq6eaehStlGWj+zsIsOnfPEUkzPCrgWY1ih1Q9SWIKOF1Y+3W49JQSQ6ZOefgfkH3Pc2OE15+/OiSnAfpggRlcbU/aIs91BCVfm9biSH/JYHQK/WQ9iqlRuEtPiia08suiVHyzqdRnTTd4nuUHkA+t89mjP3KSfXAeEiHMY3lPM5wodCde1BvOPK1sXtsTlBybmp/iBcRmQJ+3OT+2NVsPqmqpCfa5oqkTUVH+iC53ds0gbj+N63YfNZSiLXD5cHW3e31vysGh0Nm3EWuTwuN0OEOVv1LO8mIRra3jz2j9c+Q8Wpt1mErIceQnMA+bjQ9z7PdM0bL0ahnL8oPtZuHj0rH994iPsQ2jFLO8bFnM8YsbtL/PxgtpT8Wik8HqA/VcfE2k5s2M6Ug3SdOdJMUXYrhuLEFjnwlVHzacF6BgWwxoKtof19aF0d2VuaVlR+F73jAuCYNzfo9AF6h5HLlKFawaqEc+OIolWq1GflkZ6ZshcSVmFFrBv9PY0DPXPPe3LqrTsaQzyn/uplaVzYkr92JDzJz15kbc/OIa8HRco3BzDxbfcSSzm8+zm/KKa6bGFouJ5JrowPhXB2k39qI5Z8WY1PIaUhwuB+cFHsWmp807DcGYTdkB9Mhp0Lcaw+gg6XlG6t2JVXxbxemmEMyD/mOPGZs7faqOnML3FmnY0KsJdfJm3WKMO8XX9uKYqEjDrQf74zOzKgzHd9DzmfAytFznxMaI5TT8gZJwvpsIDk7Z0uXEqaWBcBuRJAEg+LGZ1+HV2Ah7wzThtPI7r9fMP5jJkbhCamPf3cTSHfKwag5uqgLFD6BQP9xpvlMvfYptp+TcJareZzLIcBeYB8/Ft/mlq3tcVNuUBRhH3K09h4tGj/vWJD/khkNx5k9vNbnNx3zDHo6qY9pf5eP7XIR4W2K8HyH/xreic4TEt9mijHhe9xY8ahqhzF9LS6RjqLzRDmhLjsIa44/XSdk39uFWaD2wN5TZIc5jFC8bKExh3AbIZ929NAOneGVTo4slqIuZMH0keziIem+U0UsB6hxFq5ZFKy+9ltaJHf5dFevFdZYhX8bKuMhdcrkgN5ze+HG3r3orHRFzkpbgMjm+r4DrTIVINqA1dARuuS7ysbY0ozObYtmLi2Zs7rxckD2cRSSTEwwXxNC8WUx8uGNJDzQ8+DPu609Jdedq80jB0VBrO7xd264MDal6tjgG5iS7jseRrMYbVVT9IAo5n80s/RXKD9Y6Z805GQP4xnL9w/eb8fWuiMLUF0jW3K8sN+5rKvIHVKUig1nmKPP+M6SblsRbnAwQ2kV8N8WdKv/AM8WaI89nxvj/5Ex8okPc1NH6D4jIwT8Kuz2No3O13bzQcR3yIwnqPLCBt5G0V5uM2ehVBw3lS6QbxXpCypZnX/spGku5DOJKPoTYB8eCuC4+PAfFY8DTS0PWIh/D7G/JxyPKvCGq3GfKfxXD+ospRUB4wH9+59xvTtIh6tXscOembEfZXKYsjlfOgeJSY61+v+Chsk8nlpemh1swtP7O/bxi2nVX7y3w8uf1vk+POXd+JtE4XXrfwPaYSZknTRqyFacaM1e4PnMKrPFgwpJ9e5y6gpdMx7N6KVX1wph41xrLoMbwfYTWsygtTlHZHcUSZD2wNycMZ6m5D7VSv9CK/SAD7C0HSnl77rx1rNzwNCcd+v8R5ono0hzxmN43U0oUtcWnqQW4S1+fSynsPnXWrrReqnbiqwpGd7pe4AUO86lO/REXa7hQQ9/nbq8bQZvygj8WKC/3ag+JbvHdin6ceyBhmAnpKbhAvYdtxYH10wTr+LI8tFBXPBnbFZW4EQbyfAKlRYT21Ux8uuNNDzw/e3PuqaWlXnpMe09NaUSNeKrfTMDpmeMfQk/v8fmFPJgof9LDzajTdLvKq+1jqtbjzm1o/6IKOFyL9NJ11q52yNpIKyj/W9MAjVYXzWx9cEKMqrvxtynvWU2b1fcEQZd5L9yEcyQNY0NEP/zzWWbfa+qCIuI7COyXB6Ve0UHE+U0H3Jz+tqBEfyZjOTVoNOsMHYYLiEiHrNP3dSZPOutVoG6sqHEf8zEyYtLGf2runqBnCtzmHYc+621CG0Gt8/9LMHc7qw17vGAIQ7yhCenBnTU3zGFkViq1HdEXvP9PyL/Nrt7naDJpZlqPAPOA6vnbv1/NEUfWqeE9NlKH2qilkwt/w3OXcLx51HvWvu6wBPdLou/XOmh1fDUDWs8AIc3DfcMXjLNtf+rld7X9TOdDrO638Bx1zTRQRV0fd+oAXPAZ4kg9b1+VZDu0Ha7lCPe/Kz648t3CWXVJ+6Rl9IdF8aBk4hvboviJuyES09HRgJHcdcot006IS0dSP463APbPpxM+Xpn4c3x3FY0HTXonmHOtfml9LZ8SQznGGrxIS0VnH+yuURHOlGYOtVThiHPFcaPoUXTH1dkFHzIksrH9pvnHEkBZEKi2maizFp79EFE5TP46L6UDGqUNE55qmZrRgI27dLb2HmS1mKirRHGH9SwuAHUMiIiIiIqISx6mkREREREREJY4dQyIiIiIiohLHjiEREREREVGJY8eQiIiIiIioxLFjSEREREREVOLOuY5hy8AxTGf60aKvWECp9CSm0x36YiIqQUuhTiIiIloMZ989sAMjuUmMpPTl82Opxc851zGMR51fGlokzags15dpmvpxPDeEBcpzdDZh3pCoPyzdMnDsrHngkkpP4vhAM7CgdVIzBjOTmM7xwZRNTodFt4hle0nFAy2qs6kepbNEQN22cPfAWZCvoakSUX39PFLjR233LEbdfc51DJOJCpQt6o+od2FLvGIRf/xWahzmJjHtU1gXXWpICmepNGj19JlcUk+KFp/1pO5cygcLVielGlCLNNqii1n/0DmvqR/Hz5I6u2XgmOses9CNrIUn6tCzJI1o6TOVo2LK04LdA+dK91asilagJqmvmB9LLX7Ooo5hMwYzhV40EPyUYmkwhHsepdJtqJ3qRVm0AmXRCvRkY2hctJtCB0YC0yeLHhHWsmg7hssbQlU0Z7t8ut1Jo7axKrSzc2hZ4Cd1S0nLwLHZ5/2p8SVzc5lLcxI3JSNMvTtTHRjZnUCuz66ze5GJNSzYlCuX1FBwpycvHpaI8OYSbYsX3gWUcdKoAj1oCI4nmjNnTX0VpvwA6KxbXWivpPNAttDGXFXXpW9eQuazrl08s+4YWtMS+sUoSCGC1CcMasSl0l5PG7TRFDvDpoYwnWtDbSSC2t1ihCU1hOndCUQQQ2OuMOqiTJMQHccRz/O5n36ODJg6m1a45H314V15jrCzTg+3dtxKKY5c4ZKFCiOcaayZw4XRgmRCHz1Qnya6zquN4hVuoGJ4e8Ba7+ynbK9N+8s1IK6lj78uPD6WRyQak5bNNLzwzk/imPqxrDCHycN6XOw3zkdPpcNdd2fdPmQiVbhGenjglTe8yptcpqYz/RhU8qcaD2o4A+LXxTz3Xr1Wr3iHsSJVylL3IRzJZ9FT5IhX0XWKI/z16/lhMOSULHXqliktrDC0JyKIJNoMaWTzuhaxvD4GxBo8rjNcPaJeo/5ASxuJ0M6hx4+exso1pYak/GKVp5G0tL9WVk1x453mupgSb/q2erj1dPU+j1d6CEp8H8PgGnW1Tg+HHn/H00PS8Uz1f1C9u1FKP/f+fud3NFUiiixGnSfprajRn6x73BNsnnlM3K8HxXonvxiP587zerqatWI0C0RXSNsaj1/gGV7AVSacMIi018tx6HpSj4unhgxpYr6PmSQfTiMfq5b2r5TOrV6T+R6jX2e/Mt1NzetaOAPi19S+QlH346D6RRW07YzLO+BbX7nj0Cvd9PaF2M4vHuV12nWb422m5ceff7vF7x6o87sn2LzSQ2+jWNvJ50kFfgdEpIFP/vava+00kfKpayCrEE41fhbfrDuGAIBYAtH9FSiLbkBSRFh71ZjzlK4tXY5GO9Ka+nF9zB4laseRqqRU0bdh7Zg9kiKNHiU3WP/P5zG8Uwy5JjegbGcaeXvEyXMYNoY47Kcb+tNC/elnO3JVCbhnQ3dhy/4sIlUbnYZMdQzS/5txTVUEmf1aGPRwi/ixxFAb3ecRLlnYMMLpWMXrTZUvREZsAKSnvcp5U0OYrkdhBG9nGtF6uUBFUFuVQ5v9lEjfvm8KtbutjG89YepFJjB9ZFY85nNZ8f/ZhFfPT+KpaaYfLWhFTV8WkUSDVEhFGvaFyMOAFheb0ZPOI75ZXt+B6lgewx1hrlsXkDcM5a2xXHoqvj+KWrlvLU8xjPYC9fLN3id+jVoDrtUv3oO1DCSxdqxXKichzKROAYq7/tQQ2hNTUl7LYW3CXAp9GdPCaly3pfPOSLJ7Cot+LXK8iunrfdnCk1xXxzq4HtHzvFWe7bpEjysrLu2bmXtfoFFvvPiKIF5u7y+nk0fceKa5WyTRIMpLIY3lxpZvunqeR08PQ95S4jsFbPaqt8PFXyRWjiM7rfXu+sjiV+9GElXIeeyvn19f7+g+hCP5mHkdDHWydE+A4TxqHoNS99Uk/Y7nzvPhRi6se3duQmzreXyLf3jdZeJIVZtVJrq34p6i6kk9/0CNi0/1Yjgfw/Xy+lQ14vk07gl13RrnHuK+ZnX9BiTRjMFMA6LSLJfHognEpc1TNyYAe30fCrOUAuLXItpXRdyPTeVjTsy4vNs86iu/vGIUvq0FNGNwc8wZIW4bq8KtIlx6vBXK9UzLj5+AdovNeA808bonICA9RBtlnYjbpo1YG0Hh/3Y5fFi/R3oz5W+/uhYAkLTKbLW4uJZNVYig8H+7/Pa47vWLb246hsrFdaAxAaVB3FmXwjDEiMiaKCIoR2UTxPt4q7Glu5BZCpVcF7Z0pAGn8zVTcgZQnxa2DFyHeLZXaoRZ58zb/5UlR5GJRK3KsKkS0Wy6cE1NG7E2Ij9FDcM7XLKiwmg3DPqmxAil+lTEfSyrg2QVGLtykTqvYp51z9FCuAqdX8P2yQ3oyUoZPxTxtCU3aY2uTvU6FdSswuvKT0Ay0VsYmdMKLVINqHXSMCAPC/KDAGvUL4FGuxIYuA7x/Bge7y5s78W9bUDeCChvVjo4W6NlRTlg5120osbpUPrFrzffaw2K9wCddauLv0HNsE4Jf/3mvHZP2qsUevNKi0CuaykuXt3Xqtcj5nxUFk3hca/94xUoeziLFo99e7IRrN3krtO8FMqTaeaAxivNDfLpdlcaWw/1QqSr13lc6RGUt/T4loWMv+w+5xo7D44h7+SjkDz3d5/fVN9ZrHTvmUqg3fXE3xCfyj3BfR45j1nkui/oeCFFCmGdzlkdHCtdgo7vH17PNBYjc/pMEP960tTekeNC7zxZYc+PHQr14DF1YwKR7GjhOuV7SHIUGSePG9a7wirqHud/1kwlp7wmN4gHU0HxKxH3Y6fjG3A/NpaPuTDD8h4kKK+YhG9rxRCNFNoIhXuoO968y/VcCGi3CMXcAz3vCQHp0XlwDPnySitt1kSBdBoZO65T1aHbZhav/B3ECrMdB/EoMJwutC9S68KX34U2Nx1D+b2WpkpEYU+dlBr8kQiia0SkSh0X+wmAlVnkCnzSmipa7M3PZQrjUgbI5Aq35nhUHp0K0opRURBbNlUBuUN4fAxYu6nZehIgV7qheIdLZgxj9zhy6hJVcoPyFMXuHMajkcJUM/uvPgaUV6IFMUQjeeSO6gcDOrvtwievtyqjeL2czpNojJkrA2/W05aerHgXRCpwswlvy4pyw/tWWeTyIh/ao6viiW5qXQz5tBipCsrDgBYXKDyl2twvGsqGEWSJPc1kOjdpPdFTnjYF5A1XeVO3h7ZPZ91q60mhOJ/dkPOPXz/e1xoc7/NghnVK+Os357XOiSl1QQheaRFktvEaWI945COgC53dHvsDQHcXOj32zeQCOncKNX4D49YjzU2c0SHb0ZzoFIVIV4/zhMlbrvjyqrdDxp9yPK9j+fDcP1R9p0omxMiFMksj4J7gcZ12HrPI6wOOF1Y+jbZoO4bzALKFB4+Bxw8Ir3ca2x2LVoxmI6i90XqQKc8qCso/Fu3ccudJdJwe83mIJl9XI3rVxqxSl2Sh32Lk9d51j/3vLmyJi7ZGblKaPhcQvwq54ys6vcr92J0OevmYEzMs70GC84qumLZWK2rECN10TprSOINyPTsB7RYh/D3Q+54QmB7dh3BEdIBT62LITWx12u/Fd8i88newzoNjorPagerYFMbrRkUH1Rq1PHLQu/wuprnpGMq6x5GDPXVS/XOeljgdl17kEtZQfefElPaSuP3n/TRhtoqtWDK5POLr+nFNFXDkYJdI9AY0VkWU9/rmkjGMoT/QoT6VyuTUl4adv/hWdBbRyLRYNwb5BXf7r+gRHwDJRDuGkUC7NMI5m/B2TkwFNvALT3S1QhomDxtYT+GrcM1ANeLKezhu8sdnXFMQiuFxc9E/D+28PL4zjaiYuuEfv/68rjVMvEMJb4ifdwljBnVK+Os357WWFTMLuCktgoSLV2+B9YhHPrIZ97d57Ks3huTG4EzjTmFIcxNXI3RNFJF8Dpmw6Wo4T5i85Yovr3o7ZPzNmxnWdwAKUybXdQTfEzyu01vA8YrShS1x60M5hYcIAccPCK93GhcayM67fdqsoqD8YyZGTao2YnBdDAh4GK1cV6gRDjPvukf+v5hBYE9XTIfID7rkKDKIoXpgI9ZG9PuxOx308lFM/eK77QzKe5AwecVbmHi0prCWRa3R/FsHmmdXrufZTO6BsuD06ML4VARrN/WjOmaVu+ThLOLrhmbYITPl7xC6x5Gz20nZUSTtAaZ0saOWC2vuO4ZoRU8aqG2V5tY39eO4mA/ufsnSHknsxTBEhhZaBvQffXTfxNVGZnE66/ZpX1RrxmCr93sgnQfHkI8lUAuRoN2HcAQxxAOnkZrCHU5RYRQvyCov/W6qEo0g07Hkl3CtJ3ZxuZAajldg2N710i+KSB/3jXtW4TXkp1S6AXFpOpWTV3d7LPfIw566t+KxbAS1Celp57wzhDU1hEbpHqR83AVw0sQ/fu2X8D0qba9rDYx3qzHuTAFKNaDWmJnDm2mdEnT9Bea8dusM3jH0Sgubq/FgM1yLOz97c1+rXo+Y85H9RNe4f8Z+Om3etzFWGNHI5KwGrbXeGmUulhw3nmluENHfK6+3nxgHp6vneQzp4Z+39PiWBcdf8cLWuzCf36O+axk4pn34Qn4v3BCfyj3BcB4pj7kFHU9wdVq8tKJmZxpw8kPQ8f3D65XGkOvD7q14LBtD425teUD+8WJP468t8h2pWTGENZVukEbKtA91wE6ToPjViZkoiQQiQffjWdQvftvOtLybyPVVqLziKSAeXR81sc9tiDdTuZbLj2+bb24E3QNDCZEeycNZRBIJ0SETDx5isRl0yLzyt/Mfn/CLWQOJmDN4lDycRTxW7KjlAruk/NIzs/nbOfzymTOZHtfyRzJnJC+fGfobj3XKvj1nnpdWnXl5+MxO+bi99o6ZM4/I55e2VcLzN8NnXpa2tbd/eXhX4Zh/M3xGHMEKZ697n8LfrjNDL59R9n8ko1+DtUw5hx7uMOGS/5Qwnjnz/LB7f69t5bgyrtfTzgmr5flee13Pmee1dLxEjn/X9tp6PS2dc+nXIfKAvf2Mw3upk14OfV/n+O7rukTPp8o25rgohMdjXfmlxjyk/AXkjVDl7eXhM0NKHlTjwTv/y3Fk7+NzLZ7XGhDvyjkzZ57Xy4vzp8az17Vfol9/MXWK5/W7/9S8njkzFBAec5r5pIUUVr0cmfZ1nbs3414m/4WoR9Rr1NNWi0vtXHr8qOVaDfvzmYyUFoby5LoWd9x4p3nhz0qHYSXcel7Tw62nq/d5istbpvj2C4e8neueUt5z5vkwxxJhCrO/d33ncWybbz5w52XPPGao+9zb68cr5Cs9XZ19vdJFhNv/+Pp6PV7UPGAKg/k+595XCadHXFxip5N+TYbj6tdh/7nr0V1nhl4Oqmf16xxWy6zejpLiKCh+lT9xHNM2fuXDv37R//y3nXF5V/7c9ZW+vzGvONvp+Uy/fi2OlHZQMeVaKz/2cVzpr4VDX2/Irzs92y1+90D7zxAHPvcEcSAtPfRyUEzbSzt/mPztOr/408u/oc2pxo96bnfdPf9/yy4pv/SM3lksaakhTG/Oae98EYXTMnAM7dF9s5q6s1S0DBzDrUiZp/2cY9dKRLT0WV9jjO5f/OmA84LtL6JFNw9TSc8iriF4eZoRUbHEh1jm6X3TBdXUj1urxnw+hX4OXSsR0dlA+Vrnuaa4L60S0fwo7Y4hDuGePkg/l2B9ytprhITITyrdsGR/l6Zo3Vuxyuep7Tl1rURES554cB3qvbSzT8tAMvBLq0Q0/ziVlIiIiIiIqMSV+IghERERERERsWNIRERERERU4tgxJCIiIiIiKnHsGBIREREREZU4dgyJiIiIiIhKHDuGnjowkpvESOFHDhfZUgsPEREREYWVSk9iOt2hLyZaMtgx9NJUiai+bBZS6UkcH2gGALQMHCu+YpjL8DT143huCDPuY852f1Lyw/zowEjuGAab9OVL3Fzkrbk4xjlk1nWPMJt9zRY4j4bIF/NfLpee83b8HFfecZe+WHIXKrt+jugV+vKl7mwNN821ua+7ZqoZleX6srlXivUYzR12DL10b8WqaAVqlsovyS618BDRzKSGMJ0z37hT6UlMB3ReglmzC5ZGQ4iIiCxd2BKvQFmiVV+xRIl7ifRnum/RuWVJdAxbBo4tfmZLDbEhRQE6MDKjRvtM9/PTjMHMAo620NxJbkBZXxaRRFJNv9QQGmNZ9EQ3YFbPf+ZydgGFNB9lnIpx3o6f4yM7WCGGcxcqu36AiL54KWLbbHGkhjCdawD6KlAWtf96kUu0YTrTjxZ9+6Kw/bKUzUnHsGXgmPREYQiDyrC9+4ZZGOa2nka0JyKIJNowrbxDpz6pUDqOYkrQSLqwfiRVeBLv2t43jM0YzExiuj4GxBqkfd3TnNRjaJm6qR/HpfCODARPW7LPbQ6rvq8aHmtqxJAUR+5C5hteh1/6CMq1HcPgGmljQY9fv+u2RkXEX6Yfg/r5pHScdr1XKdJL2l+toALyjbK9dSz7+H5xal1fA+KIoVE+rxxWV1h89gMAbJTO5Y4zz3hKDWE614baSAS1u837OjZJ4dNvrj55NpXWw1rYXokvn/DLPK/Fi5IH3Mcu7nh6nuhXylIqPYnj6SEpLtzn8y9L+vG9wiFJbkBbGqhtteO4AyP1MWT67E6hls+1tEultXKRGiqkV/chHMln0VP0U2n9OtR4UqnhU8uofpyA+Fij1S/6+ZS8YFgv0fOkei8SAvKWIsS5/cq4Hh6vc1nTOfci+q2XcKXUYD9vx89xZddL4i9MQ/4uVDrbv4SP7Njrmk6pHPNbe7Fc3h1wHaPyWn29Sg9jVJmaak3nrLxD2kZZ5z5+5A4rXOepi13hKnQCreUfqb4Q51X/jTvMn/yB4dw2r2N6p4ksckdh3yu/tRfRO9Rj6MfXz6/GnT7t1TtsuGIvPqLEUROi3ypctxX2H0j7F45tnbMeFyOGy0S4zwOAa6V4Msa/4Hl/Fm2UAX1GhH99oJeR4LZZkcfM9COurFVZ7Z1+7+OJ9uagOKb//c8Klzk8hXurd3vH3eY0hcWJ8oD2h7Ver3fMYVQ09eN4fQyZPn2WWitqou0YnqrCNSkEtx+VNobYzq/9EhAXavtMaqsYtqeZm33HMDWE9sQUeuwnCjtzWJswVaEmraiJVqAtnUc+3Y4yZ6pkB0aUJxXtOFLVpt3gY4ij11rfl0W8fhLTm3Noi1agbGcakJ/G+4ZRDO33ZYGsdbxVdV3SeSwtA8fQXjVmHT9agbK+KdTutjNiB0Z2J5CTwpurShhvJKoubNmfRSTRIBWsZlxTFZEaiD5isUIc9U2hdnehgPmHtxj6taWAzeq16edqS5ej0VRJiW0by9OFcO2PojYmbZAawnQ9pLRKI1pvV8bNGMy0Ye2YlVfKohXomUqg3TlXmHwTwCNOO+tWoyzaiwyyVtjiW9GJZgxutirPsmgF2saqcKtW2Zr3s0QSVcjtNMeZbzwlN6As2o7hfB7DOytQ5jnCFEFtlSgT0XYMlzeoN1afPJtM9CITSaBRqvFbNlUhku1FTXKO09wlhka7LNvHlm4exR2vGYOZBkRF/VIWrcBj0YSroRCJleOIT1p4lyU9z1lPVMN8JKqzLoVhJHDrQDNS6QbERdwa8zkazDd+g5aBJNaO9XrkCS/h4smRakAt7DToBerlhlExZTCC2vooHjPGraE+0Oo5hW89b/PPW4qQ5/Yq4+58AzT6NV4ur8HyJz6MZ5s/g7w9AvaRMTzf/GE82/xhPD8axWV+DXY0Ifqterxn9L/hWbHPry6pwcXyJtf+AB+pzuFFsf7ZfwAurb5Q2sB9jPyV9eoxZPrx7p/CRcrxAOBCXPwB+zr+G371gXrRybkdU6Ov4OKr5Wu6C5HLX8Gv/mEbTinHuAuVXfXA98R5mv8bXv7I34iO1u0Yb/4wnh99BadEuMcP2PtdiEs/MmU4t+mYffh99d+onUotTWTn7fg5LvvAiJM+zz5Rjksvl7fQj2+d3+4c6un77PdyuPTLdgfOvW/hekO6PFbY/3s5XPplq3N76qGP4tnmPpxE1kq3r27DKTQhenUMJ8X2zz9fhZWm0Ve9TCj3Zyj3HKsdpdcHWv3oW2a92mZFHrMDuN5VD6giiYTreGrHKYba6D6UiTaqXrYL94xW1PQV0aZzxecY1u7WH7R5CW5/INmL4XwM1ysd0WrE82ncY2jn2lo2VSGST6PHFWBY6ZJYjS3GdarUjQnAvqf0AY3pDu/2S5i4kNpnPVnrQdz1Oev46oNWmo1ZdgztjCll+O6tuCetV6HFaRm4TmokwcqIHWnkY9VSYctj+GHxRDw5igyAzH7R6O4+hCP5CKJrMEdh7EBjAhjuKDTqrcydwuN+4XX296EX3FQDaiNZjIYodJALbnIUGZSjUjRW/cJbjOBrc5/LavBW4RrXfcW9LZIb0JO1/2NOq1XRCvQcbXYao3KFlkxUoKzjEOAXViXfBPCMU5MYohEgusJKu8661caHCp6y+7Cl2/pn58Ex5CNR0RAPiqfwnDKBLjw+lkckavWgPOPK2bMVPek84usKI/+NiQgyh1uN4Zt5mptk0SN1oDvrUhjOx1CdQvHHM+aZXmSUjYpPC++ybzUMCvHmx4pzJNqsKaT2CJ9XmCOm+HUrOh/C55zKRgUtK8oBJ45aUSNu7u74CCqDeQzvlMp7cgN6shGs3dRsrg+SG9CTtfOCzLCtsZ73y1syw/E8z21izjeFazN4ZQRTTofmLpRXQ+kgnXroPvwKVYh4fUzl2htwKUZw4iGRkQHkv9mHk87/7Ma/1Ml5bhtOjL7ibBF8DFmI4wknn7Cvoxv551/BeZesAgCcemgfTl5Yg3JnpOs6XPzKGPLPyXuL5S/0SR2+buT+YQSnLl8X+ADW69zuY96O8e9lcfGVUudLSROZO31w4DN48YXCFu7jdyP31Q/j2X3HcZ7H/s823yceChj2DXm9DjnsBw7jJKI4zyvvYBWWXwi850NWBXPqoY/ieSkPWAxlQr4/C4V7jqk+kOtH8/HcZVY1H8fMp9tdx4tUbZQ6GVJ701C2lfufaNM59YRnm847rOHuH2HaH/rgg3XO/NihQr1kEI9GgKlx322CWR/asdscSG7webcyZFxI7bPk4SyALB4T16zet2k2ZtkxjCEaySN3VF3aOTGlLihSPBpBPqe19LrHkVMa6VMYV+otORxdGHeCMAdhbKpE1HU+AOhCZ7dfeMOQC64otOmQT/uVgptFzq77AsJbjMBra6pEFPaUAPvPmiZgdcwlHuHKOAE3pxUAdHZ3WY1RU2XV3YVO37D6de40XnFq1Ioae86911QOH0pYXXHqF09hqXEp53nvuCroPDiGfOw6a4RDPGXsSc51mhvkc1qHxCrP0RXNRR/PnGfc6VpsWshl357m5PzVx4DyynB5oXsrHstCKfPeYTbE7xzxPqeywNFZt1qMtlnXbD/V9c5XXmXQHbeZnP0Aw2r4xOvlfDaJxlihMVRgrjtc9bxf3lIUc24Dj3xTuDaD34wXOglXVOI9uBCXflmahtj1N7j0wgux/MNiKqE2TfC8D0XVYwAAjuO0009bheUXvoLTLykb4NQvCqU++Biy4ONZ1G3U9fKo4V0or75Q6sgVLL/kQpz69XF14XPj+L1vZwe+515+yYXA5fVS/L6EKz8bAz5QWRjBdMWFcEUl3oMcTmkd2NO/LkSUMcwA8Fw3TnnsD3Tj1HMe+4a6XokSdq80tN2OcTFi6j2V1FzGIO7PFnW9f/1oPp6rzGrm45i5Ca1DdTSndTKkshx4/7MewsY3W+2B1DqvNp1PWEPdP0K2P+TBB9FJtTtTXjK5fMgw+OnClrg1U8mKI/dsi4KQcaHfo+T6PHSbm4LMsmNobqy0rNC/xys3CoI/12u8eXrcaIOFDaMP34aNX3hDSo4igxiqBzZibSSPIwf9C22ggPC6eadP4LV1jyMHe0qA+uf6gqpHuOJR+xmoOa1srkpC4x1WKd8olb3V+Jsdazp0mZjW6prKMROB8TR73nEl6d6Kx8QIR2qd9JRxTtPcwPXUz8qTuYmuoo9nzjNFpLvH+WyZXN6Z5qT8SaNSxfIOs3rjlDsoRdVnBt7nVBYorCmU9nQy66bvna+86m533BY6l1bH1J4qJf+5n4yb6w5XvPjlLUUx5zbwyDfGjrPJc+P4PV7Br+63pxIW/sYPWCNzzhTE5o8i95zo9MidGsAZCbIcx+lXRMdSct6HCqU++Biy4OOFcerHYzh1YRUiO9bhYmSRN4zQnf51YaTP4dm5Cuf0r18BXuhzxa81tTKARydt+SWFiDKG2eaxv824r369F5ZL74d6pVExrCm5zzZ/GC/+psYwldRcxvz414/m47nKrGY+jul62LMmiojrIZIQ4v7XWbdPzPDoQHXMq03nE1apA6TUp2ui2ohxmPaHmC1UtRGD62JAdtTQSVVZo2/qqyQFzRgckEc0vduPVufQCl9butyaSmoULi5oYcyyY2iNdsWd90sANPXjVmU+t5XgzvSZVANqDY0NOfN31u1DJtYgzS1uxmBrAjA+dQkSJoyCq2Fka0WPPn9ZvCQ7kvIOr+EMHsS0vUQCEWlK28z5h1flnz7B12Y4V1M/jhvfpTFsmxpCo5P05rQ6br8onex13slydpc+7+8VViffdI8jh8IUj5aB62Yw7UCqBPUXwfVKXOFuJHoLiiebuyINyyuu9DybfLgw1bHwlNEQvhmnuUlMe8cvKU3FKfJ4xjzTUES6m8/nXfZFnhQ3wBn9/IRXmKW6IZOzbvRWmKxpvrPidU5lowLXBxRE/nbHR1DdHVHf20sNodFpSBnqA/HhBHc9ZtjWWM/75S2Z4Xie57bJZdycb9Ry5Od2TI0Cl/4naeTmir34iOsDJZIDj+JXUBv0kTvk9wO7kXsii4s/K31I5Yq9WCm/Exh4DFmI44Xx3Db86oULcWl1DKdGHzW+gnHqoX04eXm99P5fE6L/qQbQtnd1pny4jyk+JhPqPT5D+lz7A1wmvWPoPr71gRhrNM68/5XiwznGfeXrfW4cv0cMEXkKrr1paFLH9Iq9+Ij2gR13XBrKhHx/NnDXB3L9aD6eu8yqbbM5O6YkorwXbn0IzHu6paFsu+5/Ypvdar2t8gornGmrnRNTgDMN35pR5iii/WF1VBOojclTYsXHfUwjjd1bsUp8u0Ot7zowkmtDbcKOf7/2o/gYkdwmUNrYcvslOC5o4cyyY2jNG5anFE3vjuKIMp+78B6NNeQPZLQHpnZBL3RcrCFyONN4rA8xhHpSaxIYxkLDqN2jkuusW422sSq0O1MXyjG8035C1Ioa8RK2Hd7oWMh3DIXOg2PIA+IdrtnzD68sKH2Cr62zbrX1ERgnfqtwZOdqY2Xo2nZzDsPy+ZIbxEca7GNZH0ix0t6amnCkSoQ1Nyk+QmLPSw/KN+JdBLG+vWoKmWISyansRWXavRWrpLAq74n57aevNgiMJ6cinSy+4wGESlcA4n1ddaojTOGbTZq7ZDEs5V3rQwKFdw+KO14XtsSl6Ta5SVyfS5ufBHvwL0t6PE6iEb3iXQr76WkxDwVgzufOMS32h2usMDUAWc8ICKm4eEompPDtTgDplEj7oDKoy2M4LZX3+nIMy/lIr7vFRyfc9ZhhW1M9H5C3FPrx/M5tKOPufAPvcxmceuijePE3NYUpo1+uwsv3W6ODZt3IfVWaDtj1Ei799Yj6fuCBz1gfsXGOWY6XlXcCQxxDFni8cPLPZgG8gpd/bKhAAGeqIz5bmFZ70fP/TXkPzu5M2Z2rYLdj/P4RvMc55ku4DH149pu36xsaudLn6in8SnrH0BTmS3/T54xInnroo3j++arC/p+N4lf32x/Oce+rXq94H1Ks/8hHcjhZVLSLjumXRUf1uW14/ntw0vGyy7N40RQPvvdnE7/60VDGTGXW1Tabg2Nq8ule5DYXynk07VdnGe5Bhvuf1aaTO2IGrvjUjiPea7bWt2HtVLZwjw7d/gCAVoxmAeTH8LgTRjEjxDWLQkhuEB8WK8SzHTeF0VG/9mMrasQHZKZzk2hX3ss0tF+C4oIWzLJLyi89oy+kRZAasr6qOospaERERGeb83b8HB+5ZF/oThnRXEmlrS9b+nUEz37Wl66j+70ebBEVzH7EkOZAuC9FERERnVvER2eeZaeQaF54fhmVyI0dwyXAfs8l3LsnRERE54bIHfW42PNnIYhodsQ7k57veROpOJWUiIiIiIioxHHEkIiIiIiIqMSxY0hERERERFTi2DEkIiIiIiIqcewYEhERERERlTh2DImIiIiIiEocO4Y0b1LpSUynO/TFhA6M5CYxktKXExER0WJoGTiG6Uw/WvQVRCWEHcO50tSP47khsK1va0Zlub7s3NAycGx2Hd6mSkSl/yrHW0r5aB7DkkpP4vhAs774rHPejp/jyjvu0hdL7kJl188RvUJfHtZs95+dWed1mjHG/fwLjuMOjOSOYbBJXx7WbPenhRSPRgr/Ue5/Sykd5y8sweXhbBF834zc8RI+smPmkRh87z97sWNIAJoxmJmc4ydlXdgSr0BZolVfQd1bsSpagRr+2iwRlRxrxsS50QClc0kyUYGy+FZ06iuISkiJdwybMZiZ2ZOXloFjcz/ikRpapJtlDPKDsnPZvKRbKVq0vEo0F2Ze989MB0bmafT9rKPNmChdC50Hz2UsXxbGA83enHQMWwaOYTo3Kf6GMOgajhYjUvY2+shUakjaX3/3SttXOa67EChT1MRUgJF0YX9nXWoI07k21EYiqN1thds6jno+93tg1tPO9kQEkUSba5tKKS70Doh3PIlz1seAWINhX2u9+XjmcOuN9lRau5bUkJQOrRjN5jHcsRXxtCF9mvpxXL5OJb28b2xBaTGSUo8lX581paHf95r8r1lMtxiwjn98YL9Puokn2IZwQE+3TD/iylqbO4306ZKF9xdmNhUklZ7E8fQQjkt5SM+eeh5T1/vFVyGdrfXHMLhGXW3xy6sBx3eJKdvr8R6ULo4r9uIjXT9AdMfPcWXXS6i81lp8nvi/9fcDhHn2EbnD3v4lXPmtvYhq002UY35rL5Yre0NMYSkcww6L4tofSOHSp7uE2N9HSipf05l+DEp50CpTQ1KcuvNguLxu09OnX8nXfucrlAWJXs9I1HwthbupH8eV41h50DmGkqdFefCs+/3rNvf1WPsV4twdn85+uQbEEUOjiFc7vP7lVWbHdWEb732t+mUkLa33uR+749s6l748pdwb9LSXy2bAfbn7EI7ks+hJACOuffX7mt916vQwqfkR+rGM+Vs9hh4H0I/hCk/w/sDM86CLkr8nMTLgnv7onQ/c/OoPa4Mi2mp6+Xalj3TcgHLsLntaXeJRvpz18jKl7WPHoXU86zz+caTzC5sjIE3nIk/5xYP/8d2UfOCKj7D3eTGdc4d1v3Puo773PzP9Xh51TeMMvm8q93bjFFD1GPo00+B7v0zP61pdZLovLSGz7ximhtCemEJPtAJl0QqU7cxhbUJugjVjMNOGtWPt1vpoBXqmEmi3M21qCNP1kPZPI1pvZ37DvmhwFXx/McTRK/bvRS7RZh07uQFl0XYM5/MY3lmBsugGJAEg1YBapNEmtke9nmitqIlWoC2dRz5thaswJTCG2ug+97kQFE9i2mVfFshaYV1V12Uf1Fq/P4tIokEKSzOuqYog07cBydnGU2oIjdiHLd1AMtGLTCSBRumiWzZVIZLtta5TT6++KdTu1uPIi5QWfVnE6ycxvTlnxfXONJBIqhVmLCFdUzuGyxukSijMNUdQW2Udf1XdZo9068BIrgHoE9cTlG4dwPVK/raJNKra6DScqmOQ/i/Sa//spqlEYuU4stMKS1u6HI1a5d9eNSbyrr5ejy8rPgs35w6M7E4g58RDCticMHSmvPKqfnxTeqgiiQZE96vxroTHL11cYrj0kn14tvnDGD9gVeIf+cgYnm/+MJ5t/jCeH43ism/txXn6bpLzdvwcl31gxNnn2SfKcenl0gbX/gAfqc7hRXv9PwCXVl8obdCE6Lfq8Z7R/2atb/4w8lfW42JpC1z7A1z5WRSO8b0cLv2y3WkNsb+PloFjaCy3664KlO2PojambRSLFeJUL7uh8zpEejcgKspSWbQCj0UT7oa2x/k66/b51zMSPV9bx3E3rkxSNyYAO4x9QGO6w6fu1+9FY1i7W2uISdfTk7UaYNfnrOO3pYHaVnd+76xbjbJoLzLIWscWU9Xc1wU0GhqNViPCjmsrrPq+el0ARBAvt9drZT3EPa4nnUd8s3y8DlTHrIeHna6y2Y4jVW0+DURVy0ASa8d6kUQravr87mthrrOwX2B+DMzf7mOMrmtQjuEfnuD9HbPJgw69zm5Hrkqvs33ygSaw/nCFLaCtJrfzZplnAL+6xFy+bFZdU4VrRLlKrYsB0v+tesdq/8yYR9gAQ7xp6+cqT3nFg358z3rGFmtw6rTgdpd/ngIuxKUfmcLzzR/G8w91B9z/POj33funcFGR913Xvf3ZdbhMvrfjLlR21QPfE+ub+/D76r8pdDD1MLju/TJ3mul1kfG+tITMsmPYjMHNMacSB6z3p+5J5wubiJvQPVJHJ5moQFnHIc/9V0Ur0HO02WPfXqWQB8tj+GH7PbdWjGaB6AqvTAy0rCgHIlGRiK2osSvsULzOZb5OJZ6CJHsxnI/hevnmHsliNOkVx0XEU3KD9C6gaBSsszNqBxoTEWQOt5qvI7kBPdkYqo03Lp0UP8lRZIBCR6n7EI7kI4jKo1TZXqmD3IUtHWnkY9VWhRrymoM6Yi0D1yGuNEatxop1/Ybr9Uu35Cgydt5pqkQ0m8YwRHiaNmKtnV6zId3AOg+OIe/k1Q40JiAabmJ9Xapwfld8WfEJ0XF1x4OIb/u/QVzHN6eHLJ9ud8W73ZF2h0dOF5NX8Kt9t4t/34XyauBX/7ANp8SSUw/dh1+hChHPp5PufXDgM3jxBfs/TYheHcPJ732mECfPbcOJ0Vfs/wHX3oBLMYITDxVaGPlv9uGk8z/DMQ58Bi++EEPk2jD7+3Gnv1U21a2QT6PHjtPkKDIoR2UTis/rXumtbOR3Pr3zIdczMvN1lUVTeFzd0MD6AFYkKlq3Sj2n875+Jc9J15M8nAWQxWMiDtTyGMR8XT3ZCNZuku5PsQZMi8Z/oS5076uUdaFQ93Xh8bG8Ew9h7nF6x71l4DrE82N4vNtUNrW6OUBn3erCtYj7mnP/kO9rIa8TCJMfvdPXEXiMgPAE7h/EO4ymes8zHdTNPPOByn1tav1hDpt/W81u5/mENWSeAfzqkiCtGM3abYtmVJZnMZyGKGfiQYSr3imSZ9gM8aa0mdzxPrd5yn18Yz0jK6rdpbYjTE4+Yd9TA+5/RoZ9ir7vBt3bgfN2XIeLX+jD+AF7ye0Y/14WF195V7gwyFxxpKdZMfelxTHLjmEM0UgeuaPq0s6JKeffLSvKgalxd+O8uwudHvsDQGd3l8e+WeT0DoSvKYxLT4IyOb3aVHXWrbae2AQM25t5nct8nXI8BZNHDa3KJp/utZ6qzkk8FXQeHEM+dp31RClVjbhT6VnvIsbrpWkEuUk0xvw72wVq/ABynHRhXIuOfE5r1XaPIycq3HDX7I5zXTwacaZEOn/1MaC8Ei1Fp1srRkWF37KpCsgdwuNj1g3Ieio56mqAFUuJk+5x5Ox/N1UiCntakv1nTVWKrrEbgwm0y9e5O4GIaCDGoxGP+A4nXHqochOFihMAcDTnNKz908Ukh1PPiX9eUYn34EJc+mVp6kjX3+DSCy/E8g/bU0+1qSxXVOI98jGE07+2K/9VWH7hKzj9krr+1C8KMXTeh6LAb8YLNx8AwHGcdu4fq7D8QuDiz8rhegmXXQ6850NNIfb30VSJqKt8Geo7JY2yKKwuLq97p7eywOd8aufD6nhIjSubx3UBXeh0LdN1YUtcPPEOnLLjc/1yntOvOZ8r3PCLKC9e15XJmRruWrgCyrppHzkdw93j5I676LSLDoZ3XRG2oS6zOiv2A4LUusJ9Ldx1WoLzo0/6CoHHCAhP4P6BfMJoqPe800HmnQ8UPvnRYg4bfNtqdjvPL6xF5BmfuiRI8rB4qNi0EWuRw+MHx6zOzFw9sPUMW0Cbab7zlE+6uusZi186BbUj3OR7pv/9zxr506dyzsF9N/DeDiy/5ELg8nolXFd+NgZ8oBLnhQiDLDjNirkvLY5ZdgzNDb+WFYXfKfCq1Czm/W3mffUKSq5Y5uYnEqwheXuqxFwkmvk65XgKJTmKDGKoHtiItZE8jhwUT6pDxZPaefM9d/dWPCaeKKXWxZAfOyQyuZW5M850kMKfOvV1brgqLqmSC3vNQTK5vDMlUvmLb0XnDNItk8sjvq4f11QBRw52ofPgGFDVgMa5eCrpp3scOdjTktS/mqSIr7w0Tcj5s55kGm8URXwkYibp4XqYsCaKiGho+6dLgOfG8Xu8gl/db08LKfyNH7Ce9jlTSpo/itxz9j5RnKeNKC6/xJ4uchynXxEdS8l5HyrE0Klf5MSNRGbdDC3WzeqkM12l8Pf8Q90h9vfh0chSPr/uq7i87p3eyoIA1qwKq7xEpHpG4nFdCqVRoodBTH22p2h5TtnxuX7XTX4OeFyXqwGd7bWmqMpTZwPKehhh7nHWCGgVrhmoRhyFxrN3XSE3QMPflwtT/azpqvZ9rZjrDM6PPukrBB4jIDyB+wfyCaMhD3qnwwz45EeLOWw287UXeIdVyjO+5XiWjuaQj1VjcFMVMHYInd2HcARVaLxxbh7YegtoM813nvJJV1cHUPBLp6B2hD//+x/QjdxX9WVzcN8NvLeLTuILfa5wPfvVbTgVIgyycGkW9r60OGbZMbRGseLyjaWpH7fK8/aTvRhGArdKc5CtF1uHkPLY/7j9YrJx3wbEnel0VmXlDImnGlAbtsA41MpO/2CIeoNTuQqQJ/N1KvFkc2UomXiKm0ioc+ID40lUzNL7b42mc0uSD6eBRBsaY4WpUsbr8PhQwZyIyXPXmzHYmihU4iGu2Yucbp11+5CJNSjhT6XtF6oN1+uVboI12ppALaxpV+g+hCOIIT4XTyV9taJHf8dJeqneFF/yS/nueBDx7WxtIOdVw/GD0iOivDPYgZH6wkMId3jkdAlyO6ZGgUv/k/RO4RV78RHfF90N+1z7A+k9hG7knsji4s9K70NcsRcr5fcMDjyKX6EGK6WX1iN3yO86GI4hXnivvDbM/nLdqTOkf2oIjWGrqGLzuld6KxsFSz6ctspLRK5nZObrcka6useRQ2EqYsvAdVIYrI9vKO/SKPWrXPd7XT+k1wNmS76XmK9LrW8t1gif3Dk07CuX9QCh73HiAWFtQhrFM5ZNq66As02x92VxPbv1+qKI6wzMj17pG9RWkY8REJ7A/U1mnge90sE3qj0Zrk2pP8xh82+rFeoqr7A6eca3HIflkY8h7sP5GGoT1gNba6QaiMfm+YGtKd6UNpMh3medp2ZWzziKbHfJ7Qh/Afc/I8M+Rd93g+7twKmH9uHk5fVKOCJ32B+pCREGmSGO1DQLui8tvll2DAEkNyjTUqZ3R3FEeS/FGjY9UmV9CXI6NylecBZPGJIbxMuwhWHpwvsUhn3RK83HFfObxVcmp+uBjPkhiAe70BYqsGRCOt/uBJBOGRu2dkXnNFCCBMZTIUO161/sknQeHEMe0CqzoHiy563bUwAagGxARHUfwpE8lAYBYLgO8UK5/gR3TmR78VjUvqY21E5paR9wzSbudGtFjXiJ3ngc/XpN6Saz480Z/RBTZOf1qaSls2619cK/E9YqHNm5WuTfLmyJWx9wsa+zvWoMbc4InB4PbYiOud9XcbjyavHpkU+nAed81svahZFnPTzBx5OdeuijePE3NYUpo1+uwsv3i9FBD659rp7Cr6T3EHDgM9ZHbJxjluNl5T2DbuS+ar20bk9HufTXI+o7gvoxxAvv1rsNQfvbIy/mBpAr/TfnMBxQzBVF5XV3fro+ly7i3RdBlBe/8tFZtxptY1WF66ovx/BOu84R756KfNJeNYWME+RW1IiPd0znJtGuvGvjrvvd9yK5/MyW3fkpfC3QfV1Aj8eT98661eKjFdbDEVdaFxHWsPc4wH6PUhrFA6x4jfZKZdf6GIX+XlIx92Xrvia/oy+Wh77OEPkxMH8HH8M/PMH7q2abB/U6MqDODuC6Nr3+cIUtoK0mt/MC84xfOQ7DXb5U1pRliPdkAXta7Xw/sDXkO63N5Ir3WeUpdzwUU88AALJpKR1N7S6/dkQA3/ufB32fLxd/3w28t+N2jN8/gvdI01wvQx+e/ab4bkFgGGTuOFLTzO++tDQsu6T80jP6QlrCUkPWlzzDFsSzVMvAMbRH94XuCBCVgpaBY7gVqXmZur04OjCSuw45z8YvLSbWw0REpWX2I4a0gMRHZ0zv4hDRua2pH7dWjSlfOzvbyV+7pKXG60uxRER0rmLH8CzSMpD0eReHiM5p3Vux6lyaKSDe8Qr6SRlaHKl0g/lLsUREdM7iVFIiIiIiIqISxxFDIiIiIiKiEseOIRERERERUYljx5CIiIiIiKjEsWNIRERERERU4tgxJCIiIiIiKnHsGBIREREREZW4JdMxbBk4hul0h/Wfpn4czw0hpW9EREREREREc27JdAyJiIiIiIhocbBjSEREREREVOJm1zFMDWFanvLpmgLagZHcJEacBdb/p8Xf8YFmZ0siIiIiIiJaHLPrGCZ7MZyPoVp0/Fo2VSGCwv+RqkY8n0ZPEqJT2AD0VaAsWoGyaC9yiTap00hERERERESLYXYdQ3Th8bE8oiuskb94FBhOZxFfZ31EJrUuhvzYIXQCaBm4DvFsL2qS9r6tqOkrbEtERERERESLY5YdQ6Dz4BhQtREt6EB1bArjdaPIxKqRQgeqY3kcOdgFAIhHI0CswZlGOp2bxHR9DCivRIt+UCIiIiIiIlows+4YonscuUgVrhmoRjw7iiRaMZqNoTpdjXh+DI93W5tlcnkg2yumkUp/8a3o1I9JREREREREC2b2HUO0YjQbQW0ihszhVgBA8nAW8VhhGikAdNbtQybWoLxTmEpPFn670EtTP47zQzVERERERETzZg46hlZHEMhi1H5/8GgOeRSmkVpaUbMzjWh9YSppI3pRlrA6k57WRBEBEInG9DVEREREREQ0B5ZdUn7pGX0hERERERERlY45GTEkIiIiIiKisxc7hkRERERERCWOHUMiIiIiIqISx44hERERERFRiWPHkIiIiIiIqMSxY0hERERERFTi2DEkIiIiIiIqcewYEhERERERlTh2DImIiIiIiEocO4ZEREREREQljh1DIiIiIiKiEseOIRERERERUYljx5CIiIiIiKjEsWNIRERERERU4tgxJCIiIiIiKnHsGBIREREREZU4dgyJiIiIiIhKHDuGREREREREJY4dQyIiIiIiohLHjiEREREREVGJY8eQiIiIiIioxLFjSOE09eN47hgGm/QVREQ0U6n0JKbTHfric16pXjcthA6M5CYxktKXE1GQpdcxbOrH8dwQWJ6XmDVRRPRl8yiVnsTxgWZ9MdFZaanm57kIV8vAMUznJjHNejsc5R7XjMpyfYNSoF53y8AxqZPYgZFFegiphmP+BZa/c6g9NLdxG5BHmioR1ZcRUSiz7ximhjDtU0BT6UlMZ/rRoq+goliNL+94nnfJDSiLrsaWbn0FLYjUkGh8W3++jYlF1YzBTCGc1t8i5tuFoqXPdMk8re5AYwIY3lmBsugGJPXVFKALW+IVKEu06ivmkDV6YrwPi3y78Hl1Ia6bSlb3VqyKVqCGFRJR0WbfMQQARFC72/1Uq2XgGBpj2kKakXh0IcfrFloHRs6Rp6Iz04zBjE/nqakfx+vLReO7AmU700Ai6b39PGsZOBbYMc2n262wRitQ1jdlrB/OPVn02Ncc7QXqF6PBvRimMM4HRktYK2qivchEErhVKbcdGKmPIdNXSg3o0rnXhKmnzxqpoTkcbSQiP3PUMcwik42hUS64Tf24NRFBJpuVNwTsUUT7yXqmH4M+0ynsbZ0GlvJk3qcxLW8nPSlNpbXGWmpIWi+mJwxY+xbCJJ64+ozWtAwccz+RberH8ZBhd1Xi2hSS5OEs8ukUtnTbUzL6xchMYUqSMlLjWYm6b4zqdBb1OE7YlfBY8TSStqeQmc6nx1m/ceqHNRLagDhiaNTSCtgoHcN9My9MYTOvl6nb6uHQw+pOh0Gx/0jKY5nrHHp4tPSxrzM1hOlcG2ojEdTuNu0npvHmx/C43fju3opV2ujtjM7tTO/R85LX8ax4ak9EEEm0KdfuKzmKDMpRqeV39/Ft3uG1mNPLOqZ+LGvbMGVZj4t/DlOmPbWiJ51HfJ1cLrzzs1UG+9WRHXEuO6wjA9q0Mo86DoHxq4sp8e2q3zzqLVfZDVUXzbyOBdxlz319Mz2+ul6vz/zj0+969XQ8hsE16mq5/rXy4JAUFr2uKu7+WdCKGu2BUirdgHi21+kU+l1jS8D9yWLFg7ydPlWyRSpT+rowwsSP13W48qtetiVKHOvpGZTeCj3fme6DAeVPEebcfvW0Hh6vcwW0E0T6j0jxpB9LSYdMP+LKWoS8FrFNfQyINbjPs0mqm0z1jB3PPnUlEanmqGMIjCZ6kYk1iELbgZHdCSDdjprD6nYtA8fQWJ5Gm/1kfX8UtcZRRatCsLetSYrCXY/CU3nPkYhmDG62noSWRSvQNlalPSn1E0FtVQ5t0QqsqusSFUwDII5VFu1FLtHmahh21u1DJpJAo7S8ZVMVIvaNVw/7zjGs3R2mgQkrDPXAY3VdhUWxBKL77elbzRjMtGHtmD1K047hcjstipRqQC3s9OkF6k3xCwARxMvHxHb6+ZoxmGlAVBo1eiyaMNwYgM661SiL9iJjj7bEt6JTrIskqpATo2Rt6XI0ah2a9ir7/O71Mn1bK9/YNw09fdtxpKpNu8nEUBvdhzJlaoq6TD+HGh49fSrQM5VAe6YfLckNVvzl897T8ZKjyEQSaDfeOGdxbvsASl7yO14raqIVaEvnnRHBUCMNqWrEpVEl7+MjRHi906uzLoXhfAzXy/k+VY14Po17wpZlKS7+LKhMF8kvPyvr41vRKerQnHSduaqE9J6vdx3nH79ukUSDuOZCnDhlWa+3pDrXVXaNdVEFetCgNcZmVscWxFCrX5/SiA06vl7G3ev//+3dfXAU953v+w9gCxsBE8diRsIeGWOPjL0rZX0MjoMEJ3443j1xcpaY6/BU3tq9lS1xVGszZwWpnLo3EEjdqpSB3AFv6aK7qdrc48uTORByE/ve9Y3tDYyIr8HrXekcW9YQjDUYaQROLPNkhIH7R/f0dP9mRg/oaTT9flWpCn7d09PT3fqqP/37dc/h4Epnev/b0/y8Zi0092NM+oZ7P+YQiWTWxfgbN/i/nzk0P6OfxKVFjfvUEDukVZGEdtpDOc3POGu3tCorwAxkh55+NaFA9ePO7+qCiFz/X60nqgPqeDVT42/IANsn3+fIOl5df2s8Iiv1zZR3f2aOlYH2t9vg/g72+/vnMdj3zlens4/z7L91QxFRlXZ51tt9EXxjXU+mbmyVvlnnPurNz5KrTigz5Hh3QkpY72X9Tsvze55/W6jfWgkg24gFQ/cVyeMdK10nY272/ShbXQU5ulg7szoVI1qV2qBFPbtcxTv9y+06cY4u1s5ERAuyTiAiCgWkUNj65W9aOs9VTAbm/sPVsP8pz1VVqVG1uxNGT4DVvjPeq6pvZE5gV9UF1HGsMfe6Nz+jn2T1KOTTqFozMPTGtTPdYIe5zPbeoae3xiXnD/LgNYSDUiBk//HK8b4ume20Q79u61UgZJ+hZK2PFK3bpQ7nf4OUeMXpFWt6rU29znplH0dNS2M6rGo9kXUikz2vdb9kTL/OuX+tbdcbWeA60ezV4ZfMe2Hcbdnv4VmfnNujQrO2vu78v3+Nqk2foKS6jKvkI/De7mNpoOUNUvpK9ZlUl86sCOrw+vRxNMDyB1jf/veXeWJq/d71tr2uppyvzfG77NkW/f1ODyTHvHmP5+zp2etqf05n5nw1boDtm0NvfGPWNrG2YY66lbfm2nLuv13qCHjf/8ZqbFpCO10n9ekLAu516n/53t/xnNOrKjTrpYQaBtqeWZ/XW3tzLtuzH3NwH4Oe3vbsdcn99zM/a93rtHGFe7/mW25ANU8O8QQ6elQd6eO6vlKhRDyzreofV00goaP5/qAM1pC3zxA/R2KX63zB+HswwP72yJo399/B/L9/hqzl9fPeOeQ9Fj1/64bC/TewUUcT6XqUo27Y5zuOrM+Su04MJO85iEe+WgkglxEMhpkrkoGA9w+3o75SoRz3o3Skcv+Z7E25/+JZv9xVK1xDD1JdWhXJ/MJnWPdUpNInp1lXofrTq9T7mf9VhQLOEIbMiW5EClZmLdPda9iw/ylVOX/AIgoFvMuVpKZkT87lDEpPZ+bEJxyUAnXa6F7HTXUKmCeeg9C0dJ59Bd5aTv6r9t7P05Tscf7dEA561u9GefZ/c6dS6X/XVyqk9NDL9I81HDNkDNPKd8xJO9TUbO1f73GWfi/30Mdcr3e1DbA+ebdH847strzsk1XnKrkdDkfivd3TB1jeYPXGN2rWeusEuGO3a9jrAMsfaH0H3F927+qqWOZENN3TPqjfZeO98/9O55IeUtmlM/aVeXfPYt7j2eaenv9zpuWpcQNs31xSSeMk6f2UHVqHUnMtufdfQqle9/vfeI2VJPWmjJPrHersca9T9vJzb0vrmMk5XfYxN8D2HKj25lx2jn3v4dl+CTl/HvPWsqGwLp54wlWe5Xak8p1o96dRR+0LBw1PVkup1/XrNqnmydV2b/vRvBcaB22I22eonyP3/rKOlYH2t1v+3wVPQz+/f15Dee9c8h+L3mH+g+fd1pnzuH7Od2z5t03+OpUt/zmIV55aCSCnkQ2G9hXJDU7vgCFPEcp+sEpCO9fHJc+QCqugpocDuH9yX/2xhlPMsoeiuYcOuE9qGsL9Pyu8I9XrDGHw/OQKvvZVs6r5+/REdcDpqchX8Mzi6PnjNYSvh2hK9ki9ruFFzk+e/eDZB9mPS7eG3FgPOQnlHUqa37AC72A0dyql9NBL70/WEL88x1xazpOGPCcYeQ2wPiO+PdxXwUf6vQdY3pA0P6N7dydUtcLVwznA8gda34H3V+bePvNEdGi/y2n5fqdzcT985ga2l0v+z+mWo8YNsH1zyQp594cU6E2pY8g1N9/+y32imDbk/ZJ1ImzVsKwTbFv+bWkdMzmnpw2wPQeqvTmXnbUfB2mAWnbD8izXDBKD/fvUkeq1f1+k1td2qOm1Nql6pVZVD7a3/QYN8nMMJPf+so6Vgfa3W/7fBU9DP79/XkN571zyH4v5/tb1f56QXz/nO7b82yZ/nRieHLUSQE4jHgzTPTG5NWpn+h6HdFPsUO4nlzY/o3s94dC60lnlCSrWjdRZvVo5boxPF8SOVK/nHohVnnHv2ZqWvqKOyErPe8T6+WLe6Etx9UbqtMjVU5Fz3ev36W/r5AzFaEr2SM6QDmsoxqBFd+mwvMWuIdeDMySnaDtDa2Irtci1CbIfCJD9h3ZAOdYnFl85wFXNobxPjuOofp+O57wnJse8rke0Z+/f1TrQWCfFdw3qj60lx3u41yfn9ugyHvCQ/Yc0LXte694d60R4JN7bbYDl2bJOMPKJLtaGuFz3AQ2w/AHWdzD7Kz3PRtfvl7t9sL/Labl/p0dX9rpan9P5Vc1b4wbYvjkEPPfzWU+qtAJwjrqVr+am5dx/K1XlGiZryv6sA+2XiHG/cVSL+hmimL187zGTc3pHumdhgO2Z4/O6a2/OZbv345DkWBfz7+cNff1EvuVmjveh/H1qeq3N+n2R/cCs5tfVqoiq+tlHI2Pgz2EZ4G+N86wEZfZX+gLTAPvbI8e8uf4O5v/9M+RYXt73trnrdL5jMfffuv7PE/qXo27YDyN05PgsA9WJ7CA5SHlrpfv3HEDaKATD/jUtnWc9TCI9FOIbKR3OdzGv+Rnd6wwBOKRYdLFnmGOu4VrO63bLmc99k71zj0X69Tmemupl3TsZcg2nWqVd+b9/qfl1tfZKMofMRBfbN8Knh4BUq3W9a4idfe+ONX2DanoS/d+H4rFDT1e5hkqkuqwb8HNecbfvS0jPu0LqcG2CaJ19Q7o9TEX2k1CHJnt9FhzLvrciw/6DvmnwRTrrODK3pzHvhrbqzLz2Vz9Yx401zETO/rVuiM/XI5JP/+uzQ09XubZrKv1QpfSV3vQf0q6cgS1aV+E6NqzjNuS6L2V4752t/+VlTjDODPIE1D082Qrj/S1/oPUdzP6yevnc9+yl24f0u5yW73d6VJnrukGhNte9af3WuP62b7beeNy1Pa1jy9meg625jhz7b8BtbH7WgV6T0M5XQ87nsx5ykf94HviYyZ7uvr+9/+2ZXeu8tdf8bMZ+HKKsdZl/1HOPYbpXJqsXagDZNVLebTqUv0/270sm3FhDfcfi92fAzzGYvzWJuOv4tY8F51gcaH+7Zc/7zVQ86+9gv79/HtnLy//euep09nGeXTvT+j9PGJBZNzaF1Oq+x3CodcIOkhvNp5IORt5aaffeZo1AAPxtUlmw/LrZiOHYqpbUU0r1cyLmS/X7dHxTSL/q9wQOKET8ThcM6ojBerpj6NX+wjoAAIMz5j2Gxc56QIXrO+d8yfgOIXM4DjCB8DuNQmEO9R9oGC0AAENBMBxJ9jj6YX9P00RXn9BO+3sacw/HASYIfqdRMFar4yXv8LuBh9ECADB4DCUFAAAAAJ+jxxAAAAAAfI5gCAAAAAA+RzAEAAAAAJ8jGAIAAACAzxEMAQAAAMDnCIYAAAAA4HMEQwAAAADwOYIhAAAAAPgcwRAAAAAAfI5gCAAAAAA+RzAEAAAAAJ8jGAIAAACAzxEMAQAAAMDnCIYAAAAA4HMEQwAAAADwuUllwfLrZiMAAMWmLFiuuZF5CpXP1q3TSs3JAAAUlEsXLyjVfVonEu0629NtTh5xBEMAQNGrfnCB5syN6IP3WvVx8iNdOH/OnAUAgIJSOn2G7gjfpfseqNHJEwm1vXvUnGVEEQwBAEWt+sEFuu32Mr116A319V02JwMAUNBKSqbqkcWP6Q+fnB3VcMg9hgCAolUWLNecuRFCIQBgwurru6y3Dr2hOXMjKguWm5NHzMgEw/p9Op7q0hnnp10H6s2ZClzskGv9XT/xreacvtKwvz17m6QOKebMsVUtE3WfAyh6cyPz9MF7rYRCAMCE1td3WR+816q5kXnmpBEz/GAYO6Qzm+oU8DQGtGhTl1oy6WEcrdaBDivQHN+/2pw4sMjKG3tdUYtolSccAkBhCpXP1sfJj8xmAAAmnI+THylUPttsHjHDDoax+RHrH71xbQhVaFaoQjsTUsfuCtVGzbkngoR22p9jQ7xXkhSoW0kIcvbvLnVIkiL6JoEZQIG7dVopD5oBABSFC+fPjepTtYcdDHOJ1uUIheZw0459ajBmicW9QxbdPY7pacf377OHLmZ6rMzhjk4PX+yQzqQ2aJHdnRmo2zCk4aFNyR77X0FVuoZJ5n0/l/4+i3IsIz090+4dmpmr3VyGez2cafF9do9pu95+K3sZ+ZadX6N2pgNz9ePeffikezhunuGm++15nH2Q6dE9k+rSmY52+zhxrYsxzNfc3v1tBwAAAAADG3Yw7EhZIUGBOm1M5Q58OYebBuq00QkPVjhYZXc+plWtyD7JD9TVqcr1/1i8SxvrjIGsdRsGHf760xAO2v/qUWez9a+B32/gz5JrGenpTUtjOtwrazjus+llbtUqe/7eeExPN+deRs7PHalzgvGpf8gsu+bJ9HZdrSeqvcu+MQEtqnN/6IhWZR0L5jxb1eIK7tYsAe9xUr9Px1d4N2agLuqExkFvBwAAAAB5DTsYNi2d5wy5lDIBMRPotqrFPrHv2G0N0XQPR1wQkxRbaYeDXh1e7x7G2auUIka4SA/1XKxo7JAdwDLDP2ftTlizRRYoFl2sWaGNdhiSeuMbrXnqGt0LNES0yu55cgJH4qiisgJuv++nQXwWZxmZ7eEdsrpDv26zV9hZ5gI7DPeq9bUdg1sPR3o95unp5syyneGxrvVtfW2H55W5uUJq2+tqck9K7PKuS6BaT5g9kOl56hrVsP8p53N5t5XL/SE7KLo+a2ieFWCHtB0AAAAA5DPsYCg7HJon9YG6DdbwyPpKhey2qhXp4X4rnV6/UHh15j7FxCtOj5W1zHmqXdroCR+98V1WSPP06GXC3Bmnd8k7/PNG9cY3OkFyMO830GdRehm9ce20P0jT0lc8Qdn7/9U68A3vMgezHg7XeijHe+Va35zSPcLOvkvoV0vdQbJXh1+yA/f7KRnxzuaaR1JVKB283dsqvX42Z1mZz+oMux3KdgAAAACQ14gEwzQrAKV7A6Wq+e7hfJleIffPvZ5wcYNcD77J/Ni9SkOW0M71cSfYBELeYYzSSL9fLo06and8Va3IDLXsOGb0dN7QemTuEaxakRnymrXsfiW0M7TYCehZmjuVMttuVPMzujfdC2irWmHcs3lD2wEAAABA2vCDof1gEPNeQEnqTSVcIcF7z1xLKvMAkuix9PC/p4wHq/T/MBTn4TCBOq1KBwV7fTLBYYc607PlCnm5uMNIZKWznoN5v4E+S9NrbVbodC0jM6QyoaN22nKWk+buYRzEevTHWYc017Lz8oSvfkLhEDj3p3q2VXpbuEQX2++bGRYcCq8e9nYAAAAAYBleMHQ9GMR54qcz1DB9z1qjat0hyz1PZKV1Ah/dlXngyib3/X0BLWo0H2DiEl2snU7PmncoYdWKzFMxMwHEfv/BPJgkuth1v5r9XYaDeb+BPkvzM/qVsYz0vYzuYbKZ5Vg89/MNZj3641oHSep49RnvvYJjJDNs1NxWbu6nlqZ7T+1ja7jbAQAAAIA07GDY/IzuzfXAECW00z2UL7pYs1zDM6VMD5T1tRY79HSV9f2Hbh27KzSrqv/QEq3Lfn/rITOZXq2sB+QMVnSx68EwG3SmY586Bny/gT9LrnXu2G0Oq3U9hCbrfr7cyzA/d3+csOzqpRx7jap19QJKknp7PcdJLG48tVRSx+7MsTXc7QAAecUO5XzSdsP+9pyjZAqF83VJeb4WaFzXvX6fjnu+zmgQ6vfpeI79AAAYWZPKguXXzUYUu9U60GEFrt74xpG5zxMACtB3nv1rvfzS35vNgxM7pDPfSGmDcYGyYX+7/laxAq2dWxWLNaoj3K6NoVc0q65RsXiXVmmX/SA1q/6HXs3xfcNjoX6fjm8K6VdDuXhXv0/HG6WfDHChGAD8YFh/1wYwvB5DTExD/ooKAMDE0KioJ3Ft1YKI+4nQ1miUUHgcew0BAAWJYOg7me+VHPArKgAAeTxuPUQt1ZU13NQZypnq0pn4IbWk2nXg/9in41kPxrIexGZ9tZM1Pf26vA/Qsh+wZf0cUkt8oKGhjao1ntJcFQoolcy+KNiwv91zD37Ms2xrOOpA6xqLd6kl7n4onXcYa8uTmXndGva363j8UN7lStITznZ1PZiufp+OdxxSS4e1PWLqbxsZ6+Is39s+qOcQAEAetQsXavnyZWazR+3ChapduNBsHncEQ99pVG366aL29zMCAIYmUBfSUbuW7uyp09/aAcoZtmlP25AKWg9bO2I97dr9NU4N+59SVWKXat9PD69MP/l5o1LfyPFU7tghnVkh7UzPtz6lwT5sOy0W79KqYO4nUTctfUUdkQX2/X9btSAiBaoft0Jv/eOqUVw739+n45uq1ep8/dQuyfgKoapgShtCFbp3qXSgY4Nq2jY62+NoqE7mI8bSAhFltsH6uEIrXNsgUKfQMXva7h7vg+kCEelV+4nZ/W2j2Eot6rH3zfqNSmmrZ2htZp89NUDYBoD8wpVhrVvbmDf41S5cqIM/3282FwSCIQAAQ+R+inT0WML+OiRz2KbUtDSWecBW9Kg6nK/n2apVddLhlxrV8GS1AopoldPLtUGLAgHVPOkNJ7H5Ee/Tq5uf0U8G/WA1q3dyVTCeuWfS3bMW32p/h25EC2KSYgtUlYjrsKr1RL3U8GS11Pa69GS1Ap7RJtaTx92B13nSdf3jqgl4H54Wrct817Ep+7Mpsw3cX6sUPaqOQCjz1Uauaf1uo+hRdURWWj2O2qGno432OrqebG0/HdsJxAAwRHv27NXevS9r+/aYwuGwZ1o4HNbBn+/X5i1b1XLkiGdaISAYAgAwJhq1My7rO31jC1TlDliJTC9j+mfkHm6zVS2plZL5pG/nO2IzI0iix6yQF5sfUcexZ/TrNqnmya16olr935MerJwAQcoeMbO7x/qKJGfIaCLTw5j+4UE3AIZh9569amk5ooM/3+8Jhy9ui6ml5Yhe2LzFM3+hIBgCADAiGnU0EbCCn61hf9TzlTvWcM2VOrMi6PQsNr3Wpl6nJ1Heew9doscSCtStzHzVQ/0+/W3Wd79mi8VXKhTfOLinkNq9aqsi1lcZNb3WJtWt1CK16dfNedZ1RST39+E2v67W3oi+6RqWGYunv+s4W/ZnGyCM5tDvNoodcr6TeNb6uHqDlWrIuY7cZwhgeJLJpDZv2apkZ9IJhwcPWMNHlzy91Jy9YBAMAQAYIdG6Cu3UysywxFCPMXSyUTvjvVKvFbQk+zuB17epZlN6OKPVu5cV5KKLNWu3MkNON4WUMr4zN9tqVQbt7+J1hqr2F3wadTQhKXHUGo7Z/Lpae6Xettet4DfYdZXs7/XdqNbqzHt/Uwnvdxq79MZTWuB8tjqlXN9ZO2j9bKOG949m1mVTnVKvPqOmHOuY+WoPALhxyWRSz62xiuM/H3tb4cpwQYdC8T2GAIBiNprf94SRU9jfDQkANy4cDqu2dqH27NlrTroho/l3jR5DAAAAABgFyWRyxELhaCMYAgCAcdW0dB69hQAwzgiGAAAAAOBzBEMAAAAA8DmCIQAAAAD4HMEQAAAAAHyOYAgAAAAAPkcwBAAAAACfIxgCAAAAgM8RDAEARevSxQsqnT7DbAYAYMIpnT5Dly5eMJtHDMEQAFC0Ut2ndUf4LrMZAIAJ547wXUp1nzabRwzBEABQtE4k2nXfAzUqKZlqTgIAYMIoKZmq+x6o0YlEuzlpxBAMAQBF62xPt06eSOiRxY8RDgEAE1JJyVQ9svgxnTyR0NmebnPyiJkyrXT6D81GAACKRU/3ac0M3Kb5j9RJuq7PP7+kK3195mwAABSU0ukzdPc9Vfpq3aPqPn1Kbe8eNWcZUZPKguXXzUYAAIpNWbBccyPzFCqfrVunlZqTAQAoKJcuXlCq+7ROJNpHtacwjWAIAAAAAD7HPYYAAAAA4HMEQwAAAADwOYIhAAAAAPgcwRAAAAAAfI5gCAAAAAA+RzAEAAAAAJ8jGAIAAACAzxEMAQAAAMDnCIYAAAAA4HMEQwAAAADwOYIhAAAAAPgcwRAAAAAAfI5gCAAAAAA+RzAEAAAAAJ8jGAIAAACAzxEMAQAAAMDnCIYAAAAA4HMEQwAAAADwOYIhAAAAAPgcwRAoYJOm3GQ2AQBQ2CZNMlsATACTyoLl181GAOMv+OR/VNmj/6N+F1tmTgIAoGBd6/tc1/ou6trn53X96hfmZAAFih5DoAAFn/yPqnj6f9LNt1WYkwAAKGiTS27RTdO/rMm3TDcnAShgBEOgAN3+9b80mwAAmFAml0wzmwAUMIIhUIBKvnyH2QQAwIQyueQWswlAASMYAgAAAIDPEQwBAAAAwOcIhgAAAADgcwRDAAAAAPA5giEAAAAA+BzBEAAAAAB8jmAIAAAAAD5HMAQAAAAAn5tUFiy/bjYCGF9f2XHK+Xf7hsWeaYNx85cqFPiTP9O0OX+iaXc/qCufdunih/+iix/9iy5++C+68mmX+RIAAEbc5dQJswlAgaLHECgyFUv+s+75T3tV9uhfadrdD0rpoPjgv1fFkv+syr+Kqezrf2W+DBg9z27Xe63/qL3PmhOA8VH/03/UqZbtqjcnAICPEQyBInHzlypU+ZfbFHjw35uTPG7+UoXKHv0rwiHGTuR2zTTb4A/Pbtd7rTu12WwfZ/fOmm42FYkV2tvSolOtLTr1i+9Lm3bq1KC3//f15gAXcDb/okXv/XSF2QygSBAMgSJRseT7Tg+hW75ho1aP4p+Yzblt2qlTrblPCDb/omUIJx7wpfWrdGfNn2rZS+YEYHys+/Na3Vn7vJrNCRPdpm+qVu/oRzW1uvPPf6z62WWSylTZT9gDgDSCIVAEpt1t3UtouvJpl373vy7T2Tf/wZwk2cNOB2X9Kt158KRmPvyX3qvJm3Zqxd0ntbtmlda5mmGp/+k/5gzTxW2F9rb03+tQHL6vN7kg4hsT6nf57Gkn8DZ/90+5KANg0AiGQBEIfCX/8NGKJf9ZgQf/zGyW7GGlg+41XL9KP3pbql2dvi/n+3pzyRwlDqZDoWsIU3oYkyP7JLr/IUnGsox7gep/+o+Zaa07tfen/+h6P2s41Ju/cM3jWRc3e+jUT60eUesnO9T0/37edX1zU3q5LfrBw9M18+G/cbVnpqXnz7kNcg7/sl7nzG/34uZc52e36z3PNrPWMb0O1rbfbq1Hzvus+tmX9tDAN3+R4zNs2qlTrX+j2hnTVbvO2labXa+xPo93m2c+/yC2i9LLyuwLzzbqb5tk7Uf39DzrlGd51nK+pYjmaEWebVj/03/UqV9st7djej372a5S1jbImp5nfTb/Isc62NvJOe7yvFZZx8NexVuyt7/1mc1j0nit/WO+VpIqXdvePT33dkqPRLB/WrZrr7teDOMYSLPe196+/R3Tw/1ddpjzbvcM29z8ixa994udOT6XdcyYy87eH/axtWSOdPe3rGX84vs5h/Ka9czcp26e/WAejwCKDsEQKAL57iu8+UsVuvlL5br5SxXmJMe0u7J7GvNp/u7P1KKHtOanK7T5F99S5MNf6tH1sk9K/kbV7/+d7qyp1Z01tdqtb2WfrA5KjmWdfUg/SC9r00794OGz2m1Pu3PzJ6p+2LxfaLoiZR9Yw6lq/k4tZd/KOrHKmK7ah5VZ3sGzql3nOqEc6P3cQ7dqfikt2anN+rEeranVj94+r8/etj6HtZ2+rzdbvyUdtJdV80ulHv4b14mmbf2v1HJujp5yr/OmakXOvaNt391tnfwuca3z5g9Uvc59wjqwmQ/fp57NuYbTmds/1/abo4h+mf0Z1q+y5j93Xi2ba3Vn3p7k6aq9/xP9qKZWD3x39+C3i6TN/8NDkr1N7zworUifrJrb5OBZ1a7LnPTW//Qf9YP708dEjv1srlM/y7N6YX6phE5a07O2oe3uhxR8Pb0dBtqu5jawpjsn4+b6uPb5uj//pRIzHtJy1/aq/7f3aWb699N8rbFt5Dkelqnu9ZOa+fA3PaHjsfunuy4Cec18+KGsfWceL7Wz3sy/bz3bydpXK8rSv1O1uvP121V7d2b2Gz0G+pfnmB707/Lfqe3+v8kTnlZob8u3FEqvc02tXpn1kCLGXDPvLlPbZmv6j94u04qW7arXbi0b1P7YrWW1tbrz4EnpQ/tz/PmPnalp5u9B5n2yZe2Hf63WCtd+AFB8CIbABNdf6Lv44bvq/Nka9b77f5uTHNPmDLLHULJOPna8Iz38N9YQ0vSJhx2Otn13tzOndbJ6nx7Lc8U+r5zLqtWdO35rnWA97u6llPTS89r29nln3rTE6+mT9d164/3zmjnrLnMW23m1bHYtb/0q7f5wuqr/7YpBvV/97DJpxu26V7JPInOfPEtS/U8fdYVpWfMfPKnIV8yTSfNk0FqPz97/rZr7Wafs5fTjwzdzDy/L2v72Pr//a66Tx/Nq+a/pk84f69iHUmh2vuCdW2b/DGW7rFBlmTL7cv0q++Q3xzZZv0q7P5yj+XYP7vKHpZYdrgC3fpXurPmZ3kj/37NOAy1vkM69oz3pzzTAds3eBvaJ/n/9SPW51sezz3+sPZ79/30tf3i6Ev86mG1jcx8P5oWJTd9U7YyTOuasm9dnb/9d1r6bOZTjxb2d8uyr3R+m/3Ojx8BABlhHQ879teMdfXZ3dXYQzdr3dn30zOTdB82/+UCfpevKEPdHftnb1rrYl6tOZ8/r3Q8AihHBEChi0+5+cMCholc+7Tab+vfS83rlQ+mzt3/lnIDVzy7z3Ndi+Ug956YraF4WH0DuZUl6abeadZeCM86rxzijaj591tsg7zzZ093OqtMISMfPpIPkwO/X/N0/ta6628OtcvVypd07a3pmmFf6Z8kcqWx29hV798mgfSL4ynd3979OuZaTx2dnPjKbJCfoPqQfuNdx3UOa6YRfZW2z42eyg3n/vOs/+O2yW8tq7Z40zzC4uxScIUWWuF7f2qIVd9sn98/OVijHfpZ2q9lpc6/TAMsbLNdxPNB2vXfW9Nz7ZKDj3t5Gzb/5QJ/d/ajVA2r3Lltha3Cfxfve7gsT9kUJ1++7KXU6E3gkSYlPMqFGGvh4cf++59lXmdfc4DEwoAHW0ZBzf710WqkcD3rJXdM+Us85T4N3eS+dVsr5z9D2R17PzlZI6WHe6R9r6HdWnR5wPwAoRgRDYILL99TRsZQ7lJgns+4TJuuqfy65l5WWO2xaT967UdkncpmTvsG9nzW0sFZ3bn5HoSX5h64dP3M+M8zL/ZNzKKLd03n/17T3K3OkD9vsE8F+1sl98uk5MbdOmgej+fRZ6Zxr+Jjzk78ndLiGul2W1bqGwf3i+85JdsIZ1pf5eeC7u/OesOc3wPJuwEDbNXMxIpdB7POXntcrdk/35q+ke5fTr72Bz7K+TQnN0fyffk3VM86r7Tf5580KXpHbNfPcJzrubR2cPPvK+/USN3AMjLCc+ytPmMpd0wb/OykNbX/k9dJppZQe5u39yfR8uucdaD8AKDYEQ6AIXPzwXbNp0C5+9C9m09Ct/5Vz72GadQ9iemiUdWJrDc9MD4VyZvXKuax0z4B15TziDl/PbtearHsMh2K69z6kTTu14u70idfA75f9EB3vyZT75LH5u28qcfe3PL2Km3+R/6EOzd99U4kZD6n2bvcwt3zrpMw8L51WSpkhdPU/fTTrfqa8cmz/+iF/GXh2iOnP4LeL/ZAY98lq2WznPizPNrEf9pG+T2yP58FJ9v1oeXt4B1peWvaJc14DbNfsbWA/TMR1n1m/+1zSuv+aGeZt9S5rCJ/FZA9Pffghzcw37Ng203PPoPVQqkwwHarc+ypzb9uNHgPD1//v8grtXf2QlKsnL8e+3/yLbw3+d1Ia0v7IL8e2fXa73jO3p5R7Xs9+AFCMCIZAETj7m9xfR5F29p9+ZjY5+rv/cPCs4V1t91tP7TvV2qIV+qXr4QeZexNPtbbo1BIpkfdelRzLKntHP0r3WK1f5Rm6eWrd7WrLcY/h4J1Xy8FP9FR6eUvK1LLZ9Xj3Ad5v3Z+71nXdQ9LbP8vcJ2SfPGYCyI/16OZ3FHINd/NuJ5N1r5POfaA33CeC61dZD91w1uk+tbnXOX2Pnv0+P7j/rBLGsLX8dmtZrfXwjfQ6/uD+D/SjnL13uaRP0NNhfjAGu11+rEfth66cam3RD9z3QJn7yX4wSLonpPm7f6ofvX9fZijnkjK1bM7RU5I2wPKcE+d1OZ4ImtNA2/XHerTml5KzDf5GtWd/mek1HXCfS3rpt2o75x3mLQ3ms+TW/JsP9Jlk36uY32dv/1I9j2eWHXr774bVS9f83T+1HjiVXt/HP1GLUy9u/BgYjpy/y8b+qn4/3+fO3vdPnXkn+x7DAQx2f/Qna9vmOo7yzevZDwCK0aSyYPl1sxHA+PrKjlPOv9s3LPZMy8f6Worsp5Omh5rmekhN58+e18UPR6DHcML6vt5sfVQ9eU6Mxp/1JMvg6yNzcgsMyaadOvX4J/1eFNj8ixY9dSZfIMKIGsT+KESXUyfMJgAFih5DoEic/aef5bzf0PrKiuxQePbNf/B5KJwAbvjpg8BwuZ+Ei/HH/gAw+giGQJG48mmXOv8hqrNv9j+s9MqnXTr75j/o7D/1Px/Gm32vljksEBgD9T/9S9eTcDHe2B8AxgJDSYECdCNDSd1u/lKFAn/yZwo8+GfO/6982qXed/8fAiEAYMwwlBSYOAiGQAEabjAEAKAQEAyBiYOhpAAAAADgcwRDAAAAAPA5giEAAAAA+BzBEAAAAAB8jmAIAAAAAD5HMAQAAAAAnyMYAgAAAIDPEQwBAAAAwOcIhkAB6vv9x2YTAAATyrW+z80mAAWMYAgUoE/+6WdmEwAAE8q1votmE4ACRjAEClDPa/+bug78L7ryhy5zEgAABe1a3+f64vzvde3z8+YkAAVsUlmw/LrZCAAAAADwD3oMAQAAAMDnCIYAAAAA4HMEQwAAAADwOYIhAAAAAPgcwRAAAAAAfI5gCAAAAAA+RzAEAAAAAJ8jGAIAAACAzxEMAQAAAMDnCIYAAAAA4HMEQwAAAADwOYIhAAAAAPgcwRAAAAAAfI5gCAAAAAA+RzAEAAAAAJ8jGAIAAACAzxEMAQAAAMDnCIYAAAAA4HMEQwAAAADwOYIhAAAAAPgcwRAAAAAAfI5gCAAAAAA+RzAEAAAAAJ8jGAIAAACAzxEMAQAAAMDnCIYAAAAA4HOTyoLl183GiawsWK65kXkKlc/WrdNKzcnAqLh08YJS3ad1ItGusz3d5mT4BPUH44H6A1F/ME6oP8WlqIJh9YMLNGduRB+816qPkx/pwvlz5izAqCidPkN3hO/SfQ/U6OSJhNrePWrOgiJH/cF4of6A+oPxQv0pLkUTDKsfXKDbbi/TW4feUF/fZXMyMCZKSqbqkcWP6Q+fnKU4+gj1B4WA+uNP1B8UAupPcSiKewzLguWaMzdCUcS46+u7rLcOvaE5cyMqC5abk1GEqD8oFNQf/6H+oFBQf4pDUQTDuZF5+uC9VooiCkJf32V98F6r5kbmmZNQhKg/KCTUH3+h/qCQUH8mvqIIhqHy2fo4+ZHZDIybj5MfKVQ+22xGEaL+oNBQf/yD+oNCQ/2Z2IoiGN46rZQbrVFQLpw/x1PhfIL6g0JD/fEP6g8KDfVnYiuKYAgAAAAAuHEEQwAAAADwOYIhAAAAAPgcwRAAAAAAfI5gCAAAAAA+RzAExtj2bTF9b91ahcNhcxIAjDpqEIDxQv0pbARDYIydOnVK69Y26sVtMQojgDFHDQIwXqg/hY1gCIyxFzZv0XNrogpXhnXw5/tVu3ChJCkcDut769Zq+7aY3jn2tt459rYOHtiv7dtizjwAMFzUIADjhfpT2EYvGNbv0/FUl86kutQSMycC/rZnz14t+fZSSdLBn+/X99atVTKZVEvLEUlSS8sR7d37siSptnahDv58vw4eyBRQDE4sbtUg6+eQKEWAhRo0BlznQZwLARnUn8I1asGw4f5O/SS0UYd7zSkAJCmZTOqh+Q9r9569Wre2Udu3xdSZTOr5NVFt3rJVkvTcmqgemv+w5+ra8uXLzEUhh1i8S6uCcW0IVWhWqEIb4kGt6tinBnNGwKeoQaOofp+Ob6pW63qr/swK7ZJWEA6BNOpPYRq1YNgUbVST2QjAsXz5MoXDYacIpq+KhcNhJZNJSdI/H3tby5cv0549e50C+qJ94zb6s1qVQanj1WecOtT0Wpt6AyFVGXMCfkUNGj0NT1YrkHhFTzenWxp1NCGFwqu9MwI+Rf0pTKMWDAHkFw6H9eK2mF7cZl0+fmHzFj3/fFRyFcL0OPx1axudG7TTBdTdhlx26OmqCtVam9Ryf0iB3pQ6XE2AX1GDRlfT0nmaVdeYaajfp29GetX62g73bIAvUX8KF8EQGAfr1jaqM5nUkqetMfaS1HLkiJZ8e6k6k0nnilhLi9VW6SqAL2ze4syDQYod0pkVEU8PIuBn1KAxkr7PcFOdUrvnuXoQAf+i/hQugiEwDmprM0/hctrsm6rdY+7Tha/liHVDtvs14Uqulg1GLN6lMyuCOrze6EEEfIwaNEaan9G9oQrNCm1U6htdOr6foaQA9adwEQyBcZB+GtcK103Uncmkc2P182uinput3cVz3dpGVYbDzrAL5LNVLakurdIuzQpxpR5wowaNrli8S2fi1gM0LDv067ZeBUIRVxvgT9SfwjWmwdB6dDyPjAeSyaT27n3ZeRJX2L7ZOt2WHkJhjrmXpL17X9Zza6KeK2jIFouvVFVil/c+nzR7eBdX7+FX1KDRFX0prt7IUzpQn25ZrSeqA+pNJSTOh+Bz1J/CNYbB0HpKoBRUpVMoAf96YfMW50lcL26LafnyZdq9Z6/nKljLkSNZT+LqTCa1Z89ez7JgsutNZKXrewy7dCbVbp2o3R9SQOLqPXyNGjSKmp/Rvbt7tGhTuvZs0KKeXbp36Q7OhwDqT8GaVBYsv242TjTfefav9fJLf282A+NqsMdl7cKF2r49pspwWJ3JpJKdSR357W915513SpI2b9mqZDKp761bq2XLvqNkZ1LPrYk6j3PG+BrsfgbG0lCOS2rQxDWU/QyMlaEcl9SfwjKGPYYAcklfEVvy7aVKdlqFbtmy7zhj79ettYZCph/nHK4Me4ZVAMBwUIMAjBfqT2GhxxAYJaN1XIbD1s3YleGwNm/Zqhc2bzFnwRgarf0MDMdoHpfUoMIxmvsZuFGjeVxSf0YXPYbABJNMJp0x9wu/9jVzMgCMKmoQgPFC/RldBENggnp+TdTz5bAAMJaoQQDGC/VndBAMAQAAAMDnCIYAAAAA4HMEQwAAAADwOYIhAAAAAPgcwRAAAAAAfK4oguGlixdUOn2G2QyMm9LpM3Tp4gWzGUWI+oNCQ/3xD+oPCg31Z2IrimCY6j6tO8J3mc3AuLkjfJdS3afNZhQh6g8KDfXHP6g/KDTUn4mtKILhiUS77nugRiUlU81JwJgrKZmq+x6o0YlEuzkJRYj6g0JC/fEX6g8KCfVn4psyrXT6D83GiebihfOaesstitz/R+o6ldTVq1fNWYAxUVIyVY8sfkzdp0/p5O86zMkoQtQfFArqj/9Qf1AoqD/FoSiCoST1dJ/WzMBtmv9InaTr+vzzS7rS12fOBoyK0ukzdPc9Vfpq3aPqPn1Kbe8eNWdBEaP+YDxRf/yN+oPxRP0pLpPKguXXzcaJrCxYrrmReQqVz9at00rNycCouHTxglLdp3Ui0a6zPd3mZPgE9QfjgfoDUX8wTqg/xaXogiEAAAAAYGiK4uEzAAAAAIAbRzAEAAAAAJ8jGAIAAACAzxEMAQAAAMDnCIYAAAAA4HMEQwAAAADwOYIhAAAAAPgcwRAAAAAAfI5gCAAAAAA+RzAEAAAAAJ8jGAIAAACAzxEMAQAAAMDnJpUFy6+bjRNZWbBccyPzFCqfrVunlZqTgVFx6eIFpbpP60SiXWd7us3J8AnqD8YD9Qei/mCcUH+KS1EFw+oHF2jO3Ig+eK9VHyc/0oXz58xZgFFROn2G7gjfpfseqNHJEwm1vXvUnAVFjvqD8UL9AfUH44X6U1yKJhhWP7hAt91eprcOvaG+vsvmZGBMlJRM1SOLH9MfPjlLcfQR6g8KAfXHn6g/KATUn+JQFPcYlgXLNWduhKKIcdfXd1lvHXpDc+ZGVBYsNyejCFF/UCioP/5D/UGhoP4Uh6IIhnMj8/TBe60URRSEvr7L+uC9Vs2NzDMnoQhRf1BIqD/+Qv1BIaH+THxFEQxD5bP1cfIjsxkYNx8nP1KofLbZjCJE/UGhof74B/UHhYb6M7EVRTC8dVopN1qjoFw4f46nwvkE9QeFhvrjH9QfFBrqz8RWFMEQAAAAAHDjCIYAAAAA4HMEQwAAAADwOYIhAAAAAPgcwRAAAAAAfI5gCIyx7dti+t66tQqHw+YkABh11CAA44X6U9gIhsAYO3XqlNatbdSL22IURgBjjhoEYLxQfwobwRAYYy9s3qLn1kQVrgzr4M/3q3bhQklSOBzW99at1fZtMb1z7G29c+xtHTywX9u3xZx5AGC4qEEAxgv1p7CNYTBcrQMdXToT32pOAHxnz569WvLtpZKkgz/fr++tW6tkMqmWliOSpJaWI9q792VJUm3tQh38+X4dPJApoBgMu+akMj/H9682ZwJ8iRo0ltK1qF0H6s1pgP9QfwrXGAXD1TrQsUGLAmY74F/JZFIPzX9Yu/fs1bq1jdq+LabOZFLPr4lq8xbrAspza6J6aP7Dnqtry5cvMxeFnCIKBRLaGarQLPvn3qU7zJkA36IGjY1YfIMW9ezSrNA8Pd1sTgX8ifpTmMYgGNqhsGeXNsR7zYmAby1fvkzhcNgpgumrYuFwWMlkUpL0z8fe1vLly7Rnz16ngL5o37iNAcQWqKo3pQ6zHYBEDRoTsXiXVgXj2lDXaE4CfI36U5hGORhaobCmbaNmURQBRzgc1ovbYnpxW0yyx9w//3xUchXC9Dj8dWsbnRu00wXU3YbcGsJBKVCnjc5Q0kOytjYAatDoa9jfrlUROXWohQIESNSfgjaKwTATChm+BXitW9uozmRSS562xthLUsuRI1ry7aXqTCadK2ItLVZbpasAvrB5izMP8qsKBaTELmcY6YZ4UKs69qnBnBHwIWrQKIsd0sY66fB6eyj7+rhCK7jHEBD1p6CNWjBs2B/VooAUqNvgPPhhY11AiqzUGU7O4HO1tZmncDlt9k3V7jH36cLXcsS6Idv9mnAlV8v6E62r8IxUaFr6ijoC1XqCEzOAGjTKYvMj6o3HMvcUNj+jXyUCqnmSB2AB1J/CNWrBsGnpPOdKfeaKfa91Bb/qGTWZLwB8JP00rhWum6g7k0nnxurn10Q9N1u7i+e6tY2qDIedYRfIZataeAIgkBc1CMB4of4UrlELhoMRi3PfD/wpmUxq796XnSdxhe2brdNt6SEU5ph7Sdq792U9tybquYIGU6OOJgJa9Gzm63Fi8ZWq6m3Tr5sl1e/Tcb6+Aj5GDRpd0WMJBeqimYtT9fv0zUivWl/bkfn6CkZPwaeoP4VrHIPhalUGJSmoSq7qw4de2LzFeRLXi9tiWr58mXbv2eu5CtZy5EjWk7g6k0nt2bPXsyxki9ZVaKdWOkPZVwXj2pAerXB/SAFJgVDEfBngG9SgURRdrFm7e7Rok/3wq03Val2f/rqKiEJWAVKV+TrAJ6g/hWlSWbD8utk40Xzn2b/Wyy/9vdkMjKvBHpe1Cxdq+/aYKsNhdSaTSnYmdeS3v9Wdd94pSdq8ZauSyaS+t26tli37jpKdST23Juo8zhnja7D7GRhLQzkuqUET11D2MzBWhnJcUn8Kyzj2GAKQ64rYkm8vVbLTKnTLln3HGXu/bq31AJX045zDlWHPsAoAGA5qEIDxQv0pLPQYAqNktI7LcNi6GbsyHNbmLVv1wuYt5iwYQ6O1n4HhGM3jkhpUOEZzPwM3ajSPS+rP6KLHEJhgksmkM+Z+4de+Zk4GgFFFDQIwXqg/o4tgCExQz6+Jer4cFgDGEjUIwHih/owOgiEAAAAA+BzBEAAAAAB8jmAIAAAAAD5HMAQAAAAAnyMYAgAAAIDPFUUwvHTxgkqnzzCbgXFTOn2GLl28YDajCFF/UGioP/5B/UGhof5MbEURDFPdp3VH+C6zGRg3d4TvUqr7tNmMIkT9QaGh/vgH9QeFhvozsRVFMDyRaNd9D9SopGSqOQkYcyUlU3XfAzU6kWg3J6EIUX9QSKg//kL9QSGh/kx8U6aVTv+h2TjRXLxwXlNvuUWR+/9IXaeSunr1qjkLMCZKSqbqkcWPqfv0KZ38XYc5GUWI+oNCQf3xH+oPCgX1pzgURTCUpJ7u05oZuE3zH6mTdF2ff35JV/r6zNmAUVE6fYbuvqdKX617VN2nT6nt3aPmLChi1B+MJ+qPv1F/MJ6oP8VlUlmw/LrZOJGVBcs1NzJPofLZunVaqTkZGBWXLl5Qqvu0TiTadban25wMn6D+YDxQfyDqD8YJ9ae4FF0wBAAAAAAMTVE8fAYAAAAAcOMIhgAAAADgcwRDAAAAAPA5giEAAAAA+BzBEAAAAAB8jmAIAAAAAD5HMAQAAAAAnyMYAgAAAIDPEQwBAAAAwOcIhgAAAADgcwRDAAAAAPA5giEAAAAA+BzBEAAAAAB8blJZsPy62TiRlQXLNTcyT6Hy2bp1Wqk5GRgVly5eUKr7tE4k2nW2p9ucDJ+g/mA8UH8g6g/GCfWnuBRVMKx+cIHmzI3og/da9XHyI104f86cBRgVpdNn6I7wXbrvgRqdPJFQ27tHzVlQ5Kg/GC/UH1B/MF6oP8WlaIJh9YMLdNvtZXrr0Bvq67tsTgbGREnJVD2y+DH94ZOzFEcfof6gEFB//In6g0JA/SkORXGPYVmwXHPmRiiKGHd9fZf11qE3NGduRGXBcnMyihD1B4WC+uM/1B8UCupPcSiKYDg3Mk8fvNdKUURB6Ou7rA/ea9XcyDxzEooQ9QeFhPrjL9QfFBLqz8RXFMEwVD5bHyc/MpuBcfNx8iOFymebzShC1B8UGuqPf1B/UGioPxNbUQTDW6eVcqM1CsqF8+d4KpxPUH9QaKg//kH9QaGh/kxsRREMAQAAAAA3jmAIAAAAAD5HMAQAAAAAnyMYAgAAAIDPEQwBAAAAwOcIhsAY274tpu+tW6twOGxOAoBRRw0CMF6oP4WNYAiMsVOnTmnd2ka9uC1GYQQw5qhBAMYL9aewEQyBMfbC5i16bk1U4cqwDv58v2oXLpQkhcNhfW/dWm3fFtM7x97WO8fe1sED+7V9W8yZBwCGixoEYLxQfwrb6AXD2CGdSXVl/3TsU4M5L+Aze/bs1ZJvL5UkHfz5fn1v3Volk0m1tByRJLW0HNHevS9LkmprF+rgz/fr4IFMAcXgNOxvd9WfQ4qZMwA+RQ0aA/X7dNx1/tNCAQIk6k9BG71gGF2sWaEK189GHe6VetteV5M5L+BDyWRSD81/WLv37NW6tY3avi2mzmRSz6+JavOWrZKk59ZE9dD8hz1X15YvX2YuCrnEDmljdZs22DVoQzyoVVyYAhzUoFFUv0/HN1Wrdb19DrQ+rtCKdh2oN2cE/In6U5hGLxiaYiu1SHH9ZOkOcwrgS8uXL1M4HHaKYPqqWDgcVjKZlCT987G3tXz5Mu3Zs9cpoC/aN27jBvR0cmEKsFGDRk/Dk9UKJF7R0812Q/Mz+klcWvSsdcIL+B31pzCNUTBcrQPfiKjj1Wc4KQPssfQvbovpxW3W2KIXNm/R889HJVchTI/DX7e20blBO11A3W3II7pYG9qqtdEexrWxrkc76xrNuQBfogaNrqpQwGwCYKP+FK4xCYYN+6NapLh2Wvsc8L11axvVmUxqydPWGHtJajlyREu+vVSdyaRzRaylxWqrdBXAFzZvceZBfg372z1DSWftllZxnyEgUYNGXfSluHojT2WGjtbv09/WSYdf4uIUQP0pXGMQDLdqVV2A3kLApbY28xQup82+qdo95j5d+FqOWDdku18TruRqWX6r9US1UXeiu3S4N6IF/C0BqEGjrfkZ3bu7R4s22Q+f2VQnxWOZoaWAj1F/CteoB8OG/U+pKrFLtfQWAo7007hWuG6i7kwmnRurn18T9dxs7S6e69Y2qjIcdoZdAMBQUYPGQHRx5sF78Y26l2csABL1p6CNcjDcqlXm0An7ayx4bDP8LJlMau/el50ncYXtm63TbekhFOaYe0nau/dlPbcm6rmCBtMO/bqtV1XfcD2FNLZSiwIJHY1mHiN/fP9q78sAn6AGjYXVOtCxQYt6drlC4Wod6OCru+Bv1J/CNYrBcLUOdKxUlfupXJIawkFJUijMCRn87YXNW5wncb24Lably5dp9569nqtgLUeOZD2JqzOZ1J49ez3LQrampfM8D585s0LaGVqsqCTdH1JAUiAUMV8G+AY1aBTV79PxlBUKZ3keehVRyCo+qnK1An5D/SlMk8qC5dfNxonmO8/+tV5+6e/NZmBcDfa4rF24UNu3x1QZDqszmVSyM6kjv/2t7rzzTknS5i1blUwm9b11a7Vs2XeU7EzquTVR53HOGF+D3c/AWBrKcUkNmriGsp+BsTKU45L6U1hGsccQwGCkr4gt+fZSJTutQrds2Xecsffr1lpXm9OPcw5Xhj3DKgBgOKhBAMYL9aew0GMIjJLROi7DYetm7MpwWJu3bNULm7eYs2AMjdZ+BoZjNI9LalDhGM39DNyo0TwuqT+jix5DYIJJJpPOmPuFX/uaORkARhU1CMB4of6MLoIhMEE9vybq+XJYABhL1CAA44X6MzoIhgAAAADgcwRDAAAAAPA5giEAAAAA+BzBEAAAAAB8jmAIAAAAAD5XFMHw0sULKp0+w2wGxk3p9Bm6dPGC2YwiRP1BoaH++Af1B4WG+jOxFUUwTHWf1h3hu8xmYNzcEb5Lqe7TZjOKEPUHhYb64x/UHxQa6s/EVhTB8ESiXfc9UKOSkqnmJGDMlZRM1X0P1OhEot2chCJE/UEhof74C/UHhYT6M/FNmVY6/Ydm40Rz8cJ5Tb3lFkXu/yN1nUrq6tWr5izAmCgpmapHFj+m7tOndPJ3HeZkFCHqDwoF9cd/qD8oFNSf4lAUwVCSerpPa2bgNs1/pE7SdX3++SVd6eszZwNGRen0Gbr7nip9te5RdZ8+pbZ3j5qzoIhRfzCeqD/+Rv3BeKL+FJdJZcHy62bjRFYWLNfcyDyFymfr1mml5mRgVFy6eEGp7tM6kWjX2Z5uczJ8gvqD8UD9gag/GCfUn+JSdMEQAAAAADA0RfHwGQAAAADAjSMYAgAAAIDPEQwBAAAAwOcIhgAAAADgcwRDAAAAAPA5giEAAAAA+BzBEAAAAAB8jmAIAAAAAD5HMAQAAAAAnyMYAgAAAIDPEQwBAAAAwOcIhgAAAADgc5PKguXXzcaJrCxYrrmReQqVz9at00rNycCouHTxglLdp3Ui0a6zPd3mZPgE9QfjgfoDUX8wTqg/xaWogmH1gws0Z25EH7zXqo+TH+nC+XPmLMCoKJ0+Q3eE79J9D9To5ImE2t49as6CIkf9wXih/oD6g/FC/SkuRRMMqx9coNtuL9Nbh95QX99lczIwJkpKpuqRxY/pD5+cpTj6CPUHhYD640/UHxQC6k9xKIp7DMuC5ZozN0JRxLjr67ustw69oTlzIyoLlpuTUYSoPygU1B//of6gUFB/ikNRBMO5kXn64L1WiiIKQl/fZX3wXqvmRuaZk1CEqD8oJNQff6H+oJBQfya+ogiGofLZ+jj5kdkMjJuPkx8pVD7bbEYRov6g0FB//IP6g0JD/ZnYiiIY3jqtlButUVAunD/HU+F8gvqDQkP98Q/qDwoN9WdiK4pgCAAAAAC4cQRDAAAAAPA5giEAAAAA+BzBEAAAAAB8jmAIAAAAAD5HMATG2PZtMX1v3VqFw2FzEgCMOmoQgPFC/SlsBENgjJ06dUrr1jbqxW0xCiOAMUcNAjBeqD+FjWAIjLEXNm/Rc2uiCleGdfDn+1W7cKEkKRwO63vr1mr7tpjeOfa23jn2tg4e2K/t22LOPAAwXNQgAOOF+lPYRi8Y1u/T8VSXzqS61BJztccO6YzdnjUN8Ik9e/ZqybeXSpIO/ny/vrdurZLJpFpajkiSWlqOaO/elyVJtbULdfDn+3XwQKaAYiBb1WLXmOP7V0uSYnG77nTsU4M5O+Az1KDRlbverNaBjsz5D7UIfkX9KVyjFgwb7u/UT0IbdbjX1Rg7pDMrgjq8vkKzQhWaFdolrSAcwp+SyaQemv+wdu/Zq3VrG7V9W0ydyaSeXxPV5i1bJUnPrYnqofkPe66uLV++zFwUTDHpaKhCOxPphq3SsQrN2u00AL5HDRotuerNah3o2KBFPbvs858K7eyp08a4tZ0Bv6H+FKZRC4ZN0UY1GW2x+RH1xmN6ujnd0qja3QlVzacwwn+WL1+mcDjsFMH0VbFwOKxkMilJ+udjb2v58mXas2evU0BftG/cRj+ijYp6GhoV9TYAvkcNGi256k1EoUCvDr/U6LREjyWkYCW9hvAl6k9hGrVgmE8qucNsojDCd8LhsF7cFtOL26zu8hc2b9Hzz1tnEulCmB6Hv25to3ODdrqAutsAYKioQWOtUbWhea4L41JDOCj1dGZdRAeKHfWncI15MAQgrVvbqM5kUkuetsbYS1LLkSNa8u2l6kwmnStiLS1WW6WrAL6weYszDwDcCGrQ+GrY366NdfL0IAJ+Qf0pXARDYBzU1maewuW02TdVu8fcpwtfyxHrhmz3a8KVXC0DcGOoQePFegDNxroe7TR6EAG/oP4UrjEPhqGw9YRAD4ZSwGfST+Na4bqJujOZdG6sfn5N1HOztbt4rlvbqMpw2Bl2AQBDRQ0aB/X7dDy1QTVtGzUrtNi4DxrwD+pP4RrTYBg9llCgLqoD9emWrWpZEVHHMXsohf1VFjylFMUumUxq796XnSdxhe2brdNt6SEU5ph7Sdq792U9tybquYKGG2E/Op5HxsOHqEFjbbUONNZJ8Y26d2n2sxasr7c4JE5/4AfUn8I1psFQ0cWatbtHizalv8dnpbS7QrV26G8IB6V8vYpAkXlh8xbnSVwvbotp+fJl2r1nr+cqWMuRI1lP4upMJrVnz17PsnAjIgoFJAVCqjInAT5ADRpLVr0J1G3wfJezFQZXqzIoSUFVOhfOgeJG/SlMk8qC5dfNxonmO8/+tV5+6e/NZmBcDfa4rF24UNu3x1QZDqszmVSyM6kjv/2t7rzzTknS5i1blUwm9b11a7Vs2XeU7EzquTVR53HOGF+D3c/AWBrKcUkNmriGsp+BsTKU45L6U1jGtscQQJb0FbEl316qZKdV6JYt+44z9n7dWmuodfpxzuHKsGdYBQAMBzUIwHih/hQWegyBUTJax2U4bN2MXRkOa/OWrXph8xZzFoyh0drPwHCM5nFJDSoco7mfgRs1mscl9Wd00WMITDDJZNIZc7/wa18zJwPAqKIGARgv1J/RRTAEJqjn10Q9Xw4LAGOJGgRgvFB/RgfBEAAAAAB8jmAIAAAAAD5HMAQAAAAAnyMYAgAAAIDPEQwBAAAAwOeKIhheunhBpdNnmM3AuCmdPkOXLl4wm1GEqD8oNNQf/6D+oNBQfya2ogiGqe7TuiN8l9kMjJs7wncp1X3abEYRov6g0FB//IP6g0JD/ZnYiiIYnki0674HalRSMtWcBIy5kpKpuu+BGp1ItJuTUISoPygk1B9/of6gkFB/Jr4p00qn/9BsnGguXjivqbfcosj9f6SuU0ldvXrVnAUYEyUlU/XI4sfUffqUTv6uw5yMIkT9QaGg/vgP9QeFgvpTHIoiGEpST/dpzQzcpvmP1Em6rs8/v6QrfX3mbMCoKJ0+Q3ffU6Wv1j2q7tOn1PbuUXMWFDHqD8YT9cffqD8YT9Sf4jKpLFh+3WycyMqC5ZobmadQ+WzdOq3UnAyMiksXLyjVfVonEu0629NtToZPUH8wHqg/EPUH44T6U1yKLhgCAAAAAIamKB4+AwAAAAC4cQRDAAAAAPA5giEAAAAA+BzBEAAAAAB8jmAIAAAAAD5HMAQAAAAAnyMYAgAAAIDPEQwBAAAAwOcIhgAAAADgcwRDAAAAAPA5giEAAAAA+BzBEAAAAAB8jmAIAAAAAD5HMAQAAAAAnyMYAgAAAIDPEQwBAAAAwOcIhgAAAADgcwRDAAAAAPA5giEAAAAA+BzBEBgp9ft0PNWuA/XmBAAAAKCwEQwnhK1q6S9w1O/T8dQhxcz2YRngPZHt/pACZltOq3Wgo0stI7vDAAAAgBs2/GAYO6QzeQJELN6lM/GtZjNGWOzZOqV2L1Y0/f94l86k7J+OfWow5scoiS7WrNA8Pd1sTjDt0NNb4wp9g30DAACAwjD8YChJCmjRppHuscLgbNWCSEJH7VTYsL9dq7RLs0IVmhWq0M6eOm0sqnC+Wgc6cl+ImFCan9Gveqr1xET/HAAAACgKIxQMEzocD2rVIAJIw/72TG+WM/zRGlp3fP9qZ75Y3Pv/hv3tOXu/Gva360x8nw50uHrJstZjq1qc9+zS8f37vMMk6/fpeNY65Wu3lpUZBpg9LNDbU2pNz7du1ufcZ62f8/m869vvkMPYAlUljjq9hbn0phJmU0bskGt/5HivJ13Th7hdvfsms13NHs0Dxr42l+u8b+yQzqQ2aFEgoEWbvMv0fg5vcMy5Hu75cxxXUmaIbotrfVti3td61tsY0huLd+l4/FCOY8jSkZJqnnR/bgAAAGB8jFAwlDqXztNOrTRO8L0a9rdrY3WbNti9WRviQa3q2KcG7dDTryYUqH7cCUYLInL9f7WeqA6o49Vn1GQsU5IUqVNN20a7l2yjDgdXGsFspULx9PQK/SpUpyrXy2PP1knp6bvlBNzc7Y3aGe9V1Xx7+fWPqyagzP+1VQsivTr8UqP93htc61ahnVqZFUQCddVKra/QrKpn1JRjfY/OX+lZX7eGcNAT/Jrs/ZAOLquCcf1k6Q7PaxyxQzqzQtppv8+s9XGFVrjDYUCLqlP2/rK2a2b/Zq+nuV0la9+EXq3QrJA11LVhf7tWBePOMTDr1ZAWRdwv2KqW1Epptz3dvT+ji63/9/bq8PrMMrM+x+6e7B5sz3qs1oFvRNRhv8eGtmr9bd7jNqKqdA/s7oSqVnTpzDfsbbI+LtVF++29DESCal1vHu+WpmSPAiHPhwcAAADGxYgFQ0mK1u1Sqm5Ddq+TJGmrVtVJh7dmwl3T0pgOyx5OFz2qjkDIChb1lQol4plp9Y+rJpAZLpklsUv3OuHHun+rN7LA7hlaqUXyhqNo3S51OP9brcqgMifo0cWaVWeFutztUtNrbeoNVlon+PeHpHhcHc77LVBVb5t+3dzPeweMIYSJVzL3peV7jfO//sXiXZ6hpBvaqrUxZ49YOhxl7k1U8zO6N1Shne9nQlImjO/Qr9t6M9tjsOvZG9dO5w2yjwFFF2unq0OzYf9TqkrsUq3zmh16uqpCs15K5PgMyv05oou1MxHRAvdx6FmPiEIBKRS2PmfT0nmu48eUDvn2MereJs2vq7U3oND9xkvcXPu26bU29aaPcUl6P5U5jgAAAIBxNKLBUGpU7fq4Qity3G9YX6mQ0kMA0z/WsEDrxLpRR+2T+YYnq6XU6/p1mzXUruHJagX6GS6ZNVSyuVMpBVVZb/WoqafT6GlMKNWb/vcOPV1l90p5hvvla7cDgR1aY/MjSiWfcdY9Nj+i3rbX1WT35uV+b2+YcK9//td4GvJw91Zampa+kh1EJTsc9Sr1vtkuNTWnQ5J3elOyx/n3oNfTPU99pULqUafxcJYO14uqQoHs/SlJzTty9xbbIa9qhfu46tKqSCb4ScZ6qFG1IesiRr9DSSUpa33d22SHOjObJCfPZ2nuVMo9EQAAACgQIxwM7V6n3dKqjn2q9LR3KqX0EEDvT7p3qCPVq6r5+/REtdT62g41vdYmVa/UquqAOo5lwo4pazieK4A0JXukrF4ZK0xk2L1S6eF+zjDU/O2dPQHVPLnPefBL9FhCVfMPaUGkV62vWcEq/3vnDmTq9zWehhGQHVCH4obW0xXY3apcL+pIuXolB8UKo+lhoe6f/L2AssOhNd/Onrp+hpKOovtDCmSFawAAAGDsjXwwlD2Ur6fOuHesUTvj0qJGV++M8YXgTa+1qTdSp0Wyh2I2v65WRVTV3zBSSYoY97411mV6GKO7dFjeE/9Y3H3PXo7v6wtWqiFvuyV6LKFAXV3mwS/Ro+qIRDLDSNXPe7uHjpryvcYzU4b3PrVGHU0EtOjZzENiGvY/5V0nh3VfZ5W7d9d+2E5/94k6hrielhzHQOyQVrmOk6alr6gjsjLr4T7eXj13oM3xObIeEGTI8b2PQwujI8O8PxQAAAAYL6MTDCVF6zbqsDGssGnpPOvrE9JD/jZVq3W963vfml9Xa6+coZjOUL1+hpFK1j2GvwrZwwJTG7SoZ5dzP6DV6+caNpjq0jdTcde9cI2qXd+mGnuI60bnHrh87bb0/WZOT6bVc5VZdznDUVurM++9Su51y2Wg9TVEj2bub5QUrbMfcGO/dmN1mzZU5XloT3Sx9VAdZ3/UKbV7oJ62tCGupy3rGPhGSoc92cga5ilnaKi9P53PkA6CXZnhvdHFVo+uM5TUenhN5j5FQ7pXO71PIgnt7HefjI6qkNUzDgAAAIy3SWXB8utm40TSsL9dG0OvDBC2ilss3qUFx/oJQig89ft0vFH6Sb7QDgAAAIyhUesxxNiJvpTngT8oUNZw51S+r18BAAAAxhg9hgAAAADgcxM+GAIAAAAAhoehpAAAAADgcwRDAAAAAPA5giEAAAAA+BzBEAAAAAB8jmAIAAAAAD5HMAQAAAAAnxvRr6soC5ZrbmSeQuWzdeu0UnMyAIyJSxcvKNV9WicS7Trb021OBgAAgGHEgmH1gws0Z25EH7zXqo+TH+nC+XPmLAAwJkqnz9Ad4bt03wM1OnkiobZ3j5qzAAAAwGVEgmH1gwt02+1leuvQG+rru2xOBoBxUVIyVY8sfkx/+OQs4RAAAKAfw77HsCxYrjlzI4RCAAWnr++y3jr0hubMjagsWG5OBgAAgG3YwXBuZJ4+eK+VUAigIPX1XdYH77VqbmSeOQkAAAC2YQfDUPlsfZz8yGwGgILxcfIjhcpnm80AAACwDTsY3jqtlAfNAChoF86f40nJAAAA/Rh2MAQAAAAATGwEQwAAAADwOYIhAAAAAPgcwRAAAAAAfI5gCAAAAAA+RzAEAAAAAJ8jGAIAAACAzxEMAQAAAMDnCIYAAAAA4HMEQwAAAADwOYIhAAAAAPgcwRAAAAAAfI5gCAAAAAA+RzAEAAAAAJ8jGAIAAACAzxEMAQAAAMDnCIYAAAAA4HMEQwAAAADwOYIhAAAAAPgcwRAAAAAAfI5gCAAAAAA+RzAEAAAAAJ8jGAIAAACAzxEMAQAAAMDnCIYAAAAA4HMEQwAAAADwOYIhAAAAAPjcsIPhpYsXVDp9htkMAAWjdPoMXbp4wWwGAACAbdjBMNV9WneE7zKbAaBg3BG+S6nu02YzAAAAbMMOhicS7brvgRqVlEw1JwHAuCspmar7HqjRiUS7OQkAAAC2YQfDsz3dOnkioUcWP0Y4BFBQSkqm6pHFj+nkiYTO9nSbkwEAAGCbMq10+g/NxqHq6T6tmYHbNP+ROknX9fnnl3Slr8+cDQDGROn0Gbr7nip9te5RdZ8+pbZ3j5qzAAAAwGVSWbD8utl4o8qC5ZobmadQ+WzdOq3UnAwAY+LSxQtKdZ/WiUQ7PYUAAACDMKLBEAAAAAAw8Qz7HkMAAAAAwMRGMAQAAAAAnyMYAgAAAIDPEQwBAAAAwOcIhgAAAADgcwRDAAAAAPA5giEAAAAA+BzBEAAAAAB8jmAIAAAAAD5HMAQAAAAAnyMYAgAAAIDPEQwBAAAAwOcIhgAAAADgcwRDAAAAAPA5giEAAAAA+BzBEAAAAAB8jmAIAAAAAD5HMAQAAAAAnyMYAgAAAIDPTexgWL9Px1PtOlBvTgAAAAAADNYEC4Zb1ZLq0plUl47vXy3dH1LAnAVDtFUthGsAAADA10YuGMYO6Ywd2qyfkQ8bDfufUlVil2aFKnTv0h1SdLFmhebp6WZzTgAAAADAYI1IMIzFu3RmhbQzVKFZ6Z/dPVq0ye7ZG0G9qYTZBAAAAAAYhmEHw4b97VoVSWhnaLGi7gnRxZq1Pq5U9eOKOY2ZoaDOcFDPtHa1xNszvY7xrZ7XbawLKFC3IfPa+n06njrkLD8W79Lx/fus9+jYp4Z0W/yQjqeX2bFPDVqtAx3p9ci83tSwv11n4vtc87rXKc38TPu8QzPr92Xe2/Ne7nXoUksssyzr35l5Mv+3Q7izDt5lmOuWa3uY6+teNgAAAAB/GmYwXK0nqgPqje/yhsK05mdUW/WMPW2rWlIrpd3pXsWNaq3eYISZgKqCbdpgTz8cXGmHx0bVhiq0Id6r3vjGzFDSHAJ11Uqtr9CsqmfUlG6LBNW63l6m6rQxtUGhV6312JmIaFVW2HOJ1KmmzXrP9Dp5g9lKhex1mhWq0K9CdapyvTz2bJ2Unr5bmfeKrdQixe3PuktacUgxNWpnvFdV8+156h9XTUCZ/2urFkR6dfilRvu9N7jWrUI7tdIVAC3e7ZG9vkfnr/SsLwAAAAD/GWYwjCgUkFLJ3CHNLX1/YK2TIHfo6a1x9UYWeHrsOl5NB7od+nVbrwKhiGvqICReyb7n0GmzlqneuHba6xE9lpCClZ4w5ZHY5Qqhxjrb4e4nrpAardulDud/q1UZVOYzRBdrVl2jJKkhHJQCITuUNarW7nFteq1Nven1uUaZM7QAAA3pSURBVD8kxePqcN5vgap62/Tr5n7eO1CtJ9z3drq3R77XOP8DAAAA4EfDDIYJpXqlUHjg+wirQoHs+wObO5VSUJVOkOlV6v3M5KZkT+Y/g5T1Hrnaejqd3kS9n1Kvd6pH1mtd69wQDnqXJTnbxLJDT1fZvYzGUNKmpfO0IR7UKnNIZ/PrapUV7mLzI0oln9HRREQLYtb/e9teV1M6WOZ874BC92da3Ouf/zWeBgAAAAA+M8xgaPfq1a3MfZ9e/T4dsCd0pHL0/tVXKqQedZo9fAWkv3VuSvbk6G20elEzdujpKmvY5oZ40DNstWnpPGtI5/q4QivSoXGHOnsCqnlynxZEEjoatXo1q+Yf0oJIr1pfs3r78r+3N1y75X+NpwEAAACAzwwzGFrhZmciolXmQ1xih3RmU50W2YGnaekr6ois9D5YpbFOynd/YqGIpO9zlLPOgcRRa52ju3RYdfpb10N0YnH3PXs5viPQDmbWg2HcPa2ZntPosYQCdXWqct7nqDoikcwwUvXz3rmG0qble41nJgAAAAB+M+xgKEnROvvBKq6nXZ5ZEdTh9RWa5TyttFG1oV3SivQ81oNT8j1EpmAkdulXIetJqGdSG7SoZ5dzn6DVG7hLKftJqWdSXfpmKu66Z69RtevbVLPJmraxTjq81bqHMlpnP3wn1aUzm+qkeCwT6KJH1SGp41j6fazhnulhpBZrmKqzjFSXVsm9brkMtL4AAAAA/GhSWbD8utkIS8P+dm0MvTJA2AIAAACAiW1EegwBAAAAABMXwRAAAAAAfI6hpAAAAADgc/QYAgAAAIDPEQwBAAAAwOcIhgAAAADgcwRDAAAAAPA5giEAAAAA+BzBEAAAAAB8bkS/rqIsWK65kXkKlc/WrdNKzckAMCYuXbygVPdpnUi062xPtzkZAAAAhhELhtUPLtCcuRF98F6rPk5+pAvnz5mzAMCYKJ0+Q3eE79J9D9To5ImE2t49as4CAAAAlxEJhtUPLtBtt5fprUNvqK/vsjkZAMZFSclUPbL4Mf3hk7OEQwAAgH4M+x7DsmC55syNEAoBFJy+vst669AbmjM3orJguTkZAAAAtmEHw7mRefrgvVZCIYCC1Nd3WR+816q5kXnmJAAAANiGHQxD5bP1cfIjsxkACsbHyY8UKp9tNgMAAMA27GB467RSHjQDoKBdOH+OJyUDAAD0Y9jBEAAAAAAwsREMAQAAAMDnCIYAAAAA4HMEQwAAAADwOYIhAAAAAPgcwRAAAAAAfI5gCAAAAAA+RzAEAAAAAJ8jGAIAAACAzxEMAQAAAMDnCIYAAAAA4HMEQwAAAADwOYIhAAAAAPgcwRAAAAAAfI5gCAAAAAA+RzAEAAAAAJ8jGAIAAACAzxEMAQAAAMDnCIYAAAAA4HMEQwAAAADwOYIhAAAAAPgcwRAAAAAAfI5gCAAAAAA+RzAEAAAAAJ8jGAIAAACAzxEMAQAAAMDnCIYAAAAA4HPDDoaXLl5Q6fQZZjMAFIzS6TN06eIFsxkAAAC2YQfDVPdp3RG+y2wGgIJxR/gupbpPm80AAACwDTsYnki0674HalRSMtWcBADjrqRkqu57oEYnEu3mJAAAANiGHQzP9nTr5ImEHln8GOEQQEEpKZmqRxY/ppMnEjrb021OBgAAgG3KtNLpPzQbh6qn+7RmBm7T/EfqJF3X559f0pW+PnM2ABgTpdNn6O57qvTVukfVffqU2t49as4CAAAAl0llwfLrZuONKguWa25knkLls3XrtFJzMgCMiUsXLyjVfVonEu30FAIAAAzCiAZDAAAAAMDEM+x7DAEAAAAAExvBEAAAAAB8jmAIAAAAAD5HMAQAAAAAnyMYAgAAAIDPEQwBAAAAwOcIhgAAAADgcwRDAAAAAPA5giEAAAAA+BzBEAAAAAB8jmAIAAAAAD5HMAQAAAAAnyMYAgAAAIDPEQwBAAAAwOcIhgAAAADgcwRDAAAAAPA5giEAAAAA+BzBEAAAAAB8jmAIAAAAAD43qSxYft1sHC3XSmfp2sxyXZt2u65PnanrN9+i65OmmLOhwE26flWTrnyuSZc/0+SLn2jyZ92afOGMORsAAACACWJMguEXwXm6evs9ujZ1pjkJRWLy5c805ZPf6aaednMSAAAAgAI3qsHw6m1z9EVFja6VlJqTUKQm913QTV2tmvKHk+YkAAAAAAVq1ILhlfACfXH7vWYzfOKmT47r5uRRsxkAAABAARr5h89MmqK+e75OKPS5L26/V333fF3iHlIAAACg4I14MOybu0hXZ1SYzfChqzMq1Dd3kdkMAAAAoMCMaDC8El5AKITH1RkVuhJeYDYDAAAAKCAjFgyv3jaH4aPI6Yvb79XV2+aYzQAAAAAKxIgFwy8qaswmwMHxAQAAABSuEQmGXwTn8ZUU6Ne1klJ9EZxnNgMAAAAoACMSDK/efo/ZBGThOAEAAAAK07C/x/Ba6SxdjjxhNk8I/+GBL+nBO7w9nWfOX1HTb3s8bRg5UxO/1uQLZ8xmAAAAAONo2D2G12aWm00TytVr13XoxDlt/H8/1sH/9gfNvGWK/uKhMnO2IflKxTR9/9GKYS+nGE304wUAAAAoRsPuMey75+sT9isq/sMDX1JNxTS1nDyvN3/3me7+8lQt+aPbdPmLa06v4aP3zFTtnOmaMnmSJOnD31/Wf3nnbNa0q9euq+Xkec2YOjmrF/Ldjy/o/3rvU32lYpr+/byApt5k5XFzWV+tLFXP+S8U/lKJM+0vHirT3V+eKtkhNr2uE9WUc10q+d0/mc0AAAAAxtGUaaXTf2g2DsUXFTW6PqXEbJ4Q7pt1i0Izblby0z6d/MNl3fWlqZoXvEUX+q7p95eu6sHZpaqdM12dn/ZpezylyZMmqbr8Vn3p1inqu3pdX79nps5fvqotv+nWnC9P1R0zb9b/+e4n+vTSVd395alK2q/74MznTig8/dkVbY+n9Omlq/o3d0zT3Ntv0b92XdTdX56qObdN1eRJk7T3X3+v35w4p794qEyVXypR/MPz+tmxs5rz5am6P3iLzl2+ptT5K+bHmRAmTZqsm858YDYDAAAAGEfDHkp6/eZbzKYJZcrkSVo8d4Y2/Ls7tOSPb9Nnn1/V//7/ndGHv7+s8JdK9MW16/rX0xclSW/+7jP9/uIXuud26zNf/uKaZt4yRV+pmKb/8s7Zfu9N/Mrsabr8xXUd/vCcJOlfuy7q9GdXNHvmzfpKxTRnvt998rk+/P1l3f3lqbp92k36/cUvnB7C9Hp8ZXZm/olmoh8vAAAAQDEafjCcNMVsmlDS9xieOX9FV69d1/s9nzvTppdM1tSbJmvJH9+mDf/uDm34d3do1vSbnektJ89Lkpb88W36nx+frUfvmelMM00vyd7Un176QjdNnqQvT7tJkvTFtes6d/maJGnm1CmaetMkzZp+s/PeS/74NmcY6kQ10Y8XAAAAoBgNeyjp1dAD0qSJGVbcQ0mPnbqge26/RXfdVuIM1bw/dKum2EM7D/73P+g3J87pNyfO6a3O8/r00lWlzl9R/OR5dX7ap3tuv0XlM25W6vwVTb1psiJl1pDPf+2yevnuD92q226douSnfc4w0K9WTldpyWS1dV3SrTdP1p2BEn3ce0Un/3BZ00qsZaSHnqbf+zcnzjnLnIgmXb+qm1L/3WwGAAAAMI6GnegmXcn0sE1kH/7+st44bg3ZfOzemc49gqUlk1Vdfqsk6e4vT9V/WlSuv3iozHny6H944Ev68PeXdfkLq6dPkj67fFWXv7ju6SU0h4F+pWKaZs+8Wac/u5Iz6H34+8v65OIXnqGmj94zU99/tKLfnslCVyzHCwAAAFBMht1jeG1mha5PnWE2Twjmw2dS56/o5imTdc/tU1VTMU3JT/uU/LRPC8KlevTemfrK7Gn67POr+u+pSzp26oK+PO0mPXhHqb5+z0zdctNkHU1e0LunL+rTS1d1682Tdd+sW/TovTMVuGWKDn14TucuX9O/uWOaHo8ENC94q5Kf9jlPJb37y1M9PYay70Oce/st+tpd0/X1e2bqrtumqr3nkj7uvTJhHz4z+eInmvKHk2YzAAAAgHE07K+r+KKiWldCf2w2AzndnPpvuqmrzWwGAAAAMI6GPZR08mfdZhOQF8cLAAAAUHiGHwwvnNHkyxP3C9cxdiZf/kyTL5wxmwEAAACMs2EHQ0ma8snvzCYgC8cJAAAAUJhGJBje1NOuyX0XzGbAMbnvgm7qaTebAQAAABSAEQmGknRTV6vZBDg4PgAAAIDCNWLBcMofTuqmT46bzYBu+uQ4X1EBAAAAFLARC4aSdHPyqKac6zKb4WNTznXp5uRRsxkAAABAARnRYChJJScOEw4h2aGw5MRhsxkAAABAgRnxYKjrV1Xyu39iWKnP3fTJcZX87p+k61fNSQAAAAAKzKSyYPl1s3GkXL1tjr6oqNG1klJzEorU5L4LuqmrlXsKAQAAgAlkVINh2hfBebp6+z26NnWmOQlFYvLlzzTlk9/xlRQAAADABDQmwTDtWuksXZtZrmvTbtf1qTN1/eZbdH3SFHM2FLhJ169q0pXPNenyZ5p88RNN/qxbky+cMWcDAAAAMEGMaTAEAAAAABSekX/4DAAAAABgQiEYAgAAAIDPEQwBAAAAwOcIhgAAAADgcwRDAAAAAPA5giEAAAAA+BzBEAAAAAB8jmAIAAAAAD5HMAQAAAAAnyMYAgAAAIDPEQwBAAAAwOcIhgAAAADgc/8/NMDaCyb3u28AAAAASUVORK5CYII=;" vertex="1" parent="WIyWlLk6GJQsqaUBKTNV-1">
          <mxGeometry x="2.319999999999993" y="870" width="462.68" height="495" as="geometry" />
        </mxCell>
      </root>
    </mxGraphModel>
  </diagram>
</mxfile>
